<svg width="120" height="29" viewBox="0 0 120 29" fill="none" xmlns="http://www.w3.org/2000/svg">
<g clip-path="url(#clip0_32_652)">
<path fill-rule="evenodd" clip-rule="evenodd" d="M36.8499 14.7999V20.1501H38.0751H39.3L39.3003 16.9875L39.3009 13.8249L39.4755 14.0091C39.5715 14.1105 39.6501 14.2191 39.6501 14.2509C39.6501 14.2824 39.7287 14.3847 39.825 14.4783C39.9213 14.5719 39.9999 14.6775 39.9999 14.7132C39.9999 14.7486 40.0449 14.8104 40.1001 14.85C40.155 14.8896 40.2 14.9406 40.2 14.9631C40.2 15.0069 40.2576 15.0828 40.4376 15.2751C40.4994 15.3414 40.5501 15.4191 40.5501 15.4476C40.5501 15.4764 40.5669 15.5001 40.5879 15.5001C40.6086 15.5001 40.6554 15.5676 40.692 15.6501C40.7286 15.7326 40.7901 15.8001 40.8291 15.8001C40.8681 15.8001 40.8999 15.8337 40.8999 15.8751C40.8999 15.9162 40.9224 15.9501 40.95 15.9501C40.9776 15.9501 41.0001 15.9846 41.0001 16.0266C41.0001 16.0689 41.0787 16.182 41.175 16.2783C41.2713 16.3746 41.3499 16.4772 41.3499 16.5066C41.3499 16.536 41.4174 16.623 41.4999 16.7001C41.5824 16.7772 41.6499 16.8732 41.6499 16.9137C41.6499 16.9542 41.7288 17.0544 41.8251 17.1369C41.9211 17.2191 42 17.3175 42 17.3556C42 17.4438 42.2184 17.7 42.2934 17.7C42.3246 17.7 42.3501 17.7417 42.3501 17.7927C42.3501 17.8434 42.4176 17.9559 42.5001 18.042C42.5826 18.1284 42.6501 18.2172 42.6501 18.2391C42.6501 18.261 42.7287 18.3627 42.825 18.4647C42.9213 18.5667 42.9999 18.684 42.9999 18.7251C42.9999 18.7662 43.0224 18.8001 43.05 18.8001C43.0776 18.8001 43.1001 18.8337 43.1001 18.8751C43.1001 18.9162 43.1241 18.9501 43.1535 18.9501C43.2333 18.9501 43.35 19.0815 43.35 19.1715C43.35 19.2147 43.3725 19.2501 43.4001 19.2501C43.4274 19.2501 43.4499 19.2735 43.4499 19.3023C43.4499 19.3311 43.5006 19.4088 43.5624 19.4748C43.7355 19.6599 43.8 19.7427 43.8 19.7796C43.8 19.7982 43.8408 19.8498 43.8909 19.8942C43.941 19.9386 43.9965 20.0145 44.0145 20.0625C44.0439 20.142 44.1441 20.1501 45.1275 20.1501H46.2078L46.404 19.9458C46.5117 19.8336 46.5999 19.7211 46.5999 19.6956C46.5999 19.6701 46.6674 19.5786 46.7499 19.4922C46.8324 19.4058 46.8999 19.2936 46.8999 19.2426C46.8999 19.1916 46.9254 19.1499 46.9566 19.1499C47.0295 19.1499 47.25 18.8949 47.25 18.8109C47.25 18.7755 47.3286 18.6678 47.4249 18.5718C47.5212 18.4755 47.6001 18.3747 47.6001 18.348C47.6001 18.321 47.6676 18.2286 47.7501 18.1422C47.8326 18.0558 47.9001 17.9676 47.9001 17.946C47.9001 17.9247 47.9787 17.8236 48.075 17.7216C48.1713 17.6196 48.2499 17.5053 48.2499 17.4681C48.2499 17.4306 48.2724 17.4 48.3 17.4C48.3276 17.4 48.3501 17.3688 48.3501 17.3304C48.3501 17.292 48.3837 17.2476 48.4251 17.232C48.4662 17.2161 48.5001 17.1735 48.5001 17.1375C48.5001 17.1015 48.5451 17.0397 48.6 17.0001C48.6549 16.9605 48.6999 16.899 48.6999 16.8639C48.6999 16.8288 48.7224 16.8 48.75 16.8C48.7776 16.8 48.8001 16.7694 48.8001 16.7319C48.8001 16.6947 48.8562 16.6218 48.9249 16.5702C48.9939 16.5186 49.05 16.4478 49.05 16.413C49.05 16.3785 49.0725 16.35 49.1001 16.35C49.1274 16.35 49.1499 16.3143 49.1499 16.2708C49.1499 16.2273 49.2288 16.1151 49.3251 16.0218C49.4211 15.9282 49.5 15.8286 49.5 15.8004C49.5 15.7722 49.5675 15.6786 49.65 15.5922C49.7325 15.5058 49.8 15.3936 49.8 15.3426C49.8 15.2916 49.8255 15.2499 49.8567 15.2499C49.9302 15.2499 50.1498 14.9946 50.1498 14.9091C50.1501 14.8728 50.2287 14.769 50.325 14.6781C50.4213 14.5875 50.4999 14.4876 50.4999 14.4561C50.4999 14.4249 50.5668 14.3292 50.6484 14.2437C50.73 14.1582 50.8104 14.046 50.8269 13.9941C50.9307 13.6671 50.9499 14.1429 50.9499 17.025V20.1501H52.2249H53.4999V14.7999V9.45H52.3035C51.1506 9.45 51.1056 9.4536 51.075 9.5499C51.0576 9.6051 51.0222 9.6501 50.9967 9.6501C50.9709 9.6501 50.9499 9.6837 50.9499 9.7251C50.9499 9.7662 50.9274 9.8001 50.9001 9.8001C50.8725 9.8001 50.85 9.8307 50.85 9.8679C50.85 9.9054 50.7939 9.9783 50.7249 10.0299C50.6562 10.0815 50.6001 10.152 50.6001 10.1868C50.6001 10.2216 50.5776 10.2501 50.55 10.2501C50.5224 10.2501 50.4999 10.2852 50.4999 10.3284C50.4999 10.3716 50.4213 10.4811 50.325 10.5717C50.2287 10.6626 50.1501 10.7685 50.1501 10.8075C50.1501 10.8462 50.1051 10.9104 50.0499 10.95C49.995 10.9896 49.95 11.0406 49.95 11.0631C49.95 11.1069 49.8924 11.1828 49.7124 11.3751C49.6506 11.4414 49.5999 11.5191 49.5999 11.5476C49.5999 11.5764 49.5774 11.6001 49.5501 11.6001C49.5225 11.6001 49.5 11.6397 49.5 11.688C49.5 11.7366 49.4439 11.8185 49.3749 11.8701C49.3062 11.9217 49.2501 11.9913 49.2501 12.0246C49.2501 12.0579 49.1826 12.1557 49.1001 12.2421C49.0176 12.3285 48.9501 12.4443 48.9501 12.4995C48.9501 12.5547 48.9264 12.6 48.8976 12.6C48.8175 12.6 48.6 12.8358 48.6 12.9228C48.6 12.9651 48.5775 12.9999 48.5499 12.9999C48.5226 12.9999 48.5001 13.0338 48.5001 13.0749C48.5001 13.1163 48.468 13.1499 48.4293 13.1499C48.3903 13.1499 48.3285 13.2174 48.2919 13.2999C48.2556 13.3824 48.2085 13.4499 48.1878 13.4499C48.1671 13.4499 48.15 13.4736 48.15 13.5024C48.15 13.5309 48.0993 13.6086 48.0375 13.6749C47.8698 13.8543 47.7999 13.9425 47.7999 13.9749C47.7999 13.9911 47.7549 14.0526 47.7 14.1114C47.6451 14.1705 47.6001 14.2485 47.6001 14.2845C47.6001 14.3205 47.5776 14.3499 47.55 14.3499C47.5224 14.3499 47.4999 14.3838 47.4999 14.4249C47.4999 14.4663 47.4663 14.4999 47.4249 14.4999C47.3838 14.4999 47.3499 14.5296 47.3499 14.5656C47.3499 14.6016 47.3049 14.6793 47.25 14.7384C47.1951 14.7975 47.1501 14.8692 47.1501 14.898C47.1501 14.9265 47.1276 14.9499 47.1 14.9499C47.0724 14.9499 47.0499 14.9949 47.0499 15.0501C47.0499 15.105 47.0259 15.15 46.9965 15.15C46.9272 15.15 46.8 15.2772 46.8 15.3465C46.8 15.3759 46.7775 15.3999 46.7499 15.3999C46.7226 15.3999 46.7001 15.4353 46.7001 15.4785C46.7001 15.5214 46.6212 15.6309 46.5249 15.7218C46.4286 15.8124 46.35 15.9186 46.35 15.9573C46.35 15.9963 46.305 16.0605 46.2501 16.1001C46.1949 16.1397 46.1499 16.1907 46.1499 16.2132C46.1499 16.257 46.0923 16.3329 45.9126 16.5252C45.8505 16.5912 45.8001 16.6803 45.8001 16.7226C45.8001 16.7652 45.7776 16.8 45.75 16.8C45.7224 16.8 45.6999 16.83 45.6999 16.8666C45.6999 16.9032 45.6438 16.9632 45.5751 17.0001C45.5064 17.0367 45.45 17.1081 45.45 17.1585C45.45 17.2089 45.4275 17.25 45.3999 17.25C45.3726 17.25 45.3501 17.2836 45.3501 17.325C45.3501 17.3661 45.3396 17.4 45.3267 17.4C45.2778 17.4 45 17.1006 45 17.0481C45 17.0178 44.9718 16.9644 44.9376 16.9296C44.9031 16.8948 44.8299 16.8036 44.775 16.7271C44.7201 16.6503 44.6244 16.5351 44.5626 16.4709C44.5005 16.407 44.4501 16.3311 44.4501 16.3023C44.4501 16.2735 44.4276 16.2501 44.4 16.2501C44.3724 16.2501 44.3499 16.2147 44.3499 16.1715C44.3499 16.0815 44.2332 15.9501 44.1537 15.9501C44.124 15.9501 44.1 15.9162 44.1 15.8751C44.1 15.8337 44.0775 15.8001 44.0499 15.8001C44.0226 15.8001 44.0001 15.7599 44.0001 15.711C44.0001 15.6621 43.9551 15.5895 43.8999 15.5499C43.845 15.5103 43.8 15.4515 43.8 15.4194C43.8 15.387 43.7661 15.3477 43.725 15.3318C43.6836 15.3162 43.65 15.2769 43.65 15.2448C43.65 15.213 43.6089 15.1503 43.5588 15.1059C43.5084 15.0615 43.4355 14.952 43.3965 14.8626C43.3575 14.7732 43.3071 14.7 43.2843 14.7C43.215 14.7 43.1001 14.562 43.1001 14.4786C43.1001 14.4354 43.0776 14.4 43.05 14.4C43.0224 14.4 42.9999 14.3766 42.9999 14.3478C42.9999 14.319 42.9495 14.2413 42.8874 14.175C42.7077 13.983 42.6501 13.9071 42.6501 13.863C42.6501 13.8405 42.6051 13.7895 42.5499 13.7499C42.495 13.7103 42.45 13.6512 42.45 13.6182C42.45 13.5855 42.3711 13.4775 42.2751 13.3785C42.1788 13.2792 42.0999 13.1649 42.0999 13.1241C42.0999 13.0833 42.0774 13.05 42.0501 13.05C42.0225 13.05 42 13.026 42 12.9963C42 12.9273 41.8728 12.8001 41.8035 12.8001C41.7741 12.8001 41.7501 12.7551 41.7501 12.6999C41.7501 12.645 41.7276 12.6 41.7 12.6C41.6724 12.6 41.6499 12.5712 41.6499 12.5361C41.6499 12.501 41.6049 12.4395 41.55 12.3999C41.4951 12.3603 41.4501 12.2985 41.4501 12.2625C41.4501 12.2265 41.4162 12.1839 41.3751 12.168C41.3337 12.1524 41.3001 12.1128 41.3001 12.0807C41.3001 12.0486 41.2551 11.9895 41.1999 11.9499C41.145 11.9103 41.1 11.8458 41.1 11.8065C41.1 11.7672 41.0211 11.6586 40.9251 11.565C40.8288 11.4717 40.7499 11.3721 40.7499 11.3439C40.7499 11.316 40.722 11.2644 40.6875 11.2296C40.653 11.1948 40.5801 11.1036 40.5249 11.0271C40.47 10.9503 40.38 10.8396 40.3251 10.7811C40.2699 10.7229 40.1913 10.6074 40.1499 10.5249C40.0593 10.3437 39.9753 10.2501 39.9036 10.2501C39.8742 10.2501 39.8499 10.2051 39.8499 10.1499C39.8499 10.095 39.8274 10.05 39.8001 10.05C39.7725 10.05 39.75 10.0212 39.75 9.9861C39.75 9.951 39.705 9.8895 39.6501 9.8499C39.5949 9.8103 39.5493 9.7548 39.5484 9.7266C39.54 9.4701 39.4344 9.45 38.1045 9.45H36.8499V14.7999ZM64.05 9.5274C64.05 9.57 63.9939 9.657 63.9249 9.7206C63.8562 9.7842 63.8001 9.8682 63.8001 9.9072C63.8001 9.9462 63.7551 10.0104 63.6999 10.05C63.645 10.0896 63.6 10.1733 63.6 10.236C63.6 10.2987 63.576 10.35 63.5463 10.35C63.4617 10.35 63.3501 10.4841 63.3501 10.5855C63.3501 10.6362 63.3051 10.7103 63.2499 10.7499C63.195 10.7895 63.15 10.8621 63.15 10.911C63.15 10.9599 63.1161 11.0001 63.075 11.0001C63.0336 11.0001 63 11.0337 63 11.0751C63 11.1162 62.9775 11.1501 62.9499 11.1501C62.9226 11.1501 62.9001 11.19 62.9001 11.2389C62.9001 11.2878 62.8551 11.3604 62.7999 11.4C62.745 11.4396 62.7 11.5233 62.7 11.586C62.7 11.6487 62.676 11.7 62.6463 11.7C62.5668 11.7 62.4501 11.8317 62.4501 11.9214C62.4501 11.9646 62.4276 12 62.4 12C62.3724 12 62.3499 12.0336 62.3499 12.075C62.3499 12.1161 62.3274 12.15 62.3001 12.15C62.2725 12.15 62.25 12.1896 62.25 12.2382C62.25 12.2865 62.1939 12.3684 62.1249 12.42C62.0562 12.4719 62.0001 12.5508 62.0001 12.5961C62.0001 12.6411 61.9551 12.7104 61.8999 12.75C61.845 12.7896 61.8 12.8622 61.8 12.9111C61.8 12.96 61.7775 12.9999 61.7499 12.9999C61.7226 12.9999 61.7001 13.0338 61.7001 13.0749C61.7001 13.1163 61.6662 13.1499 61.6251 13.1499C61.5837 13.1499 61.5501 13.1847 61.5501 13.227C61.5501 13.2696 61.5051 13.3524 61.4499 13.4115C61.395 13.4706 61.35 13.5543 61.35 13.5975C61.35 13.6407 61.2939 13.7184 61.2249 13.77C61.1562 13.8219 61.1001 13.9008 61.1001 13.9461C61.1001 13.9911 61.0551 14.0604 60.9999 14.1C60.945 14.1396 60.9 14.2122 60.9 14.2611C60.9 14.31 60.8775 14.3499 60.8499 14.3499C60.8226 14.3499 60.8001 14.3814 60.8001 14.4198C60.8001 14.4579 60.7662 14.5023 60.7251 14.5182C60.6837 14.5338 60.6501 14.5764 60.6501 14.6124C60.6501 14.6484 60.6051 14.7105 60.5499 14.7501C60.495 14.7897 60.45 14.8683 60.45 14.925C60.45 14.9817 60.405 15.0603 60.3501 15.0999C60.2949 15.1395 60.2499 15.1956 60.2499 15.2241C60.2499 15.2526 60.1938 15.3366 60.1251 15.4107C60.0564 15.4851 60 15.5754 60 15.6117C60 15.6483 59.955 15.7104 59.9001 15.75C59.8449 15.7896 59.7999 15.8733 59.7999 15.936C59.7999 15.9987 59.7759 16.05 59.7465 16.05C59.6619 16.05 59.55 16.1841 59.55 16.2855C59.55 16.3362 59.505 16.4103 59.4501 16.4499C59.3949 16.4895 59.3499 16.5621 59.3499 16.611C59.3499 16.6599 59.3163 16.7001 59.2749 16.7001C59.2338 16.7001 59.1999 16.7337 59.1999 16.7751C59.1999 16.8162 59.1774 16.8501 59.1501 16.8501C59.1225 16.8501 59.1 16.89 59.1 16.9389C59.1 16.9878 59.055 17.0604 59.0001 17.1C58.9449 17.1396 58.8999 17.2233 58.8999 17.286C58.8999 17.3487 58.8759 17.4 58.8465 17.4C58.7667 17.4 58.65 17.5317 58.65 17.6214C58.65 17.6646 58.6275 17.7 58.5999 17.7C58.5726 17.7 58.5501 17.7336 58.5501 17.775C58.5501 17.8161 58.5276 17.85 58.5 17.85C58.4724 17.85 58.4499 17.886 58.4499 17.9304C58.4499 17.9745 58.3938 18.0549 58.3251 18.1089C58.2564 18.1629 58.2 18.2457 58.2 18.2925C58.2 18.3396 58.155 18.4104 58.1001 18.45C58.0449 18.4896 57.9999 18.5622 57.9999 18.6111C57.9999 18.66 57.9774 18.6999 57.9501 18.6999C57.9225 18.6999 57.9 18.7338 57.9 18.7749C57.9 18.8163 57.8661 18.8499 57.825 18.8499C57.7836 18.8499 57.75 18.8847 57.75 18.927C57.75 18.9696 57.705 19.0524 57.6501 19.1115C57.5949 19.1706 57.5499 19.2543 57.5499 19.2975C57.5499 19.3407 57.4938 19.4184 57.4251 19.47C57.3564 19.5219 57.3 19.6008 57.3 19.6461C57.3 19.6911 57.255 19.7604 57.2001 19.8C57.1413 19.8423 57.0999 19.9293 57.0999 20.0109V20.1501H58.5411H59.982L60.0909 20.0247C60.1509 19.9557 60.2001 19.8759 60.2001 19.8471C60.2001 19.8186 60.2562 19.743 60.3249 19.6794C60.3939 19.6158 60.45 19.5369 60.45 19.5048C60.45 19.4724 60.495 19.3974 60.5499 19.3386C60.6051 19.2795 60.6501 19.1904 60.6501 19.1406C60.6501 19.0908 60.6756 19.05 60.7071 19.05C60.7803 19.05 60.8964 18.8976 60.8985 18.7986C60.8994 18.7566 60.945 18.6897 60.9999 18.6501C61.0551 18.6105 61.1001 18.5379 61.1001 18.489C61.1001 18.4401 61.1229 18.3999 61.1508 18.3999C61.1787 18.3999 61.2393 18.3213 61.2852 18.225C61.3311 18.1287 61.3869 18.0501 61.4094 18.0501C61.4316 18.0501 61.4499 18.0051 61.4499 17.9499C61.4499 17.895 61.4724 17.85 61.5 17.85C61.5276 17.85 61.5501 17.8161 61.5501 17.775C61.5501 17.7336 61.5732 17.7 61.6017 17.7C61.6299 17.7 61.6683 17.6607 61.6866 17.6124C61.7049 17.5644 61.7604 17.4813 61.8099 17.4282C61.8594 17.3748 61.8999 17.2953 61.8999 17.2515C61.8999 17.208 61.9449 17.1396 62.0001 17.1C62.055 17.0604 62.1 16.9767 62.1 16.914C62.1 16.8513 62.124 16.8 62.1537 16.8C62.2332 16.8 62.3499 16.6683 62.3499 16.5786C62.3499 16.5354 62.3724 16.5 62.4 16.5C62.4276 16.5 62.4501 16.4661 62.4501 16.425C62.4501 16.3836 62.4726 16.35 62.4999 16.35C62.5275 16.35 62.55 16.305 62.55 16.2501C62.55 16.1949 62.5797 16.1499 62.6157 16.1499C62.6517 16.1499 62.7123 16.0713 62.7501 15.975C62.7879 15.8787 62.8371 15.8001 62.8593 15.8001C62.8818 15.8001 62.9001 15.7686 62.9001 15.7302C62.9001 15.6918 62.9559 15.6075 63.024 15.5427C63.0924 15.4779 63.1488 15.3906 63.1491 15.3486C63.1497 15.3066 63.195 15.2397 63.2499 15.2001C63.3051 15.1605 63.3501 15.087 63.3501 15.0366C63.3501 14.9865 63.4005 14.8914 63.4626 14.8251C63.6501 14.6247 63.6999 14.5566 63.6999 14.502C63.6999 14.4735 63.7224 14.4501 63.75 14.4501C63.7776 14.4501 63.8001 14.4051 63.8001 14.3499C63.8001 14.295 63.819 14.25 63.8421 14.25C63.8652 14.25 63.9267 14.1711 63.9786 14.0751C64.0302 13.9788 64.0902 13.8999 64.1115 13.8999C64.1325 13.8999 64.1499 13.8705 64.1499 13.8345C64.1499 13.7985 64.1949 13.7205 64.2501 13.6614C64.305 13.6026 64.35 13.5219 64.35 13.4823C64.35 13.4427 64.4058 13.3575 64.4742 13.2927C64.5423 13.2279 64.5987 13.1406 64.599 13.0986C64.5996 13.0566 64.6449 12.9897 64.7001 12.9501C64.755 12.9105 64.8 12.8379 64.8 12.789C64.8 12.7401 64.8225 12.6999 64.8501 12.6999C64.8774 12.6999 64.8999 12.6687 64.8999 12.6303C64.8999 12.5919 64.9338 12.5478 64.9749 12.5319C65.0163 12.516 65.0499 12.4686 65.0499 12.4266C65.0499 12.3846 65.0685 12.3501 65.091 12.3501C65.1444 12.3501 65.3499 12.5868 65.3499 12.648C65.3499 12.6741 65.4063 12.7518 65.475 12.8205C65.5437 12.8892 65.6001 12.9864 65.6001 13.0368C65.6001 13.0869 65.6451 13.1604 65.7 13.2C65.7549 13.2396 65.7999 13.3122 65.7999 13.3611C65.7999 13.41 65.8338 13.4499 65.8749 13.4499C65.9163 13.4499 65.9499 13.4907 65.9499 13.5405C65.9499 13.5903 65.9949 13.6794 66.0501 13.7385C66.105 13.7976 66.15 13.8804 66.15 13.923C66.15 13.9653 66.1725 14.0001 66.2001 14.0001C66.2274 14.0001 66.2499 14.0337 66.2499 14.0751C66.2499 14.1162 66.2838 14.1501 66.3249 14.1501C66.3663 14.1501 66.3999 14.1846 66.3999 14.2272C66.3999 14.2695 66.4449 14.3526 66.5001 14.4114C66.555 14.4705 66.6 14.5596 66.6 14.6094C66.6 14.6592 66.6183 14.7 66.6408 14.7C66.663 14.7 66.7191 14.7786 66.765 14.8749C66.8109 14.9712 66.8712 15.0501 66.8991 15.0501C66.927 15.0501 66.9501 15.09 66.9501 15.1389C66.9501 15.1878 66.9951 15.2604 67.05 15.3C67.1049 15.3396 67.1499 15.4137 67.1499 15.4647C67.1499 15.5661 67.2618 15.6999 67.3464 15.6999C67.3758 15.6999 67.4001 15.7437 67.4001 15.7971C67.4001 15.8505 67.4226 15.9081 67.4499 15.9249C67.6224 16.0317 67.3605 16.05 65.6703 16.05C63.8826 16.05 63.84 16.0524 63.8145 16.1499C63.8001 16.2051 63.7686 16.2501 63.7443 16.2501C63.72 16.2501 63.6999 16.2723 63.6999 16.2996C63.6999 16.3446 63.5736 16.5111 63.4125 16.6782C63.378 16.7136 63.3501 16.767 63.3501 16.7964C63.3501 16.8258 63.3276 16.8501 63.3 16.8501C63.2724 16.8501 63.2499 16.8852 63.2499 16.9284C63.2499 16.9716 63.1713 17.0811 63.075 17.1717C62.9787 17.2626 62.9001 17.3685 62.9001 17.4075C62.9001 17.4462 62.8551 17.5104 62.7999 17.55C62.745 17.5896 62.7 17.6412 62.7 17.6646C62.7 17.688 62.6718 17.7384 62.6376 17.7768C62.2767 18.1791 62.0388 18.15 65.7 18.15H68.9499V18.2751C68.9499 18.3438 68.9697 18.3999 68.994 18.3999C69.018 18.3999 69.0657 18.4674 69.0999 18.5499C69.1341 18.6324 69.1932 18.6999 69.231 18.6999C69.2694 18.6999 69.3 18.7506 69.3 18.8139C69.3 18.8766 69.345 18.9603 69.3999 18.9999C69.4551 19.0395 69.5007 19.1064 69.5016 19.1484C69.5037 19.2474 69.6198 19.4001 69.693 19.4001C69.7245 19.4001 69.75 19.4451 69.75 19.5C69.75 19.5549 69.7725 19.5999 69.8001 19.5999C69.8274 19.5999 69.8499 19.6449 69.8499 19.7001C69.8499 19.755 69.8724 19.8 69.9 19.8C69.9276 19.8 69.9501 19.8336 69.9501 19.875C69.9501 19.9161 69.9699 19.95 69.9942 19.95C70.0185 19.95 70.05 19.995 70.0644 20.0499C70.0899 20.1471 70.1328 20.1501 71.5953 20.1501H73.1001V20.0001C73.1001 19.8999 73.0749 19.8501 73.0251 19.8501C72.9834 19.8501 72.9501 19.8057 72.9501 19.7499C72.9501 19.695 72.9276 19.65 72.9 19.65C72.8724 19.65 72.8499 19.6161 72.8499 19.575C72.8499 19.5336 72.8274 19.5 72.8001 19.5C72.7725 19.5 72.75 19.4694 72.75 19.4322C72.75 19.395 72.6993 19.3095 72.6375 19.242C72.5757 19.1748 72.4932 19.059 72.4542 18.9849C72.4149 18.9108 72.3645 18.8499 72.3417 18.8499C72.3186 18.8499 72.3 18.8049 72.3 18.75C72.3 18.6951 72.2775 18.6501 72.2499 18.6501C72.2226 18.6501 72.2001 18.6258 72.2001 18.5964C72.2001 18.567 72.1719 18.5115 72.1374 18.4731C71.9892 18.3078 71.9499 18.2511 71.9499 18.2022C71.9499 18.1734 71.9274 18.15 71.9001 18.15C71.8725 18.15 71.85 18.1101 71.85 18.0609C71.85 18.012 71.805 17.9397 71.7501 17.9001C71.6949 17.8605 71.6499 17.8002 71.6499 17.7663C71.6499 17.7324 71.5938 17.6484 71.5251 17.5794C71.4564 17.5107 71.4 17.4198 71.4 17.3772C71.4 17.3349 71.3775 17.3001 71.3499 17.3001C71.3226 17.3001 71.3001 17.2662 71.3001 17.2251C71.3001 17.1837 71.2776 17.1501 71.25 17.1501C71.2224 17.1501 71.1999 17.1156 71.1999 17.0733C71.1999 17.0313 71.1663 16.9839 71.1249 16.968C71.0838 16.9524 71.0499 16.908 71.0499 16.8696C71.0499 16.8312 71.0274 16.8 71.0001 16.8C70.9725 16.8 70.95 16.7601 70.95 16.7109C70.95 16.662 70.905 16.5897 70.8501 16.5501C70.7949 16.5105 70.7499 16.4409 70.7499 16.3959C70.7499 16.3509 70.6938 16.2717 70.6251 16.2201C70.5564 16.1685 70.5 16.0866 70.5 16.038C70.5 15.9897 70.4775 15.9501 70.4499 15.9501C70.4226 15.9501 70.4001 15.9162 70.4001 15.8751C70.4001 15.8337 70.3776 15.8001 70.35 15.8001C70.3224 15.8001 70.2999 15.7647 70.2999 15.7215C70.2999 15.6315 70.1832 15.5001 70.1037 15.5001C70.074 15.5001 70.05 15.4488 70.05 15.3861C70.05 15.3234 70.005 15.2397 69.9501 15.2001C69.8949 15.1605 69.8499 15.096 69.8499 15.0573C69.8499 15.0183 69.7938 14.9343 69.7251 14.8707C69.6564 14.8068 69.6 14.7249 69.6 14.6883C69.6 14.652 69.555 14.5896 69.5001 14.55C69.4449 14.5104 69.3999 14.4363 69.3999 14.3853C69.3999 14.2839 69.2883 14.1501 69.2037 14.1501C69.174 14.1501 69.15 14.0988 69.15 14.0361C69.15 13.9734 69.105 13.8897 69.0501 13.8501C68.9949 13.8105 68.9499 13.746 68.9499 13.7073C68.9499 13.6683 68.8938 13.5843 68.8251 13.5207C68.7564 13.4568 68.7 13.3749 68.7 13.3383C68.7 13.302 68.655 13.2396 68.6001 13.2C68.5449 13.1604 68.4999 13.0869 68.4999 13.0368C68.4999 12.9864 68.4495 12.8913 68.3874 12.825C68.2275 12.654 68.1846 12.5946 68.1 12.4251C68.0586 12.3426 67.9857 12.2313 67.9374 12.1782C67.8894 12.1248 67.8495 12.0573 67.8492 12.0282C67.8486 11.9988 67.7925 11.922 67.7241 11.8572C67.656 11.7924 67.5999 11.7072 67.5999 11.6676C67.5999 11.628 67.5549 11.5476 67.5 11.4885C67.4451 11.4294 67.4001 11.3517 67.4001 11.3157C67.4001 11.2794 67.3704 11.25 67.3344 11.25C67.2981 11.25 67.2378 11.1711 67.2 11.0751C67.1622 10.9788 67.1172 10.8999 67.0998 10.8999C67.0827 10.8999 67.0311 10.8213 66.9852 10.725C66.9393 10.6287 66.8787 10.5501 66.8508 10.5501C66.8229 10.5501 66.8001 10.5099 66.8001 10.461C66.8001 10.4121 66.7551 10.3395 66.6999 10.2999C66.645 10.2603 66.6 10.188 66.6 10.1391C66.6 10.0899 66.5775 10.05 66.5499 10.05C66.5226 10.05 66.5001 10.0161 66.5001 9.975C66.5001 9.9336 66.4662 9.9 66.4251 9.9C66.3834 9.9 66.3501 9.8556 66.3501 9.8001C66.3501 9.7449 66.3276 9.6999 66.3 9.6999C66.2724 9.6999 66.2499 9.6759 66.2499 9.6465C66.2499 9.4716 66.1215 9.45 65.0787 9.45C64.1835 9.45 64.05 9.4599 64.05 9.5274ZM72.0999 9.5403C72.0999 9.627 72.4023 9.9999 72.4728 9.9999C72.5169 9.9999 72.6501 10.1325 72.6501 10.1763C72.6501 10.2156 72.8766 10.4316 73.0671 10.5744C73.1403 10.629 73.2 10.6968 73.2 10.725C73.2 10.7532 73.2594 10.8207 73.3317 10.8753C73.4043 10.9296 73.5828 11.0868 73.7283 11.2245C74.1498 11.6232 74.3508 11.7999 74.3823 11.7999C74.4249 11.7999 74.7501 12.1623 74.7501 12.2097C74.7501 12.2319 74.7732 12.2499 74.8017 12.2499C74.8689 12.2499 75.2001 12.5811 75.2001 12.6483C75.2001 12.6768 75.2199 12.6999 75.2439 12.6999C75.2682 12.6999 75.4464 12.852 75.6399 13.0374C76.0167 13.3989 76.2456 13.5999 76.2795 13.5999C76.2912 13.5999 76.5927 13.8924 76.95 14.25C77.3073 14.6076 77.6082 14.9001 77.6187 14.9001C77.6379 14.9001 77.7669 15.0171 78.321 15.5376C78.4746 15.6819 78.6228 15.8001 78.6501 15.8001C78.6777 15.8001 78.6999 15.8337 78.6999 15.8751C78.6999 15.9162 78.7224 15.9501 78.75 15.9501C78.7824 15.9501 78.8001 16.6833 78.8001 18.0501V20.1501H80.0751H81.3501V18.0501C81.3501 16.6833 81.3675 15.9501 81.3999 15.9501C81.4275 15.9501 81.45 15.9162 81.45 15.8751C81.45 15.8337 81.4722 15.8001 81.4995 15.8001C81.5502 15.8001 81.7227 15.6648 81.93 15.4626C81.9936 15.4005 82.0572 15.3501 82.0719 15.3501C82.0863 15.3501 82.5222 14.9268 83.0406 14.4096C83.5587 13.8924 84.0593 13.4145 84.1532 13.3476C84.2468 13.281 84.5433 13.0068 84.8118 12.7383C85.0803 12.4698 85.3224 12.2499 85.35 12.2499C85.3776 12.2499 85.4001 12.2319 85.4001 12.2097C85.4001 12.159 85.7265 11.7999 85.7727 11.7999C85.8156 11.7999 85.95 11.6682 85.95 11.6262C85.95 11.589 86.1846 11.3499 86.2212 11.3499C86.2536 11.3499 86.5218 11.1096 86.9052 10.7376C87.0681 10.5795 87.2181 10.4499 87.2388 10.4499C87.2595 10.4499 87.3195 10.3923 87.3726 10.3218C87.528 10.1148 87.6341 9.9999 87.6704 9.9999C87.7247 9.9999 87.9501 9.7599 87.9501 9.7023C87.9501 9.6735 87.9726 9.6501 87.9999 9.6501C88.0275 9.6501 88.05 9.6051 88.05 9.5499C88.05 9.4521 88.0167 9.45 86.3976 9.45H84.7454L84.6227 9.5727C84.5552 9.6402 84.5001 9.7092 84.5001 9.7263C84.5001 9.7662 84.3663 9.9 84.3264 9.9C84.3093 9.9 84.2417 9.9507 84.1766 10.0125C84.1112 10.0743 83.9829 10.1862 83.8914 10.2609C83.5617 10.5303 83.4999 10.5873 83.4999 10.6218C83.4999 10.665 83.3688 10.8 83.3268 10.8C83.2752 10.8 82.95 11.1438 82.95 11.1984C82.95 11.2269 82.9266 11.25 82.8984 11.25C82.8312 11.25 82.5 11.5812 82.5 11.6484C82.5 11.6769 82.4766 11.7 82.4484 11.7C82.3812 11.7 82.05 12.0312 82.05 12.0984C82.05 12.1269 82.0278 12.15 82.0005 12.15C81.9072 12.15 81.5462 12.4701 80.7188 13.2876C80.3777 13.6245 80.0877 13.8999 80.0739 13.8999C80.0604 13.8999 79.7571 13.6074 79.4001 13.2501C79.0428 12.8925 78.741 12.6 78.7293 12.6C78.7173 12.6 78.6429 12.5382 78.5634 12.4626C78.351 12.2601 78.2051 12.15 78.1493 12.15C78.122 12.15 78.0999 12.1266 78.0999 12.0984C78.0999 12.0312 77.769 11.7 77.7018 11.7C77.6733 11.7 77.6499 11.6766 77.6499 11.6484C77.6499 11.5812 77.319 11.25 77.2518 11.25C77.2233 11.25 77.1999 11.2266 77.1999 11.1984C77.1999 11.1381 76.872 10.8 76.8135 10.8C76.7916 10.8 76.7289 10.7394 76.6743 10.6653C76.6197 10.5912 76.533 10.4955 76.482 10.4529C76.4307 10.41 76.3593 10.347 76.323 10.3125C76.2867 10.278 76.2384 10.2501 76.2156 10.2501C76.1928 10.2501 76.1067 10.1718 76.0245 10.0761C75.9423 9.9804 75.8565 9.9018 75.834 9.9012C75.7857 9.8997 75.6501 9.771 75.6501 9.7263C75.6501 9.7092 75.5949 9.6402 75.5274 9.5727L75.4044 9.45H73.7523C72.1929 9.45 72.0999 9.4551 72.0999 9.5403ZM91.7499 14.7999V20.1501H97.4001H103.05V19.1001V18.0501H98.7H94.35V14.7999V11.55H98.7H103.05V10.5V9.45H97.4001H91.7499V14.7999ZM107.3 14.721C107.3 17.6199 107.314 20.0274 107.33 20.0709C107.357 20.1402 107.523 20.1501 108.68 20.1501H110V15.8499V11.55H113.538H117.076L117.226 11.7282C117.308 11.826 117.403 11.937 117.437 11.9745C117.511 12.0552 117.526 12.9 117.453 12.9C117.428 12.9 117.391 12.9495 117.372 13.0101C117.327 13.1526 117.228 13.2501 117.129 13.2501C117.085 13.2501 117.05 13.2726 117.05 13.2999C117.05 13.3329 116.041 13.35 114.124 13.35H111.198L111.211 14.4126L111.225 15.4749L113.033 15.5001C114.028 15.5136 114.85 15.5364 114.861 15.5499C114.872 15.5637 114.922 15.6705 114.973 15.7875C115.024 15.9045 115.084 15.9999 115.108 15.9999C115.131 15.9999 115.15 16.0437 115.15 16.0971C115.15 16.1505 115.172 16.2081 115.2 16.2249C115.228 16.242 115.25 16.2996 115.25 16.353C115.25 16.4064 115.267 16.4502 115.288 16.4502C115.308 16.4502 115.366 16.5516 115.417 16.6752C115.468 16.7988 115.53 16.8999 115.555 16.8999C115.58 16.8999 115.6 16.9449 115.6 17.0001C115.6 17.055 115.622 17.1 115.65 17.1C115.678 17.1 115.7 17.1294 115.7 17.1651C115.7 17.2488 115.944 17.7405 116.004 17.7777C116.029 17.7933 116.05 17.8497 116.05 17.9031C116.05 17.9562 116.072 18 116.1 18C116.128 18 116.152 18.0393 116.155 18.0876C116.157 18.1356 116.223 18.2874 116.3 18.4251C116.558 18.8805 116.7 19.1688 116.7 19.2348C116.7 19.2708 116.722 19.2999 116.75 19.2999C116.777 19.2999 116.8 19.3449 116.8 19.4001C116.8 19.455 116.818 19.5 116.839 19.5C116.861 19.5 116.945 19.6461 117.027 19.8249L117.175 20.1498H118.562L119.95 20.1501V19.95C119.95 19.8399 119.927 19.7499 119.9 19.7499C119.872 19.7499 119.85 19.6938 119.85 19.6251C119.85 19.5471 119.822 19.5 119.775 19.5C119.733 19.5 119.7 19.4556 119.7 19.4001C119.7 19.3449 119.677 19.2999 119.65 19.2999C119.623 19.2999 119.6 19.2438 119.6 19.1751C119.6 19.1064 119.578 19.05 119.55 19.05C119.522 19.05 119.5 19.005 119.5 18.9501C119.5 18.8949 119.477 18.8499 119.45 18.8499C119.422 18.8499 119.4 18.8043 119.4 18.7485C119.4 18.6927 119.366 18.6339 119.325 18.618C119.284 18.6024 119.25 18.5466 119.25 18.4947C119.25 18.4425 119.227 18.3999 119.2 18.3999C119.173 18.3999 119.15 18.3438 119.15 18.2751C119.15 18.2064 119.128 18.15 119.1 18.15C119.072 18.15 119.05 18.105 119.05 18.0501C119.05 17.9949 119.027 17.9499 119 17.9499C118.972 17.9499 118.95 17.9079 118.95 17.856C118.95 17.8044 118.916 17.7342 118.875 17.7C118.834 17.6658 118.8 17.6067 118.8 17.5689C118.8 17.5311 118.777 17.4999 118.75 17.4999C118.723 17.4999 118.7 17.4438 118.7 17.3751C118.7 17.3064 118.678 17.25 118.65 17.25C118.622 17.25 118.6 17.205 118.6 17.1501C118.6 17.0949 118.577 17.0499 118.55 17.0499C118.522 17.0499 118.5 17.0049 118.5 16.95C118.5 16.8951 118.477 16.8501 118.45 16.8501C118.423 16.8501 118.4 16.8042 118.4 16.7484C118.4 16.6926 118.366 16.6338 118.325 16.6182C118.284 16.6023 118.25 16.5468 118.25 16.4946C118.25 16.4427 118.228 16.4001 118.2 16.4001C118.172 16.4001 118.15 16.3437 118.15 16.275C118.15 16.2063 118.127 16.1499 118.1 16.1499C118.072 16.1499 118.05 16.1049 118.05 16.05C118.05 15.9951 118.027 15.9501 118 15.9501C117.973 15.9501 117.95 15.9042 117.95 15.8484C117.95 15.7926 117.916 15.7338 117.875 15.7182C117.834 15.7023 117.8 15.6468 117.8 15.5946C117.8 15.5427 117.778 15.5001 117.75 15.5001C117.722 15.5001 117.7 15.4662 117.7 15.4251C117.7 15.3675 117.764 15.3501 117.975 15.3501C118.126 15.3501 118.25 15.3276 118.25 15.3C118.25 15.2724 118.329 15.2499 118.425 15.2499C118.521 15.2499 118.6 15.2274 118.6 15.2001C118.6 15.1725 118.645 15.15 118.7 15.15C118.755 15.15 118.8 15.1275 118.8 15.0999C118.8 15.0726 118.856 15.0501 118.925 15.0501C119.003 15.0501 119.05 15.0216 119.05 14.9751C119.05 14.9334 119.094 14.9001 119.15 14.9001C119.205 14.9001 119.25 14.8776 119.25 14.85C119.25 14.8224 119.273 14.7999 119.302 14.7999C119.37 14.7999 119.6 14.5701 119.6 14.5023C119.6 14.4735 119.623 14.4501 119.65 14.4501C119.677 14.4501 119.7 14.4051 119.7 14.3499C119.7 14.2944 119.733 14.25 119.775 14.25C119.816 14.25 119.85 14.2095 119.85 14.16C119.85 14.1105 119.878 14.0418 119.912 14.0076C119.96 13.9602 119.975 13.5771 119.975 12.4392C119.975 11.2788 119.961 10.9284 119.912 10.9125C119.878 10.9011 119.85 10.8486 119.85 10.7958C119.85 10.743 119.816 10.7001 119.775 10.7001C119.733 10.7001 119.7 10.6554 119.7 10.599C119.7 10.4796 119.242 9.9999 119.129 9.9999C119.085 9.9999 119.05 9.9774 119.05 9.9501C119.05 9.9225 119.016 9.9 118.975 9.9C118.934 9.9 118.9 9.8775 118.9 9.8499C118.9 9.8226 118.832 9.8001 118.75 9.8001C118.655 9.8001 118.6 9.7743 118.6 9.7308C118.6 9.6582 118.437 9.6108 118.037 9.5667C117.907 9.5523 117.8 9.5199 117.8 9.4953C117.8 9.4686 115.643 9.45 112.55 9.45H107.3V14.721ZM95.5725 13.4139C95.559 13.449 95.5539 13.9494 95.5614 14.5263L95.5749 15.5751L99.0156 15.5877C101.951 15.5988 102.467 15.5901 102.528 15.5289C102.633 15.4239 102.634 13.5264 102.529 13.4214C102.428 13.3209 95.6109 13.3134 95.5725 13.4139Z" fill="#171A20"/>
<path fill-rule="evenodd" clip-rule="evenodd" d="M14.3999 0.0999003C14.3999 0.1275 14.3438 0.15 14.2748 0.15C14.2061 0.15 14.15 0.1734 14.15 0.2022C14.15 0.231 14.0933 0.3111 14.024 0.3804C13.9547 0.4497 13.9094 0.525 13.9238 0.5481C13.9379 0.5709 13.9157 0.6024 13.8746 0.6183C13.7444 0.6681 13.7729 1.2963 13.9148 1.5054C13.9781 1.5987 14.0447 1.7145 14.0633 1.7625C14.0816 1.8105 14.1311 1.8501 14.1734 1.8501C14.2154 1.8501 14.2499 1.8726 14.2499 1.8999C14.2499 1.9275 14.3063 1.95 14.375 1.95C14.4437 1.95 14.4998 1.9725 14.4998 2.0001C14.4998 2.0286 14.6489 2.0499 14.8469 2.0499C15.0377 2.0499 15.2078 2.0274 15.2249 2.0001C15.242 1.9725 15.2954 1.95 15.3434 1.95C15.4538 1.95 15.6998 1.6977 15.6998 1.5849C15.6998 1.5381 15.7223 1.5 15.7499 1.5C15.8921 1.5 15.8051 0.5451 15.65 0.3999C15.5675 0.3228 15.5 0.2352 15.5 0.2049C15.5 0.1746 15.4661 0.15 15.425 0.15C15.3836 0.15 15.35 0.1275 15.35 0.0999003C15.35 0.0702003 15.1583 0.0501003 14.8748 0.0501003C14.5916 0.0501003 14.3999 0.0702003 14.3999 0.0999003ZM9.80005 2.5833C9.80005 2.6262 9.73765 2.6499 9.62485 2.6499C9.52855 2.6499 9.44995 2.6724 9.44995 2.7C9.44995 2.7276 9.40495 2.7501 9.35005 2.7501C9.29485 2.7501 9.24985 2.7726 9.24985 2.7999C9.24985 2.8275 9.22585 2.85 9.19645 2.85C9.12715 2.85 8.99995 2.9772 8.99995 3.0465C8.99995 3.0759 8.97745 3.0999 8.94985 3.0999C8.92255 3.0999 8.90005 3.1449 8.90005 3.2001C8.90005 3.255 8.87755 3.3 8.84995 3.3C8.82235 3.3 8.79985 3.3987 8.79985 3.5196C8.79985 3.6687 8.77585 3.7485 8.72485 3.768C8.62975 3.8046 8.63065 3.9954 8.72665 4.122C8.76685 4.1754 8.79985 4.2639 8.79985 4.3185C8.79985 4.4526 8.91025 4.7499 8.96005 4.7499C8.98195 4.7499 8.99995 4.7805 8.99995 4.818C8.99995 4.8555 9.05875 4.9284 9.13045 4.9806C9.20215 5.0325 9.29065 5.103 9.32695 5.1375C9.36325 5.172 9.42805 5.1999 9.47125 5.1999C9.51445 5.1999 9.54985 5.2224 9.54985 5.25C9.54985 5.2803 9.77605 5.3001 10.1279 5.3001C10.5005 5.3001 10.6949 5.2821 10.6748 5.25C10.658 5.2224 10.6913 5.1999 10.7492 5.1999C10.8566 5.1999 10.9214 5.1582 11.1149 4.965C11.2991 4.7805 11.3498 4.7076 11.3498 4.6272C11.3498 4.5846 11.3723 4.5501 11.3999 4.5501C11.4275 4.5501 11.45 4.4613 11.45 4.353C11.45 4.2447 11.4725 4.1421 11.4998 4.125C11.5274 4.1079 11.5499 4.0167 11.5499 3.9219C11.5499 3.8274 11.5274 3.75 11.4998 3.75C11.4725 3.75 11.45 3.6705 11.45 3.5733C11.45 3.4761 11.4137 3.3411 11.369 3.2733C11.3246 3.2055 11.3069 3.15 11.3294 3.15C11.3519 3.15 11.2739 3.06 11.156 2.9499C11.0381 2.8401 10.9097 2.7501 10.8707 2.7501C10.8317 2.7501 10.7999 2.7276 10.7999 2.7C10.7999 2.6724 10.7237 2.6499 10.6301 2.6499C10.523 2.6499 10.4495 2.6214 10.4309 2.5725C10.3913 2.469 9.80005 2.4792 9.80005 2.5833ZM18.5321 2.5749C18.4907 2.6163 18.3992 2.6499 18.3284 2.6499C18.2579 2.6499 18.2 2.6724 18.2 2.7C18.2 2.7276 18.149 2.7501 18.0869 2.7501C18.0224 2.7501 17.9309 2.8074 17.8742 2.8833C17.8196 2.9565 17.7521 3.0408 17.7242 3.0708C17.531 3.2775 17.4998 3.3999 17.4998 3.9483C17.4998 4.2828 17.5196 4.5 17.5499 4.5C17.5775 4.5 17.6 4.5564 17.6 4.6251C17.6 4.6938 17.6234 4.7499 17.6522 4.7499C17.708 4.7499 17.9498 4.9746 17.9498 5.0262C17.9498 5.0949 18.0992 5.1999 18.1964 5.1999C18.2534 5.1999 18.2999 5.2224 18.2999 5.25C18.2999 5.2803 18.5165 5.3001 18.8498 5.3001C19.1831 5.3001 19.4 5.2803 19.4 5.25C19.4 5.2224 19.4345 5.1999 19.4768 5.1999C19.616 5.1999 19.9499 4.9539 19.9499 4.8513C19.9499 4.8207 20.0063 4.7349 20.075 4.6608C20.1551 4.5744 20.1998 4.4676 20.1998 4.3629C20.1998 4.2735 20.2236 4.2 20.2527 4.2C20.2842 4.2 20.3007 4.0911 20.2941 3.9249C20.2878 3.7737 20.264 3.6501 20.2412 3.6501C20.2184 3.6501 20.1998 3.5712 20.1998 3.4749C20.1998 3.3528 20.1773 3.3 20.1248 3.3C20.0831 3.3 20.0498 3.2556 20.0498 3.2001C20.0498 3.1449 20.0273 3.0999 20 3.0999C19.9724 3.0999 19.9499 3.0765 19.9499 3.0477C19.9499 2.9565 19.7088 2.7501 19.6023 2.7501C19.5459 2.7501 19.4999 2.7276 19.4999 2.7C19.4999 2.6724 19.4198 2.6499 19.322 2.6499C19.2242 2.6499 19.1564 2.6298 19.1717 2.6052C19.2461 2.4849 18.6503 2.4567 18.5321 2.5749ZM4.74985 3.8001C4.74985 3.8274 4.71805 3.8499 4.67875 3.8499C4.57405 3.8499 4.29985 4.1421 4.29985 4.2537C4.29985 4.3068 4.27735 4.35 4.25005 4.35C4.22095 4.35 4.19995 4.5084 4.19995 4.725C4.19995 4.9416 4.22095 5.1 4.25005 5.1C4.27735 5.1 4.29985 5.1444 4.29985 5.1984C4.29985 5.2524 4.37935 5.3763 4.47655 5.4732C4.57375 5.5704 4.69765 5.6499 4.75165 5.6499C4.80565 5.6499 4.85005 5.6724 4.85005 5.7C4.85005 5.7291 5.01655 5.7501 5.24995 5.7501C5.48335 5.7501 5.64985 5.7291 5.64985 5.7C5.64985 5.6724 5.67955 5.6499 5.71585 5.6499C5.81515 5.6499 6.09985 5.3778 6.09985 5.283C6.09985 5.2374 6.12235 5.1999 6.14995 5.1999C6.17995 5.1999 6.20005 5.0064 6.20005 4.7193V4.2384L5.94385 3.9942L5.68795 3.75H5.21875C4.93945 3.75 4.74985 3.7701 4.74985 3.8001ZM23.9 4.2501C23.9 4.2774 23.8491 4.2999 23.787 4.2999C23.7225 4.2999 23.631 4.3575 23.5743 4.4334C23.5197 4.5066 23.4419 4.5999 23.4014 4.6407C23.2163 4.8276 23.1116 5.4396 23.2499 5.5251C23.2775 5.5419 23.3 5.5962 23.3 5.6451C23.3 5.6943 23.3561 5.7999 23.4248 5.8797C23.4935 5.9595 23.5499 6.0432 23.5499 6.0654C23.5499 6.0876 23.5706 6.093 23.5958 6.0774C23.6213 6.0618 23.6759 6.0831 23.7173 6.1245C23.8061 6.2133 24.7499 6.2364 24.7499 6.15C24.7499 6.1224 24.7835 6.0999 24.8249 6.0999C24.866 6.0999 24.8999 6.0807 24.8999 6.0573C24.8999 6.0339 24.9687 5.943 25.0524 5.8554C25.203 5.6976 25.2894 4.5888 25.1439 4.6788C25.1199 4.6938 25.1 4.6818 25.1 4.6524C25.1 4.5588 24.8369 4.2999 24.7415 4.2999C24.6911 4.2999 24.65 4.2774 24.65 4.2501C24.65 4.221 24.4916 4.2 24.275 4.2C24.0581 4.2 23.9 4.221 23.9 4.2501ZM13.7999 4.5999C13.7999 4.6275 13.7324 4.65 13.6499 4.65C13.5674 4.65 13.4999 4.6725 13.4999 4.7001C13.4999 4.7274 13.4579 4.7499 13.4066 4.7499C13.313 4.7499 13.0499 4.9764 13.0499 5.0568C13.0499 5.0805 13.0265 5.1 12.9977 5.1C12.9299 5.1 12.6998 5.3298 12.6998 5.3976C12.6998 5.4264 12.6773 5.4501 12.65 5.4501C12.6224 5.4501 12.5999 5.487 12.5999 5.532C12.5999 5.577 12.5663 5.6391 12.5249 5.6694C12.4838 5.7 12.4451 5.787 12.4391 5.8626C12.4331 5.9382 12.4106 6 12.389 6C12.3674 6 12.35 6.2817 12.35 6.6258C12.35 7.2627 12.4208 7.65 12.5372 7.65C12.5717 7.65 12.5999 7.7064 12.5999 7.7751C12.5999 7.8438 12.6224 7.8999 12.65 7.8999C12.6773 7.8999 12.6998 7.9314 12.6998 7.9698C12.6998 8.0082 12.7583 8.0925 12.8297 8.1573C12.9011 8.2221 12.9962 8.3145 13.0409 8.3625C13.0856 8.4105 13.151 8.4501 13.1861 8.4501C13.2212 8.4501 13.25 8.4726 13.25 8.4999C13.25 8.5275 13.2836 8.55 13.325 8.55C13.3661 8.55 13.4 8.5725 13.4 8.6001C13.4 8.6274 13.4675 8.6499 13.55 8.6499C13.6325 8.6499 13.7 8.6724 13.7 8.7C13.7 8.7276 13.7759 8.7501 13.8689 8.7501C13.9616 8.7501 14.0657 8.7837 14.0999 8.8251C14.1443 8.8785 14.2616 8.9001 14.5076 8.9001C14.7686 8.9001 14.8601 8.8818 14.8817 8.8251C14.9015 8.7741 14.981 8.7501 15.1301 8.7501C15.251 8.7501 15.35 8.7276 15.35 8.7C15.35 8.6724 15.3842 8.6499 15.4259 8.6499C15.5798 8.6499 16.25 8.1324 16.25 8.0136C16.25 7.9917 16.3061 7.9134 16.3748 7.8393C16.4438 7.7649 16.4999 7.647 16.4999 7.5771C16.4999 7.5072 16.5224 7.4499 16.55 7.4499C16.5773 7.4499 16.5998 7.3362 16.5998 7.197C16.5998 7.041 16.619 6.9561 16.6499 6.975C16.6814 6.9945 16.7 6.8847 16.7 6.681C16.7 6.5022 16.6775 6.342 16.6499 6.3249C16.6223 6.3081 16.5998 6.2067 16.5998 6.0999C16.5998 5.9931 16.5773 5.892 16.55 5.8749C16.5224 5.8581 16.4999 5.8005 16.4999 5.7471C16.4999 5.6937 16.4799 5.6499 16.4553 5.6499C16.431 5.6499 16.3964 5.5929 16.379 5.523C16.3613 5.4531 16.325 5.4093 16.2983 5.4258C16.2716 5.4423 16.25 5.4207 16.25 5.3781C16.25 5.3352 16.2275 5.3001 16.1999 5.3001C16.1723 5.3001 16.1498 5.2689 16.1498 5.2308C16.1498 5.1927 16.0994 5.1279 16.0373 5.0865C15.9755 5.0454 15.8693 4.9626 15.8015 4.9029C15.7337 4.8432 15.5987 4.7601 15.5015 4.7181C15.4043 4.6761 15.2858 4.6209 15.2381 4.5957C15.1178 4.5324 13.7999 4.5363 13.7999 4.5999ZM8.48785 6.8112C8.47675 6.8448 8.39125 6.8763 8.29795 6.8808C8.20465 6.8856 8.12005 6.9144 8.11015 6.9447C8.09995 6.975 8.04835 6.9999 7.99585 6.9999C7.94305 6.9999 7.89985 7.0224 7.89985 7.05C7.89985 7.0776 7.85395 7.1001 7.79755 7.1001C7.70455 7.1001 7.44985 7.3023 7.44985 7.3764C7.44985 7.4169 7.31605 7.5501 7.27495 7.5501C7.20535 7.5501 7.10005 7.6983 7.10005 7.7964C7.10005 7.8534 7.07755 7.8999 7.04995 7.8999C7.02235 7.8999 6.99985 7.9449 6.99985 8.0001C6.99985 8.055 6.97735 8.1 6.95005 8.1C6.92245 8.1 6.89995 8.1786 6.89995 8.2749C6.89995 8.3922 6.87655 8.4501 6.82945 8.4501C6.77305 8.4501 6.76075 8.5515 6.76705 8.9625C6.77305 9.3426 6.79105 9.4719 6.83755 9.4626C6.87175 9.4557 6.89725 9.4668 6.89395 9.4875C6.87025 9.6375 6.90835 9.9006 6.95005 9.8751C6.97735 9.858 6.99985 9.8862 6.99985 9.9375C6.99985 9.9891 7.04485 10.0794 7.10005 10.1385C7.15495 10.1976 7.19995 10.2669 7.19995 10.2927C7.19995 10.3614 7.48045 10.65 7.54735 10.65C7.57885 10.65 7.65685 10.7064 7.72045 10.7751C7.78435 10.8438 7.87315 10.8999 7.91815 10.8999C7.96315 10.8999 8.00005 10.9224 8.00005 10.95C8.00005 10.9776 8.07865 11.0001 8.17495 11.0001C8.27125 11.0001 8.34985 11.0226 8.34985 11.0499C8.34985 11.0808 8.60005 11.1 8.99995 11.1C9.39985 11.1 9.65005 11.0808 9.65005 11.0499C9.65005 11.0226 9.70615 11.0001 9.77485 11.0001C9.84385 11.0001 9.89995 10.9776 9.89995 10.95C9.89995 10.9224 9.94495 10.8999 9.99985 10.8999C10.055 10.8999 10.1 10.8798 10.1 10.8555C10.1 10.8309 10.157 10.7964 10.2269 10.779C10.2968 10.7613 10.3406 10.7253 10.3241 10.6986C10.3076 10.6719 10.3187 10.65 10.349 10.65C10.4213 10.65 10.7702 10.2939 10.7912 10.1991C10.8002 10.1583 10.8281 10.1175 10.8536 10.1082C10.8791 10.0992 10.8998 10.0485 10.8998 9.9957C10.8998 9.9432 10.9223 9.9 10.9499 9.9C10.9775 9.9 11 9.8238 11 9.7302C11 9.6258 11.0285 9.5496 11.075 9.5319C11.135 9.5088 11.15 9.399 11.15 8.9802C11.15 8.5818 11.132 8.4393 11.075 8.382C11.0336 8.3409 11 8.238 11 8.1537C11 8.0691 10.9775 8.0001 10.9499 8.0001C10.9223 8.0001 10.8998 7.9572 10.8998 7.905C10.8998 7.8528 10.8212 7.7313 10.7249 7.635C10.6286 7.5387 10.55 7.4352 10.55 7.4049C10.55 7.3746 10.5284 7.35 10.5023 7.35C10.4759 7.35 10.4027 7.2993 10.3397 7.2375C10.2764 7.1757 10.1687 7.0992 10.1 7.0677C9.71455 6.8907 9.59455 6.8475 9.55495 6.8718C9.53095 6.8868 9.48355 6.8655 9.44935 6.8244C9.36925 6.7278 8.51965 6.7161 8.48785 6.8112ZM19.5341 6.8187C19.5176 6.8622 19.467 6.882 19.4106 6.8673C19.3578 6.8535 19.2795 6.8778 19.236 6.921C19.1925 6.9645 19.1105 6.9999 19.0535 6.9999C18.9965 6.9999 18.95 7.0224 18.95 7.05C18.95 7.0776 18.905 7.1001 18.8498 7.1001C18.7949 7.1001 18.7499 7.1187 18.7499 7.1415C18.7499 7.1643 18.6938 7.2132 18.6248 7.2501C18.5561 7.2867 18.5 7.3362 18.5 7.3602C18.5 7.3839 18.4211 7.482 18.3248 7.5783C18.2285 7.6746 18.1499 7.7862 18.1499 7.8267C18.1499 7.8669 18.1274 7.8999 18.0998 7.8999C18.0725 7.8999 18.05 7.9449 18.05 8.0001C18.05 8.055 18.0275 8.1 17.9999 8.1C17.9723 8.1 17.9498 8.1786 17.9498 8.2749C17.9498 8.3712 17.9273 8.4501 17.9 8.4501C17.8697 8.4501 17.8499 8.6574 17.8499 8.9721C17.8499 9.2661 17.8718 9.5076 17.9 9.525C17.9273 9.5421 17.9498 9.597 17.9498 9.6471C17.9498 9.6975 17.9825 9.8013 18.0224 9.8781C18.0623 9.9549 18.0833 10.0362 18.0695 10.059C18.0554 10.0815 18.0803 10.1001 18.125 10.1001C18.1694 10.1001 18.1919 10.1226 18.1748 10.1505C18.1577 10.1781 18.1787 10.2141 18.2216 10.2306C18.2648 10.2471 18.2999 10.2996 18.2999 10.347C18.2999 10.3944 18.3554 10.4628 18.4232 10.4991C18.491 10.5354 18.5348 10.5843 18.5201 10.6074C18.5057 10.6308 18.5303 10.65 18.5744 10.65C18.6185 10.65 18.7067 10.7064 18.7706 10.7751C18.8342 10.8438 18.9233 10.8999 18.968 10.8999C19.013 10.8999 19.0499 10.9224 19.0499 10.95C19.0499 10.9776 19.1285 11.0001 19.2248 11.0001C19.3211 11.0001 19.4 11.0226 19.4 11.0499C19.4 11.0808 19.6499 11.1 20.0498 11.1C20.45 11.1 20.6999 11.0808 20.6999 11.0499C20.6999 11.0226 20.7563 11.0001 20.825 11.0001C20.8937 11.0001 20.9498 10.9776 20.9498 10.95C20.9498 10.9224 21.0062 10.8999 21.0749 10.8999C21.1436 10.8999 21.2 10.8774 21.2 10.8501C21.2 10.8225 21.2225 10.8 21.2498 10.8C21.3407 10.8 21.8498 10.3017 21.8498 10.2129C21.8498 10.1499 21.8843 10.0977 22.0373 9.9267C22.0718 9.8886 22.1 9.7881 22.1 9.7035C22.1 9.6192 22.1225 9.5499 22.1498 9.5499C22.1804 9.5499 22.1999 9.3261 22.1999 8.9781C22.1999 8.6505 22.1786 8.3928 22.1498 8.3751C22.1225 8.358 22.1 8.2806 22.1 8.2032C22.1 8.1258 22.0661 8.0343 22.025 8.0001C21.9836 7.9659 21.95 7.9125 21.9497 7.8813C21.9497 7.8303 21.8609 7.7127 21.605 7.425C21.4655 7.2681 21.2868 7.131 21.1242 7.0563C21.0423 7.0188 20.912 6.9549 20.8349 6.9147C20.7578 6.8742 20.6612 6.8541 20.6204 6.8697C20.5796 6.8856 20.5343 6.8679 20.5202 6.8304C20.4806 6.7278 19.5731 6.717 19.5341 6.8187ZM24.8 8.7C24.8 8.7276 24.7604 8.7501 24.7124 8.7504C24.6644 8.7504 24.5607 8.7843 24.4818 8.8254C24.4029 8.8665 24.3161 8.9001 24.2885 8.9001C24.2309 8.9001 23.9 9.2493 23.9 9.3099C23.9 9.3318 23.8661 9.3501 23.825 9.3501C23.7788 9.3501 23.75 9.3969 23.75 9.4719C23.75 9.5391 23.7263 9.6087 23.6975 9.6264C23.6339 9.666 23.6421 10.65 23.7063 10.65C23.7303 10.65 23.75 10.6854 23.75 10.7289C23.75 10.7724 23.8511 10.9092 23.975 11.0328C24.0986 11.1567 24.2 11.2785 24.2 11.304C24.2 11.3292 24.2561 11.3499 24.3248 11.3499C24.3938 11.3499 24.4499 11.3724 24.4499 11.4C24.4499 11.4306 24.6833 11.4501 25.0499 11.4501C25.3799 11.4501 25.6499 11.4321 25.6499 11.4099C25.6499 11.388 25.7288 11.3415 25.8248 11.3067C25.9211 11.2719 26 11.2161 26 11.1828C26 11.1495 26.045 11.0895 26.0999 11.0499C26.1548 11.0103 26.1998 10.9485 26.1998 10.9125C26.1998 10.8765 26.2337 10.8339 26.2748 10.818C26.3162 10.8024 26.3498 10.7355 26.3498 10.6698C26.3498 10.6038 26.3723 10.5501 26.3999 10.5501C26.4293 10.5501 26.45 10.3761 26.45 10.128C26.45 9.8958 26.4275 9.6921 26.3999 9.675C26.3723 9.6579 26.3498 9.5997 26.3498 9.5454C26.3498 9.4911 26.3162 9.4338 26.2748 9.4182C26.2337 9.4023 26.1998 9.3453 26.1998 9.2916C26.1998 9.2379 26.1773 9.2079 26.15 9.225C26.1224 9.2421 26.0999 9.2292 26.0999 9.1962C26.0999 9.1113 25.8416 8.9001 25.7375 8.9001C25.6892 8.9001 25.6499 8.8794 25.6499 8.8545C25.6499 8.8293 25.5599 8.7936 25.4498 8.775C25.34 8.7564 25.25 8.7207 25.25 8.6955C25.25 8.6706 25.1486 8.6499 25.025 8.6499C24.9011 8.6499 24.8 8.6724 24.8 8.7ZM3.47485 8.7828C3.41995 8.7975 3.35365 8.8299 3.32755 8.8548C3.30145 8.8797 3.23935 8.9001 3.18985 8.9001C3.14035 8.9001 3.09985 8.9226 3.09985 8.9499C3.09985 8.9775 3.07585 9 3.04645 9C2.97715 9 2.84995 9.1272 2.84995 9.1965C2.84995 9.2259 2.82745 9.2499 2.79985 9.2499C2.77255 9.2499 2.75005 9.2949 2.75005 9.3501C2.75005 9.405 2.72755 9.45 2.69995 9.45C2.67235 9.45 2.64985 9.5286 2.64985 9.6249C2.64985 9.7473 2.62735 9.8001 2.57485 9.8001C2.51755 9.8001 2.49985 9.8634 2.49985 10.0713C2.49985 10.2459 2.52685 10.3695 2.57485 10.4178C2.61625 10.4592 2.64985 10.5621 2.64985 10.6464C2.64985 10.731 2.67235 10.8 2.69995 10.8C2.72755 10.8 2.75005 10.8345 2.75005 10.8771C2.75005 10.9785 3.11995 11.3499 3.22105 11.3499C3.26455 11.3499 3.29995 11.3724 3.29995 11.4C3.29995 11.4276 3.39985 11.4501 3.52195 11.4501C3.64405 11.4501 3.75805 11.4726 3.77485 11.4999C3.79195 11.5275 3.89575 11.55 4.00585 11.55C4.12645 11.55 4.19365 11.5302 4.17505 11.4999C4.15615 11.4696 4.23265 11.4501 4.37185 11.4501C4.49725 11.4501 4.59985 11.4276 4.59985 11.4C4.59985 11.3724 4.62325 11.3499 4.65205 11.3499C4.70875 11.3499 4.79365 11.286 4.96495 11.115C5.15755 10.9224 5.19985 10.8567 5.19985 10.752C5.19985 10.6959 5.22235 10.65 5.24995 10.65C5.28025 10.65 5.30005 10.4334 5.30005 10.1001C5.30005 9.7668 5.28025 9.5499 5.24995 9.5499C5.22235 9.5499 5.19985 9.5049 5.19985 9.45C5.19985 9.3951 5.17735 9.3501 5.15005 9.3501C5.12245 9.3501 5.09995 9.3162 5.09995 9.2751C5.09995 9.2337 5.08315 9.1998 5.06245 9.1998C5.04175 9.1995 4.95295 9.132 4.86505 9.0498C4.77715 8.9673 4.67215 8.9001 4.63195 8.9001C4.59145 8.9001 4.54945 8.8731 4.53835 8.8401C4.51735 8.7774 3.66655 8.7315 3.47485 8.7828ZM5.97025 12.3996C5.94295 12.4269 5.85955 12.4545 5.78515 12.4605C5.71075 12.4668 5.64985 12.5007 5.64985 12.5358C5.64985 12.5712 5.60485 12.6 5.54995 12.6C5.49505 12.6 5.45005 12.6225 5.45005 12.6501C5.45005 12.6774 5.42485 12.6999 5.39425 12.6999C5.33275 12.6999 5.00005 13.0458 5.00005 13.1097C5.00005 13.1319 4.97575 13.1499 4.94635 13.1499C4.87675 13.1499 4.74985 13.2774 4.74985 13.347C4.74985 13.377 4.72735 13.446 4.70005 13.5006C4.67245 13.5552 4.62745 13.6446 4.59985 13.6992C4.57255 13.7538 4.55005 14.1252 4.55005 14.5242C4.55005 14.9748 4.56895 15.2499 4.59985 15.2499C4.62745 15.2499 4.64995 15.3063 4.64995 15.375C4.64995 15.4437 4.67245 15.5001 4.70005 15.5001C4.72735 15.5001 4.74985 15.5397 4.74985 15.588C4.74985 15.6366 4.80625 15.7185 4.87495 15.7701C4.94365 15.8217 5.00005 15.8916 5.00005 15.9252C5.00005 16.0092 5.24755 16.2501 5.33395 16.2501C5.37265 16.2501 5.46505 16.3062 5.53915 16.3749C5.61325 16.4439 5.71225 16.5 5.75905 16.5C5.80585 16.5 5.85805 16.5225 5.87485 16.5501C5.89195 16.5774 5.99305 16.5999 6.09985 16.5999C6.20665 16.5999 6.30805 16.6224 6.32485 16.65C6.34195 16.6776 6.50065 16.7001 6.67795 16.7001C6.85915 16.7001 6.99985 16.6782 6.99985 16.65C6.99985 16.6224 7.10125 16.5999 7.22485 16.5999C7.34875 16.5999 7.44985 16.5774 7.44985 16.5501C7.44985 16.5225 7.50685 16.5 7.57645 16.5C7.64605 16.5 7.71595 16.4661 7.73185 16.425C7.74775 16.3836 7.79185 16.35 7.83025 16.35C7.86865 16.35 7.89985 16.3275 7.89985 16.2999C7.89985 16.2726 7.93465 16.2501 7.97695 16.2501C8.07835 16.2501 8.45005 15.8799 8.45005 15.7788C8.45005 15.7356 8.47255 15.6999 8.49985 15.6999C8.52745 15.6999 8.54995 15.6648 8.54995 15.6219C8.54995 15.5793 8.57245 15.558 8.60005 15.5751C8.62915 15.5931 8.64985 15.5418 8.64985 15.4515C8.64985 15.3603 8.68075 15.285 8.72485 15.2682C8.77585 15.2484 8.79985 15.1689 8.79985 15.0198C8.79985 14.8989 8.82355 14.7999 8.85265 14.7999C8.88505 14.7999 8.90125 14.676 8.89465 14.475C8.88895 14.2962 8.86525 14.1501 8.84215 14.1501C8.81905 14.1501 8.79985 14.0592 8.79985 13.9485C8.79985 13.8153 8.77435 13.737 8.72485 13.7181C8.68375 13.7022 8.64985 13.6479 8.64985 13.5975C8.64985 13.5471 8.62735 13.4919 8.60005 13.4751C8.57245 13.458 8.54995 13.4118 8.54995 13.3725C8.54995 13.3332 8.51785 13.2615 8.47855 13.2132C8.43895 13.1646 8.34715 13.0518 8.27395 12.9624C8.20075 12.873 8.11435 12.8001 8.08165 12.8001C8.04895 12.8001 7.98955 12.7551 7.94995 12.6999C7.91035 12.645 7.82665 12.6 7.76395 12.6C7.70125 12.6 7.64995 12.579 7.64995 12.5538C7.64995 12.3795 6.12985 12.24 5.97025 12.3996ZM21.6248 12.3999C21.608 12.4275 21.5384 12.45 21.4703 12.45C21.4025 12.45 21.3338 12.4836 21.3179 12.525C21.3023 12.5661 21.2466 12.6 21.1947 12.6C21.1425 12.6 21.0998 12.6225 21.0998 12.6501C21.0998 12.6774 21.0768 12.6999 21.0483 12.6999C21.0198 12.6999 20.9187 12.7779 20.8233 12.8733C20.7279 12.9687 20.6498 13.0698 20.6498 13.0983C20.6498 13.1268 20.6147 13.1499 20.5718 13.1499C20.5292 13.1499 20.5079 13.1724 20.525 13.2C20.5418 13.2276 20.517 13.2501 20.4696 13.2501C20.4222 13.2501 20.3976 13.2642 20.415 13.2816C20.4324 13.299 20.4197 13.3608 20.387 13.419C20.2373 13.6869 20.2013 13.902 20.2007 14.5344C20.2001 14.9211 20.2205 15.207 20.2499 15.225C20.2775 15.2421 20.3 15.3108 20.3 15.378C20.3 15.4452 20.3225 15.5001 20.3498 15.5001C20.3774 15.5001 20.3999 15.5307 20.3999 15.5682C20.3999 15.6057 20.4509 15.69 20.5136 15.7557C20.576 15.8214 20.6585 15.9369 20.6969 16.0125C20.7353 16.0881 20.7968 16.1499 20.8334 16.1499C20.87 16.1499 20.9 16.1724 20.9 16.2C20.9 16.2276 20.9354 16.2501 20.9786 16.2501C21.0218 16.2501 21.0912 16.284 21.1326 16.3254C21.174 16.3671 21.2291 16.3878 21.2552 16.3716C21.281 16.3557 21.2963 16.3725 21.2885 16.4088C21.2804 16.4484 21.3302 16.4814 21.4124 16.4907C21.488 16.4994 21.5498 16.5276 21.5498 16.5534C21.5498 16.5789 21.6512 16.5999 21.7748 16.5999C21.8987 16.5999 21.9998 16.6224 21.9998 16.65C21.9998 16.6782 22.1417 16.7001 22.325 16.7001C22.5083 16.7001 22.6499 16.6782 22.6499 16.65C22.6499 16.6224 22.751 16.5999 22.8749 16.5999C22.9985 16.5999 23.0999 16.5774 23.0999 16.5501C23.0999 16.5225 23.1569 16.5 23.2265 16.5C23.2961 16.5 23.3661 16.4661 23.382 16.425C23.3976 16.3836 23.4419 16.35 23.4803 16.35C23.5187 16.35 23.5499 16.3275 23.5499 16.2999C23.5499 16.2726 23.5862 16.2501 23.6306 16.2501C23.7143 16.2501 24.0998 15.8733 24.0998 15.7917C24.0998 15.7665 24.1448 15.6975 24.2 15.6384C24.2549 15.5793 24.2999 15.468 24.2999 15.3906C24.2999 15.2991 24.326 15.2499 24.3749 15.2499C24.4304 15.2499 24.4499 15.1917 24.4499 15.0249C24.4499 14.9013 24.4724 14.7999 24.5 14.7999C24.5282 14.7999 24.5498 14.6583 24.5498 14.475C24.5498 14.2917 24.5282 14.1501 24.5 14.1501C24.4724 14.1501 24.4499 14.0487 24.4499 13.9251C24.4499 13.7583 24.4304 13.7001 24.3749 13.7001C24.3281 13.7001 24.2999 13.6527 24.2999 13.575C24.2999 13.5063 24.2774 13.4499 24.2498 13.4499C24.2225 13.4499 24.2 13.4145 24.2 13.3713C24.2 13.3281 24.1718 13.2639 24.1373 13.2285C24.1031 13.1928 24.0105 13.0821 23.9319 12.9819C23.8533 12.882 23.7626 12.8001 23.7305 12.8001C23.6984 12.8001 23.6396 12.7551 23.6 12.6999C23.5604 12.645 23.4764 12.6 23.414 12.6C23.3459 12.6 23.3 12.5697 23.3 12.525C23.3 12.4836 23.2563 12.45 23.2029 12.45C23.1495 12.45 23.0918 12.4275 23.075 12.3999C23.0567 12.3705 22.7588 12.3501 22.3499 12.3501C21.941 12.3501 21.6431 12.3705 21.6248 12.3999ZM0.599949 13.2C0.599949 13.2276 0.563649 13.2501 0.519249 13.2501C0.474549 13.2501 0.350949 13.3428 0.244149 13.4562L0.0500488 13.6623V14.0961C0.0500488 14.502 0.119949 14.7987 0.215949 14.7996C0.275349 14.8002 0.399849 14.9334 0.399849 14.9964C0.399849 15.0258 0.444849 15.0501 0.500049 15.0501C0.554949 15.0501 0.599949 15.0726 0.599949 15.0999C0.599949 15.2217 1.44625 15.1575 1.58905 15.0249C1.66315 14.9562 1.74415 14.9001 1.76905 14.9001C1.84195 14.9001 1.94665 14.7339 1.94845 14.6154C1.94935 14.5551 1.97245 14.4921 2.00005 14.475C2.02735 14.4579 2.04985 14.2866 2.04985 14.094C2.04985 13.8735 2.03155 13.7556 2.00005 13.7751C1.95745 13.8012 1.92445 13.6614 1.94395 13.5375C1.94725 13.5168 1.92745 13.5 1.89985 13.5C1.87255 13.5 1.85005 13.4703 1.85005 13.4343C1.85005 13.3983 1.77115 13.3377 1.67485 13.2999C1.57855 13.2621 1.49995 13.2129 1.49995 13.1907C1.49995 13.1682 1.29745 13.1499 1.04995 13.1499C0.783249 13.1499 0.599949 13.1703 0.599949 13.2ZM27.4625 13.8681C27.4004 13.8987 27.35 13.9521 27.35 13.9869C27.35 14.0217 27.3306 14.0499 27.3069 14.0499C27.2262 14.0499 26.9999 14.313 26.9999 14.4069C26.9999 14.4582 26.9775 14.4999 26.9499 14.4999C26.9217 14.4999 26.9 14.6427 26.9 14.8281C26.9 15.0339 26.9187 15.1443 26.9499 15.1251C26.9784 15.1074 26.9999 15.1494 26.9999 15.222C26.9999 15.2925 27.0224 15.3501 27.05 15.3501C27.0773 15.3501 27.0999 15.3804 27.0999 15.4173C27.0999 15.4542 27.1448 15.5253 27.2 15.5751C27.2549 15.6249 27.2999 15.6474 27.2999 15.6252C27.2999 15.603 27.3419 15.633 27.3932 15.6924C27.5294 15.8493 28.3881 15.8553 28.5 15.6999C28.5396 15.645 28.5972 15.6 28.6275 15.6C28.6581 15.6 28.7133 15.5439 28.7499 15.4749C28.7868 15.4062 28.8356 15.3501 28.8584 15.3501C28.8812 15.3501 28.8999 15.2712 28.8999 15.1749C28.8999 15.0786 28.9224 15 28.95 15C28.9776 15 29 14.91 29 14.7999C29 14.6901 28.9776 14.6001 28.95 14.6001C28.9224 14.6001 28.8999 14.5314 28.8999 14.4477C28.8999 14.2977 28.7145 14.0499 28.6023 14.0499C28.5735 14.0499 28.55 14.0163 28.55 13.9749C28.55 13.9332 28.5057 13.8999 28.4499 13.8999C28.395 13.8999 28.35 13.8774 28.35 13.8501C28.35 13.782 27.6056 13.797 27.4625 13.8681ZM24.8999 17.4501C24.8999 17.4774 24.7985 17.4999 24.6749 17.4999C24.551 17.4999 24.4499 17.5224 24.4499 17.55C24.4499 17.5776 24.4034 17.6001 24.3464 17.6001C24.2432 17.6001 24.1011 17.7057 24.099 17.784C24.0984 17.8065 24.0195 17.8923 23.9238 17.9745C23.8284 18.0567 23.75 18.1635 23.75 18.2121C23.75 18.2604 23.7275 18.3 23.6999 18.3C23.6171 18.3 23.6396 19.3071 23.7248 19.4199C23.7644 19.4721 23.7849 19.5339 23.7705 19.5573C23.7561 19.5807 23.7791 19.5999 23.822 19.5999C23.8649 19.5999 23.9 19.6233 23.9 19.6518C23.9 19.7442 24.2439 20.0499 24.3483 20.0499C24.4041 20.0499 24.4499 20.0706 24.4499 20.0955C24.4499 20.1207 24.5448 20.1573 24.6606 20.1768C24.7764 20.1963 24.9114 20.2374 24.9606 20.2683C25.0263 20.3094 25.0736 20.3094 25.1393 20.2683C25.1885 20.2374 25.3235 20.1963 25.4393 20.1768C25.5551 20.1573 25.6499 20.1207 25.6499 20.0955C25.6499 20.0706 25.6955 20.0499 25.7516 20.0499C25.8674 20.0499 26.1998 19.74 26.1998 19.632C26.1998 19.5927 26.2337 19.5477 26.2748 19.5318C26.3162 19.5162 26.3498 19.4589 26.3498 19.4046C26.3498 19.3503 26.3723 19.2921 26.3999 19.275C26.4275 19.2579 26.45 19.0542 26.45 18.822C26.45 18.5739 26.4293 18.3999 26.3999 18.3999C26.3723 18.3999 26.3498 18.3483 26.3498 18.2853C26.3498 18.2223 26.2712 18.0873 26.1749 17.9853C26.0786 17.8833 26 17.787 26 17.7714C26 17.7048 25.8492 17.6001 25.7535 17.6001C25.6965 17.6001 25.6499 17.5776 25.6499 17.55C25.6499 17.5224 25.5485 17.4999 25.4249 17.4999C25.301 17.4999 25.1999 17.4774 25.1999 17.4501C25.1999 17.4225 25.1324 17.4 25.0499 17.4C24.9674 17.4 24.8999 17.4225 24.8999 17.4501ZM3.21235 17.6292C3.12295 17.6997 3.04975 17.7387 3.04975 17.7162C3.04975 17.6934 2.98225 17.7537 2.90005 17.85C2.81755 17.9463 2.75005 18.0531 2.75005 18.0876C2.75005 18.1218 2.72755 18.15 2.69995 18.15C2.67235 18.15 2.64985 18.2295 2.64985 18.3267C2.64985 18.4275 2.62135 18.5142 2.58355 18.5286C2.48155 18.5679 2.47195 19.0923 2.57245 19.131C2.62135 19.1496 2.64985 19.2231 2.64985 19.3302C2.64985 19.4238 2.67235 19.5 2.69995 19.5C2.72755 19.5 2.75005 19.545 2.75005 19.5999C2.75005 19.6551 2.76865 19.7001 2.79145 19.7001C2.81425 19.7001 2.86315 19.7562 2.90005 19.8249C2.93665 19.8939 2.99665 19.95 3.03325 19.95C3.07015 19.95 3.09985 19.9725 3.09985 20.0001C3.09985 20.0274 3.14305 20.0499 3.19585 20.0499C3.24835 20.0499 3.29905 20.067 3.30835 20.0874C3.36385 20.2122 4.10995 20.355 4.17325 20.253C4.18915 20.2269 4.30285 20.1906 4.42555 20.1723C4.54855 20.154 4.63945 20.1237 4.62805 20.1051C4.61665 20.0865 4.67695 20.0403 4.76245 20.0025C4.97815 19.9071 5.09995 19.7937 5.09995 19.689C5.09995 19.6401 5.11675 19.5999 5.13745 19.5996C5.15815 19.5993 5.20315 19.5387 5.23735 19.4646C5.31355 19.3011 5.32405 18.3 5.24995 18.3C5.22235 18.3 5.19985 18.2547 5.19985 18.1992C5.19985 18.0681 4.72855 17.6001 4.59625 17.6001C4.54015 17.6001 4.50805 17.5776 4.52485 17.55C4.60525 17.4201 3.38455 17.4936 3.21235 17.6292ZM8.45005 17.9001C8.45005 17.9274 8.38315 17.9499 8.30155 17.9499C8.21995 17.9499 8.07295 17.9949 7.97485 18.0501C7.87705 18.105 7.76395 18.15 7.72345 18.15C7.68295 18.15 7.64995 18.1737 7.64995 18.2025C7.64995 18.2313 7.53655 18.3618 7.39825 18.4923C7.13185 18.7437 6.89995 19.137 6.89995 19.3371C6.89995 19.4031 6.86605 19.491 6.82495 19.5321C6.76975 19.5876 6.74995 19.7229 6.74995 20.0481C6.74995 20.3943 6.76615 20.4954 6.82495 20.5182C6.87445 20.5371 6.89995 20.6154 6.89995 20.7483C6.89995 20.8593 6.92245 20.9499 6.95005 20.9499C6.97735 20.9499 6.99985 20.9949 6.99985 21.0501C6.99985 21.105 7.02235 21.15 7.04995 21.15C7.07755 21.15 7.10005 21.1734 7.10005 21.2022C7.10005 21.3153 7.63465 21.8499 7.74775 21.8499C7.77655 21.8499 7.79995 21.8724 7.79995 21.9C7.79995 21.9276 7.84315 21.9501 7.89565 21.9501C7.94845 21.9501 7.99945 21.9735 8.00905 22.0023C8.01865 22.0308 8.09245 22.0614 8.17315 22.0701C8.25415 22.0785 8.32885 22.1115 8.33935 22.1427C8.35195 22.1814 8.55025 22.2 8.94985 22.2C9.34945 22.2 9.54775 22.1814 9.56065 22.1427C9.57115 22.1115 9.64585 22.0785 9.72655 22.0701C9.80755 22.0614 9.88135 22.0308 9.89095 22.0023C9.90055 21.9735 9.95155 21.9501 10.004 21.9501C10.0568 21.9501 10.1 21.9318 10.1 21.9093C10.1 21.8871 10.1786 21.8379 10.2749 21.8001C10.3712 21.7623 10.4498 21.7188 10.4498 21.7032C10.4501 21.6876 10.5287 21.5865 10.625 21.4785C10.7213 21.3702 10.7999 21.2508 10.7999 21.213C10.7999 21.1752 10.8224 21.1581 10.85 21.1749C10.8782 21.1926 10.8998 21.1506 10.8998 21.078C10.8998 21.0075 10.9223 20.9499 10.9499 20.9499C10.9775 20.9499 11 20.8737 11 20.7804C11 20.6796 11.0288 20.5995 11.0711 20.5833C11.1263 20.5623 11.1422 20.4387 11.1422 20.0277C11.1422 19.6374 11.1236 19.4808 11.0711 19.4283C11.0318 19.3893 11 19.2879 11 19.2036C11 19.119 10.9775 19.05 10.9499 19.05C10.9223 19.05 10.8998 19.0101 10.8998 18.9609C10.8998 18.912 10.8548 18.8397 10.7999 18.8001C10.745 18.7605 10.7 18.7098 10.7 18.6876C10.7 18.6171 10.3865 18.3 10.3169 18.3C10.28 18.3 10.25 18.2661 10.25 18.225C10.25 18.1836 10.2161 18.15 10.175 18.15C10.1336 18.15 10.1 18.1263 10.1 18.0969C10.1 18.0678 10.0808 18.0561 10.0574 18.0705C10.0337 18.0849 9.97195 18.0645 9.91975 18.0249C9.86755 17.9856 9.75325 17.9526 9.66535 17.9517C9.57775 17.9508 9.49195 17.9274 9.47485 17.9001C9.45775 17.8722 9.22435 17.85 8.94685 17.85C8.64895 17.85 8.45005 17.8701 8.45005 17.9001ZM19.4999 17.9001C19.4999 17.9274 19.4337 17.9499 19.353 17.9499C19.272 17.9499 19.1918 17.9724 19.175 18C19.1579 18.0276 19.1004 18.0501 19.047 18.0501C18.9936 18.0501 18.95 18.0726 18.95 18.0999C18.95 18.1275 18.905 18.15 18.8498 18.15C18.7943 18.15 18.7499 18.1833 18.7499 18.225C18.7499 18.2661 18.7232 18.3 18.6905 18.3C18.5018 18.3 17.9498 19.1007 17.9498 19.3746C17.9498 19.4436 17.9273 19.5 17.9 19.5C17.8349 19.5 17.8331 20.5134 17.8982 20.5782C17.9249 20.6049 17.9522 20.6994 17.9588 20.7882C17.9657 20.8773 17.9888 20.9499 18.0104 20.9499C18.0323 20.9499 18.05 20.9868 18.05 21.0318C18.05 21.0768 18.1004 21.1614 18.1625 21.2196C18.2243 21.2781 18.3047 21.3837 18.3413 21.4545C18.3779 21.5253 18.479 21.6246 18.5663 21.6756C18.6536 21.7263 18.7613 21.8088 18.8057 21.8589C18.8501 21.909 18.9215 21.9501 18.9641 21.9501C19.0067 21.9501 19.049 21.9708 19.0583 21.9966C19.0673 22.0221 19.1423 22.0503 19.2248 22.059C19.3073 22.0677 19.4045 22.1031 19.4411 22.1376C19.529 22.2207 20.5833 22.2255 20.6106 22.1427C20.6211 22.1115 20.6957 22.0785 20.7767 22.0701C20.8574 22.0614 20.9313 22.0308 20.9409 22.0023C20.9505 21.9735 21.0077 21.9501 21.068 21.9501C21.1283 21.9501 21.2094 21.9063 21.2481 21.8526C21.2865 21.7992 21.3359 21.7665 21.3578 21.78C21.4046 21.8088 21.7499 21.465 21.7499 21.3891C21.7499 21.3603 21.7916 21.3003 21.8426 21.2559C21.8939 21.2115 21.9515 21.1245 21.971 21.0624C21.9908 21.0006 22.0278 20.9499 22.0533 20.9499C22.0791 20.9499 22.1 20.8713 22.1 20.775C22.1 20.6787 22.1225 20.6001 22.1498 20.6001C22.1804 20.6001 22.1999 20.3667 22.1999 20.0001C22.1999 19.6332 22.1804 19.4001 22.1498 19.4001C22.1225 19.4001 22.1 19.3527 22.1 19.2951C22.1 19.1874 21.9542 18.888 21.8873 18.8583C21.8669 18.8493 21.8498 18.8193 21.8498 18.7923C21.8498 18.765 21.8219 18.7131 21.7874 18.6768C21.7529 18.6402 21.6689 18.5406 21.6005 18.4551C21.5321 18.3699 21.4364 18.3 21.3878 18.3C21.3395 18.3 21.2999 18.2745 21.2999 18.243C21.2999 18.1662 21.1454 18.0537 21.0374 18.0516C20.9894 18.0507 20.9498 18.0276 20.9498 18C20.9498 17.9724 20.8487 17.9499 20.7248 17.9499C20.6012 17.9499 20.4998 17.9274 20.4998 17.9001C20.4998 17.8701 20.3 17.85 20 17.85C19.7 17.85 19.4999 17.8701 19.4999 17.9001ZM13.6625 20.2674C13.5731 20.2968 13.4999 20.3385 13.4999 20.3604C13.4999 20.3823 13.454 20.4 13.3976 20.4C13.2911 20.4 13.0499 20.6067 13.0499 20.6976C13.0499 20.7264 13.0247 20.7501 12.9941 20.7501C12.9101 20.7501 12.5999 21.1074 12.5999 21.2043C12.5999 21.2511 12.566 21.3024 12.5249 21.318C12.4835 21.3339 12.4499 21.3912 12.4499 21.4455C12.4499 21.4998 12.4274 21.558 12.3998 21.5751C12.3704 21.5934 12.35 21.9006 12.35 22.3281C12.35 22.776 12.3689 23.0499 12.3998 23.0499C12.4274 23.0499 12.4499 23.1063 12.4499 23.175C12.4499 23.2527 12.4781 23.3001 12.5249 23.3001C12.566 23.3001 12.5999 23.3409 12.5999 23.3907C12.5999 23.4405 12.6449 23.5293 12.6998 23.5884C12.755 23.6475 12.8 23.7162 12.8 23.7408C12.8 23.7657 12.8591 23.8284 12.9311 23.8806C13.0034 23.9325 13.115 24.0255 13.1789 24.0876C13.2431 24.1494 13.3415 24.2001 13.3976 24.2001C13.454 24.2001 13.4999 24.2226 13.4999 24.2499C13.4999 24.2775 13.5449 24.3 13.5998 24.3C13.655 24.3 13.7 24.3225 13.7 24.3501C13.7 24.3774 13.7993 24.3999 13.9208 24.3999C14.0507 24.3999 14.15 24.4251 14.162 24.4614C14.1929 24.5538 14.7482 24.5625 14.7833 24.471C14.8013 24.4245 14.8865 24.3999 15.0303 24.3999C15.1512 24.3999 15.2498 24.3774 15.2498 24.3501C15.2498 24.3225 15.3131 24.3 15.3905 24.3C15.4679 24.3 15.5768 24.2574 15.6329 24.2052C15.689 24.153 15.7775 24.1011 15.8297 24.0897C15.8822 24.0783 15.9194 24.0423 15.9125 24.0096C15.9056 23.9769 15.9233 23.9499 15.9521 23.9499C16.0259 23.9499 16.2497 23.7177 16.2509 23.6397C16.2512 23.604 16.3076 23.5221 16.3757 23.4573C16.4441 23.3925 16.4999 23.2857 16.4999 23.2197C16.4999 23.154 16.5224 23.1 16.55 23.1C16.5773 23.1 16.5998 23.0001 16.5998 22.878C16.5998 22.7559 16.6223 22.6419 16.6499 22.6251C16.6775 22.608 16.7 22.4619 16.7 22.2999C16.7 22.1382 16.6775 21.9921 16.6499 21.975C16.6223 21.9579 16.5998 21.8442 16.5998 21.7221C16.5998 21.6 16.5773 21.5001 16.55 21.5001C16.5224 21.5001 16.4999 21.4659 16.4999 21.4242C16.4999 21.3285 16.3943 21.1374 16.3124 21.0849C16.2779 21.063 16.25 21.0111 16.25 20.9697C16.25 20.928 16.2275 20.9079 16.1999 20.925C16.1723 20.9421 16.1498 20.9193 16.1498 20.8743C16.1498 20.7759 16.0778 20.7003 15.8624 20.574C15.773 20.5215 15.6998 20.4609 15.6998 20.4393C15.6998 20.4177 15.6548 20.4 15.5999 20.4C15.545 20.4 15.5 20.3775 15.5 20.3499C15.5 20.3226 15.4436 20.3001 15.3749 20.3001C15.3062 20.3001 15.2498 20.2776 15.2498 20.25C15.2498 20.1825 13.8749 20.1975 13.6625 20.2674ZM4.29985 22.8C4.29985 22.8276 4.26445 22.8501 4.22125 22.8501C4.11895 22.8501 3.84985 23.1189 3.84985 23.2212C3.84985 23.2644 3.82735 23.3001 3.80005 23.3001C3.77035 23.3001 3.74995 23.4834 3.74995 23.7501C3.74995 24.0168 3.77035 24.2001 3.80005 24.2001C3.82735 24.2001 3.84985 24.2355 3.84985 24.2787C3.84985 24.381 4.11895 24.6501 4.22125 24.6501C4.26445 24.6501 4.29985 24.6726 4.29985 24.6999C4.29985 24.8454 5.24725 24.7338 5.36065 24.5751C5.38015 24.5475 5.42515 24.525 5.46055 24.525C5.49595 24.525 5.52505 24.4962 5.52505 24.4608C5.52505 24.4254 5.54755 24.3804 5.57485 24.3606C5.73355 24.2475 5.84545 23.3001 5.69995 23.3001C5.67235 23.3001 5.64985 23.2704 5.64985 23.2341C5.64985 23.1348 5.37775 22.8501 5.28295 22.8501C5.23735 22.8501 5.19985 22.8276 5.19985 22.8C5.19985 22.7703 5.01655 22.7499 4.74985 22.7499C4.48315 22.7499 4.29985 22.7703 4.29985 22.8ZM23.375 23.25C23.3579 23.2776 23.2997 23.3001 23.2454 23.3001C23.1911 23.3001 23.1338 23.3337 23.1182 23.3748C23.1023 23.4159 23.0694 23.4369 23.0448 23.4219C23.0202 23.4066 23 23.4291 23 23.472C23 23.5149 22.9817 23.55 22.9592 23.55C22.7795 23.55 22.6646 24.522 22.8254 24.6825C22.8668 24.7242 22.8881 24.7788 22.8725 24.804C22.8569 24.8292 22.8791 24.8499 22.922 24.8499C22.9649 24.8499 23 24.8742 23 24.9036C23 24.9666 23.0855 25.0503 23.2388 25.1376C23.3705 25.2123 24.1799 25.2228 24.2249 25.1499C24.242 25.1226 24.2898 25.1001 24.3315 25.1001C24.4188 25.1001 24.5498 24.9822 24.5498 24.9036C24.5498 24.8742 24.5723 24.8499 24.5999 24.8499C24.6275 24.8499 24.65 24.8049 24.65 24.75C24.65 24.6951 24.6725 24.6501 24.6998 24.6501C24.7295 24.6501 24.7499 24.4668 24.7499 24.2001C24.7499 23.9334 24.7295 23.7501 24.6998 23.7501C24.6725 23.7501 24.65 23.7144 24.65 23.6712C24.65 23.6277 24.5825 23.5248 24.5 23.4423C24.4175 23.3598 24.35 23.3079 24.35 23.3268C24.35 23.346 24.2945 23.3253 24.2267 23.2809C24.0872 23.1894 23.4272 23.1657 23.375 23.25ZM9.54985 23.7C9.54985 23.7276 9.51445 23.7501 9.47125 23.7501C9.38155 23.7501 9.24985 23.8668 9.24985 23.9463C9.24985 23.976 9.22645 24 9.19765 24C9.11875 24 8.90005 24.2349 8.90005 24.3198C8.90005 24.3606 8.87755 24.408 8.84995 24.4251C8.74585 24.4893 8.78875 25.5921 8.90005 25.7115C8.95495 25.7706 8.99995 25.8501 8.99995 25.8879C8.99995 25.9701 9.12055 26.1 9.19645 26.1C9.22585 26.1 9.24985 26.1225 9.24985 26.1501C9.24985 26.1774 9.29485 26.1999 9.35005 26.1999C9.40495 26.1999 9.44995 26.2224 9.44995 26.25C9.44995 26.2776 9.52855 26.3001 9.62485 26.3001C9.74725 26.3001 9.80005 26.3226 9.80005 26.3751C9.80005 26.4339 9.86905 26.4501 10.1213 26.4501C10.3403 26.4501 10.4666 26.4261 10.5179 26.3751C10.559 26.3337 10.6394 26.3001 10.6964 26.3001C10.7534 26.3001 10.7999 26.2776 10.7999 26.25C10.7999 26.2224 10.8449 26.1999 10.8998 26.1999C10.955 26.1999 11 26.1813 11 26.1585C11 26.1357 11.0561 26.0868 11.1248 26.0499C11.1938 26.0133 11.2499 25.9533 11.2499 25.9167C11.2499 25.8798 11.2724 25.8501 11.3 25.8501C11.3273 25.8501 11.3498 25.8051 11.3498 25.7499C11.3498 25.695 11.3723 25.65 11.3999 25.65C11.4275 25.65 11.45 25.5711 11.45 25.4751C11.45 25.3788 11.4725 25.2999 11.4998 25.2999C11.5274 25.2999 11.5499 25.1763 11.5499 25.0251C11.5499 24.8736 11.5274 24.75 11.4998 24.75C11.4725 24.75 11.45 24.6642 11.45 24.5595C11.45 24.438 11.4137 24.33 11.3498 24.2616C11.2949 24.2025 11.2499 24.141 11.2499 24.1248C11.2499 24.099 11.1194 23.973 10.9145 23.8008C10.8812 23.7729 10.8206 23.7501 10.7801 23.7501C10.7393 23.7501 10.6919 23.7276 10.6748 23.7C10.6574 23.6715 10.4078 23.6499 10.097 23.6499C9.76555 23.6499 9.54985 23.6697 9.54985 23.7ZM18.2999 23.7C18.2999 23.7276 18.2534 23.7501 18.1964 23.7501C18.0992 23.7501 17.9498 23.8551 17.9498 23.9238C17.9498 23.9754 17.708 24.2001 17.6522 24.2001C17.6234 24.2001 17.6 24.2562 17.6 24.3249C17.6 24.3939 17.5775 24.45 17.5499 24.45C17.5196 24.45 17.4998 24.6666 17.4998 24.9999C17.4998 25.3332 17.5196 25.5501 17.5499 25.5501C17.5775 25.5501 17.6 25.5951 17.6 25.65C17.6 25.7055 17.6333 25.7499 17.675 25.7499C17.7227 25.7499 17.75 25.7982 17.75 25.8834C17.75 25.9566 17.7641 26.0025 17.7815 25.9851C17.7989 25.9677 17.8568 26.0088 17.9102 26.0766C17.9636 26.1444 18.0506 26.1999 18.1034 26.1999C18.1565 26.1999 18.2 26.2224 18.2 26.25C18.2 26.2776 18.2681 26.3001 18.3515 26.3001C18.44 26.3001 18.515 26.3313 18.5318 26.3751C18.5525 26.4285 18.6363 26.4501 18.8262 26.4501C19.1217 26.4501 19.2635 26.4123 19.2218 26.3448C19.2065 26.3202 19.2629 26.3001 19.3469 26.3001C19.4312 26.3001 19.4999 26.2776 19.4999 26.25C19.4999 26.2224 19.5392 26.1999 19.5875 26.1999C19.6895 26.1999 19.9499 25.9893 19.9499 25.9068C19.9499 25.8756 19.9724 25.8501 20 25.8501C20.0273 25.8501 20.0498 25.8051 20.0498 25.7499C20.0498 25.6944 20.0831 25.65 20.1248 25.65C20.1746 25.65 20.1998 25.6002 20.1998 25.503C20.1998 25.422 20.2223 25.3419 20.2499 25.3251C20.2775 25.308 20.3 25.1493 20.3 24.972C20.3 24.7908 20.2781 24.6501 20.2499 24.6501C20.2223 24.6501 20.1998 24.585 20.1998 24.5052C20.1998 24.423 20.1677 24.3483 20.1248 24.3318C20.0837 24.3162 20.0498 24.2742 20.0498 24.2391C20.0498 24.0852 19.6518 23.7501 19.4694 23.7501C19.4313 23.7501 19.4 23.7276 19.4 23.7C19.4 23.6697 19.1831 23.6499 18.8498 23.6499C18.5165 23.6499 18.2999 23.6697 18.2999 23.7ZM13.7999 26.9499C13.7999 26.9775 13.7696 27 13.7327 27C13.5887 27 13.3535 27.1611 13.2911 27.3021C13.2551 27.3834 13.2086 27.45 13.1876 27.45C13.1669 27.45 13.1498 27.6525 13.1498 27.9C13.1498 28.1667 13.1702 28.35 13.1999 28.35C13.2275 28.35 13.25 28.3854 13.25 28.4286C13.25 28.5183 13.3667 28.65 13.4462 28.65C13.4759 28.65 13.4999 28.68 13.4999 28.7169C13.4999 28.8357 13.7441 28.8999 14.1899 28.8984C14.618 28.8969 14.7998 28.8396 14.7998 28.707C14.7998 28.6755 14.8241 28.65 14.8535 28.65C14.9165 28.65 15.0002 28.5645 15.0875 28.4112C15.1601 28.2834 15.1736 27.4668 15.1037 27.4416C15.0782 27.4326 15.05 27.3927 15.041 27.3534C15.0167 27.2457 14.8859 27.0999 14.8139 27.0999C14.7785 27.0999 14.75 27.0774 14.75 27.0501C14.75 27.0225 14.6951 27 14.6279 27C14.5607 27 14.492 26.9775 14.4749 26.9499C14.4578 26.9226 14.2992 26.9001 14.1219 26.9001C13.9407 26.9001 13.7999 26.9217 13.7999 26.9499Z" fill="#171A20"/>
</g>
<defs>
<clipPath id="clip0_32_652">
<rect width="120" height="28.9655" fill="white"/>
</clipPath>
</defs>
</svg>
