<svg width="120" height="29" viewBox="0 0 120 29" fill="none" xmlns="http://www.w3.org/2000/svg">
<g clip-path="url(#clip0_55_2)">
<path d="M14.1221 26.9004C14.2993 26.9004 14.4575 26.9229 14.4746 26.9502C14.4918 26.9778 14.5608 27 14.6279 27C14.6949 27 14.7496 27.0223 14.75 27.0498C14.75 27.077 14.7783 27.0994 14.8135 27.0996C14.8855 27.0996 15.0167 27.2458 15.041 27.3535C15.05 27.3926 15.0781 27.4322 15.1035 27.4414C15.1734 27.4666 15.1604 28.2827 15.0879 28.4111C15.0006 28.5644 14.9165 28.6504 14.8535 28.6504C14.8241 28.6504 14.7998 28.6755 14.7998 28.707C14.7998 28.8396 14.6181 28.8969 14.1904 28.8984C13.7446 28.8999 13.5 28.8356 13.5 28.7168C13.5 28.68 13.4759 28.6504 13.4463 28.6504C13.3668 28.6504 13.2501 28.5184 13.25 28.4287C13.25 28.3856 13.2277 28.3498 13.2002 28.3496C13.1705 28.3496 13.1494 28.1669 13.1494 27.9004C13.1494 27.6535 13.1669 27.4512 13.1875 27.4502C13.2085 27.4502 13.255 27.3831 13.291 27.3018C13.3535 27.1609 13.5885 27.0002 13.7324 27C13.7692 27 13.7996 26.9777 13.7998 26.9502C13.7998 26.922 13.9409 26.9004 14.1221 26.9004ZM10.0967 23.6494C10.4075 23.6494 10.6574 23.6717 10.6748 23.7002C10.692 23.7277 10.7395 23.75 10.7803 23.75C10.8207 23.75 10.8807 23.773 10.9141 23.8008C11.119 23.973 11.25 24.0992 11.25 24.125C11.2504 24.1415 11.295 24.2029 11.3496 24.2617C11.4135 24.3301 11.4502 24.4381 11.4502 24.5596C11.4502 24.6642 11.4727 24.75 11.5 24.75C11.5275 24.7504 11.5498 24.8742 11.5498 25.0254C11.5498 25.1762 11.5275 25.2994 11.5 25.2998C11.4727 25.2998 11.4503 25.3785 11.4502 25.4746C11.4502 25.5701 11.4278 25.6496 11.4004 25.6504C11.3797 25.6504 11.3612 25.6752 11.3535 25.7109L11.3457 25.7891C11.3381 25.8249 11.3202 25.8496 11.2998 25.8496C11.2723 25.8498 11.25 25.8802 11.25 25.917C11.2497 25.9536 11.1937 26.0133 11.125 26.0498C11.0566 26.0865 11.0005 26.1353 11 26.1582C11 26.181 10.9546 26.2002 10.8994 26.2002C10.8584 26.2003 10.8228 26.2125 10.8076 26.2305L10.792 26.2695C10.7763 26.2875 10.7391 26.2998 10.6963 26.2998C10.6393 26.2999 10.5586 26.3336 10.5176 26.375C10.4662 26.4259 10.3399 26.4502 10.1211 26.4502C9.869 26.4502 9.7998 26.4338 9.7998 26.375C9.79974 26.3226 9.74722 26.2998 9.625 26.2998C9.52871 26.2998 9.45021 26.2776 9.4502 26.25C9.4502 26.2224 9.40451 26.2002 9.34961 26.2002C9.29481 26.2001 9.25033 26.1775 9.25 26.1504C9.25 26.1228 9.22569 26.0996 9.19629 26.0996C9.12038 26.0994 9 25.9698 9 25.8877C8.99984 25.8499 8.95503 25.7709 8.90039 25.7119C8.78913 25.5926 8.74566 24.4897 8.84961 24.4248C8.87721 24.4077 8.90039 24.3601 8.90039 24.3193C8.90118 24.2342 9.11819 24.0008 9.19727 24C9.22607 24 9.25 23.976 9.25 23.9463C9.25 23.8668 9.38198 23.75 9.47168 23.75C9.51458 23.7499 9.54963 23.7276 9.5498 23.7002C9.5498 23.6699 9.76539 23.6494 10.0967 23.6494ZM18.8496 23.6494C19.1829 23.6494 19.4004 23.6699 19.4004 23.7002C19.4005 23.7277 19.4317 23.75 19.4697 23.75C19.6523 23.7505 20.0498 24.0855 20.0498 24.2393C20.0499 24.2743 20.084 24.3165 20.125 24.332C20.1677 24.3487 20.2001 24.4229 20.2002 24.5049C20.2002 24.5647 20.2125 24.6166 20.2305 24.6387L20.2598 24.6562C20.283 24.6849 20.2998 24.8126 20.2998 24.9717C20.2998 25.149 20.2776 25.3081 20.25 25.3252C20.2224 25.342 20.2002 25.422 20.2002 25.5029C20.2002 25.6 20.1747 25.6503 20.125 25.6504C20.0833 25.6504 20.0498 25.6945 20.0498 25.75C20.0498 25.8052 20.0273 25.8496 20 25.8496C19.9724 25.8496 19.9502 25.876 19.9502 25.9072C19.9493 25.9899 19.69 26.1997 19.5879 26.2002C19.5396 26.2002 19.5 26.2224 19.5 26.25C19.5 26.2776 19.431 26.2998 19.3467 26.2998C19.263 26.2998 19.2067 26.3202 19.2217 26.3447C19.2634 26.4122 19.1217 26.4502 18.8262 26.4502C18.6363 26.4502 18.553 26.4284 18.5322 26.375C18.5154 26.3312 18.4401 26.2998 18.3516 26.2998C18.2682 26.2998 18.2002 26.2776 18.2002 26.25C18.2002 26.2224 18.1566 26.2002 18.1035 26.2002C18.0507 26.2002 17.9636 26.144 17.9102 26.0762C17.8568 26.0086 17.7986 25.968 17.7812 25.9854C17.764 26.0019 17.7501 25.9564 17.75 25.8838C17.75 25.7986 17.7225 25.75 17.6748 25.75C17.6333 25.7498 17.5998 25.7056 17.5996 25.6504C17.5996 25.5955 17.5774 25.5498 17.5498 25.5498C17.5196 25.5491 17.5 25.3327 17.5 25C17.5 24.6672 17.5196 24.4509 17.5498 24.4502C17.5774 24.4502 17.5995 24.3941 17.5996 24.3252C17.5996 24.2565 17.6235 24.2002 17.6523 24.2002C17.7083 24.1999 17.9501 23.9755 17.9502 23.9238C17.9502 23.8552 18.0991 23.7501 18.1963 23.75C18.2531 23.75 18.2996 23.7277 18.2998 23.7002C18.2998 23.6699 18.5164 23.6494 18.8496 23.6494ZM23.375 23.25C23.4272 23.1657 24.0871 23.1898 24.2266 23.2812C24.2939 23.3253 24.3489 23.3457 24.3496 23.3271C24.3496 23.3082 24.4175 23.3599 24.5 23.4424C24.5823 23.5247 24.6501 23.6272 24.6504 23.6709C24.6504 23.7141 24.6729 23.75 24.7002 23.75C24.7297 23.7514 24.75 23.9345 24.75 24.2002C24.75 24.4658 24.7297 24.649 24.7002 24.6504C24.6798 24.6504 24.6619 24.6753 24.6543 24.7109L24.6465 24.7891C24.6388 24.8248 24.6203 24.8496 24.5996 24.8496C24.5722 24.8498 24.5499 24.8742 24.5498 24.9033C24.5498 24.9819 24.4184 25.0996 24.3311 25.0996C24.2895 25.0998 24.2418 25.1223 24.2246 25.1494C24.1796 25.2222 23.372 25.2122 23.2393 25.1377C23.086 25.0504 23 24.9663 23 24.9033C22.9998 24.874 22.9646 24.8496 22.9219 24.8496C22.8791 24.8496 22.8565 24.8289 22.8721 24.8037C22.8877 24.7785 22.8666 24.7243 22.8252 24.6826C22.6646 24.522 22.7795 23.5508 22.959 23.5498C22.9815 23.5498 23 23.5146 23 23.4717C23.0001 23.429 23.0204 23.4066 23.0449 23.4219C23.0695 23.4367 23.1023 23.4159 23.1182 23.375C23.1337 23.334 23.1909 23.2999 23.2451 23.2998C23.2994 23.2998 23.3579 23.2776 23.375 23.25ZM4.75 22.75C5.01608 22.75 5.19946 22.7702 5.2002 22.7998C5.2002 22.8274 5.2376 22.8496 5.2832 22.8496C5.37823 22.8501 5.64941 23.1352 5.64941 23.2344C5.64953 23.2705 5.67267 23.2998 5.7002 23.2998C5.84522 23.3009 5.73362 24.2462 5.5752 24.3604C5.5479 24.3802 5.52539 24.4255 5.52539 24.4609C5.52531 24.4961 5.49612 24.5252 5.46094 24.5254C5.42554 24.5254 5.37985 24.5476 5.36035 24.5752C5.24635 24.7337 4.30111 24.8452 4.2998 24.7002C4.2998 24.673 4.26468 24.6505 4.22168 24.6504C4.11938 24.6504 3.84961 24.3806 3.84961 24.2783C3.84948 24.2353 3.82703 24.2002 3.7998 24.2002C3.77024 24.1992 3.75 24.016 3.75 23.75C3.75 23.4841 3.77024 23.3008 3.7998 23.2998C3.827 23.2998 3.84944 23.2647 3.84961 23.2217C3.84961 23.1194 4.11938 22.8496 4.22168 22.8496C4.26468 22.8495 4.2998 22.8273 4.2998 22.7998C4.30057 22.7702 4.48386 22.75 4.75 22.75ZM13.6621 20.2676C13.8745 20.1977 15.25 20.1825 15.25 20.25C15.25 20.2707 15.2815 20.2883 15.3262 20.2959L15.4238 20.3037C15.4683 20.3113 15.4997 20.3293 15.5 20.3496C15.5 20.3772 15.5449 20.4003 15.5996 20.4004C15.6545 20.4004 15.7002 20.4179 15.7002 20.4395C15.7006 20.4612 15.7731 20.5219 15.8623 20.5742C16.0775 20.7004 16.1493 20.7758 16.1494 20.874C16.1494 20.9079 16.1626 20.9295 16.1807 20.9307L16.2197 20.9189C16.2375 20.9195 16.25 20.9386 16.25 20.9697C16.25 21.0111 16.278 21.0631 16.3125 21.085C16.3943 21.1375 16.4997 21.328 16.5 21.4238C16.5 21.4654 16.5223 21.4998 16.5498 21.5C16.5771 21.5 16.5996 21.5998 16.5996 21.7217C16.5996 21.8438 16.6228 21.9575 16.6504 21.9746C16.6779 21.9921 16.7002 22.1384 16.7002 22.2998C16.7002 22.4611 16.6778 22.6069 16.6504 22.625C16.6228 22.6418 16.5996 22.7559 16.5996 22.8779C16.5996 23 16.5771 23.0996 16.5498 23.0996C16.5223 23.0999 16.5 23.1542 16.5 23.2197C16.5 23.2856 16.4443 23.3922 16.376 23.457C16.3079 23.5218 16.2513 23.6039 16.251 23.6396C16.2498 23.7176 16.0259 23.9502 15.9521 23.9502C15.9233 23.9502 15.9052 23.9771 15.9121 24.0098C15.9189 24.0424 15.8824 24.0784 15.8301 24.0898C15.7779 24.1012 15.6889 24.1529 15.6328 24.2051C15.5767 24.2573 15.468 24.2998 15.3906 24.2998C15.3137 24.2998 15.2507 24.3222 15.25 24.3496C15.25 24.3769 15.1512 24.3994 15.0303 24.3994C14.8868 24.3994 14.8014 24.4243 14.7832 24.4707C14.7481 24.5622 14.193 24.5533 14.1621 24.4609C14.1495 24.4249 14.0503 24.3994 13.9209 24.3994C13.7994 24.3994 13.7002 24.3769 13.7002 24.3496C13.6997 24.3222 13.6545 24.2998 13.5996 24.2998C13.5586 24.2998 13.5231 24.2874 13.5078 24.2695L13.4922 24.2305C13.4767 24.2126 13.4398 24.2002 13.3975 24.2002C13.3413 24.2001 13.2428 24.1496 13.1787 24.0879C13.1148 24.0258 13.003 23.9328 12.9307 23.8809C12.8591 23.829 12.8004 23.7664 12.7998 23.7412C12.7998 23.7167 12.7552 23.6479 12.7002 23.5889C12.6453 23.5298 12.5996 23.4404 12.5996 23.3906C12.5996 23.341 12.5663 23.3001 12.5254 23.2998C12.4786 23.2998 12.4502 23.2525 12.4502 23.1748C12.4502 23.1062 12.427 23.0498 12.3994 23.0498C12.3688 23.0472 12.3496 22.7739 12.3496 22.3281C12.3496 21.9023 12.3702 21.5957 12.3994 21.5752C12.427 21.5581 12.4502 21.4996 12.4502 21.4453C12.4503 21.3911 12.484 21.3342 12.5254 21.3184C12.5664 21.3026 12.5996 21.2508 12.5996 21.2041C12.6 21.1069 12.9102 20.75 12.9941 20.75C13.0247 20.75 13.0498 20.7261 13.0498 20.6973C13.0504 20.6063 13.291 20.4006 13.3975 20.4004C13.4539 20.4004 13.5 20.3823 13.5 20.3604C13.5001 20.3385 13.573 20.297 13.6621 20.2676ZM20 17.8496C20.3 17.8496 20.5 17.8704 20.5 17.9004C20.5007 17.9275 20.6016 17.9502 20.7246 17.9502C20.8485 17.9502 20.9502 17.9724 20.9502 18C20.9502 18.0275 20.9893 18.0508 21.0371 18.0518C21.1451 18.0539 21.2998 18.1664 21.2998 18.2432C21.2999 18.2746 21.3396 18.2998 21.3877 18.2998C21.4363 18.2998 21.5322 18.3699 21.6006 18.4551C21.6689 18.5404 21.7525 18.64 21.7871 18.6768C21.8215 18.7129 21.8494 18.7646 21.8496 18.792C21.8496 18.819 21.8673 18.8494 21.8877 18.8584C21.9547 18.8889 22.0995 19.1873 22.0996 19.2949C22.0996 19.3522 22.1223 19.3999 22.1494 19.4004C22.18 19.4004 22.2002 19.6332 22.2002 20C22.2002 20.3666 22.18 20.5996 22.1494 20.5996C22.1223 20.6004 22.0996 20.6796 22.0996 20.7754C22.0996 20.8709 22.0793 20.9493 22.0537 20.9502C22.0282 20.9502 21.9905 21.0007 21.9707 21.0625C21.9512 21.1246 21.894 21.2115 21.8428 21.2559C21.792 21.3 21.7504 21.3597 21.75 21.3887C21.75 21.4646 21.4042 21.8091 21.3574 21.7803C21.3354 21.7671 21.2863 21.7993 21.248 21.8525C21.2094 21.9061 21.1286 21.95 21.0684 21.9502C21.0082 21.9502 20.9502 21.9732 20.9404 22.002C20.9332 22.0233 20.8902 22.046 20.835 22.0596L20.7178 22.0811C20.6623 22.0953 20.6182 22.1192 20.6104 22.1426C20.5831 22.2253 19.5306 22.2206 19.4414 22.1377C19.4048 22.1032 19.3071 22.0673 19.2246 22.0586C19.1428 22.0499 19.0684 22.0224 19.0586 21.9971C19.0493 21.9713 19.0065 21.9502 18.9639 21.9502C18.9213 21.95 18.85 21.9093 18.8057 21.8594C18.7613 21.8093 18.6537 21.7265 18.5664 21.6758C18.4791 21.6248 18.3784 21.5249 18.3418 21.4541C18.3052 21.3833 18.2239 21.2782 18.1621 21.2197C18.1003 21.1617 18.0501 21.0773 18.0498 21.0322C18.0498 20.9874 18.0325 20.9505 18.0107 20.9502C17.9891 20.9502 17.9659 20.8772 17.959 20.7881C17.9524 20.6994 17.9251 20.6049 17.8984 20.5781C17.8333 20.5133 17.8353 19.5 17.9004 19.5C17.9275 19.4995 17.9501 19.4435 17.9502 19.375C17.9502 19.1012 18.5016 18.3001 18.6904 18.2998C18.7231 18.2998 18.75 18.2657 18.75 18.2246C18.7503 18.1831 18.7944 18.1505 18.8496 18.1504C18.9048 18.1504 18.9502 18.1272 18.9502 18.0996C18.9505 18.0725 18.9937 18.0498 19.0469 18.0498C19.1002 18.0498 19.1576 18.0275 19.1748 18C19.1916 17.9724 19.2717 17.9503 19.3525 17.9502C19.4329 17.9502 19.4995 17.9276 19.5 17.9004C19.5 17.8704 19.7 17.8496 20 17.8496ZM8.94727 17.8496C9.22458 17.8496 9.45752 17.8725 9.47461 17.9004C9.49184 17.9276 9.57766 17.9512 9.66504 17.9521C9.75287 17.953 9.86767 17.9852 9.91992 18.0244C9.97212 18.064 10.0339 18.0847 10.0576 18.0703C10.0809 18.0561 10.0995 18.0678 10.0996 18.0967C10.0996 18.126 10.1335 18.1503 10.1748 18.1504C10.2158 18.1504 10.2498 18.1834 10.25 18.2246C10.25 18.2657 10.2805 18.2998 10.3174 18.2998C10.3878 18.3011 10.6999 18.617 10.7002 18.6875C10.7002 18.7097 10.745 18.7602 10.7998 18.7998C10.8547 18.8394 10.8994 18.912 10.8994 18.9609C10.8994 19.0101 10.9226 19.0498 10.9502 19.0498C10.9776 19.0502 10.9999 19.119 11 19.2031C11 19.2874 11.032 19.3897 11.0713 19.4287C11.1236 19.4815 11.1426 19.638 11.1426 20.0273C11.1426 20.4378 11.1263 20.5618 11.0713 20.583C11.029 20.5992 11 20.6795 11 20.7803C11 20.8733 10.9777 20.9498 10.9502 20.9502C10.9226 20.9502 10.8994 21.0076 10.8994 21.0781C10.8994 21.1506 10.8778 21.1925 10.8496 21.1748C10.8222 21.1584 10.7998 21.1753 10.7998 21.2129C10.7998 21.2507 10.7213 21.3702 10.625 21.4785C10.5289 21.5863 10.4508 21.6873 10.4502 21.7031C10.4502 21.7187 10.3715 21.762 10.2754 21.7998C10.1792 21.8375 10.0999 21.8869 10.0996 21.9092C10.0996 21.9317 10.0567 21.9502 10.0039 21.9502C9.95158 21.9502 9.90039 21.9733 9.89062 22.002C9.88343 22.0233 9.84046 22.046 9.78516 22.0596L9.66797 22.0811C9.61257 22.0953 9.56848 22.1192 9.56055 22.1426C9.54765 22.1813 9.34956 22.2002 8.9502 22.2002C8.5506 22.2002 8.35147 22.1813 8.33887 22.1426C8.32805 22.1115 8.25363 22.0787 8.17285 22.0703C8.09226 22.0616 8.01838 22.0304 8.00879 22.002C7.99886 21.9733 7.94807 21.9502 7.89551 21.9502C7.84332 21.9502 7.80021 21.9278 7.7998 21.9004C7.7998 21.8729 7.77671 21.8498 7.74805 21.8496C7.63495 21.8496 7.09961 21.3152 7.09961 21.2021C7.09959 21.1734 7.07739 21.1504 7.0498 21.1504C7.02917 21.1503 7.01151 21.1246 7.00391 21.0889L6.99609 21.0107C6.98846 20.9751 6.97054 20.9503 6.9502 20.9502C6.9226 20.9502 6.90039 20.859 6.90039 20.748C6.90036 20.6156 6.87444 20.5377 6.8252 20.5186C6.7664 20.4958 6.75 20.3941 6.75 20.0479C6.75001 19.7228 6.77001 19.5877 6.8252 19.5322C6.86627 19.4911 6.90039 19.4029 6.90039 19.3369C6.90053 19.1368 7.13212 18.7435 7.39844 18.4922C7.53667 18.3617 7.65039 18.2309 7.65039 18.2021C7.65066 18.1735 7.6833 18.1504 7.72363 18.1504C7.76428 18.1503 7.87697 18.1046 7.97461 18.0498C8.07271 17.9946 8.22016 17.9502 8.30176 17.9502C8.38297 17.9502 8.44972 17.9275 8.4502 17.9004C8.4502 17.8704 8.64937 17.8496 8.94727 17.8496ZM25.0498 17.4004C25.1323 17.4004 25.2002 17.4226 25.2002 17.4502C25.2005 17.4774 25.3011 17.5 25.4248 17.5C25.5481 17.5 25.6499 17.5223 25.6504 17.5498C25.6504 17.5774 25.6969 17.5996 25.7539 17.5996C25.8496 17.5999 26 17.705 26 17.7715C26.0003 17.7874 26.0787 17.8836 26.1748 17.9854C26.271 18.0873 26.3495 18.2221 26.3496 18.2852C26.3496 18.3482 26.3728 18.3994 26.4004 18.3994C26.4296 18.401 26.4502 18.5753 26.4502 18.8223C26.4502 19.054 26.4279 19.2577 26.4004 19.2754C26.3728 19.2925 26.3497 19.3501 26.3496 19.4043C26.3496 19.4586 26.3158 19.5166 26.2744 19.5322C26.2336 19.5483 26.2003 19.5927 26.2002 19.6318C26.2002 19.7397 25.868 20.0493 25.752 20.0498C25.6959 20.0498 25.6504 20.0708 25.6504 20.0957C25.6499 20.1209 25.5549 20.1573 25.4395 20.1768C25.3237 20.1962 25.1889 20.2377 25.1396 20.2686C25.0741 20.3096 25.0264 20.3094 24.9609 20.2686C24.9117 20.2377 24.776 20.1963 24.6602 20.1768C24.5449 20.1573 24.4507 20.1209 24.4502 20.0957C24.4502 20.0709 24.4043 20.0499 24.3486 20.0498C24.2442 20.0498 23.9004 19.7438 23.9004 19.6514C23.9 19.6231 23.8649 19.5997 23.8223 19.5996C23.7795 19.5996 23.7564 19.5809 23.7705 19.5576C23.7849 19.5342 23.7642 19.4721 23.7246 19.4199C23.6395 19.3066 23.6174 18.2998 23.7002 18.2998C23.7277 18.2996 23.75 18.2601 23.75 18.2119C23.7502 18.1632 23.8286 18.0567 23.9238 17.9746C24.0192 17.8927 24.0976 17.807 24.0986 17.7842C24.1007 17.7059 24.2435 17.5996 24.3467 17.5996C24.4036 17.5995 24.4502 17.5774 24.4502 17.5498C24.4507 17.5223 24.5513 17.5 24.6748 17.5C24.7983 17.5 24.9001 17.4775 24.9004 17.4502C24.9004 17.4226 24.9674 17.4004 25.0498 17.4004ZM3.21191 17.6289C3.38411 17.4933 4.60481 17.4199 4.52441 17.5498C4.50769 17.5774 4.54062 17.5996 4.59668 17.5996C4.72956 17.6006 5.2002 18.0683 5.2002 18.1992C5.2002 18.2547 5.2224 18.2998 5.25 18.2998C5.32405 18.3003 5.31349 19.3014 5.2373 19.4648C5.20325 19.5386 5.15848 19.5988 5.1377 19.5996C5.117 19.5999 5.09961 19.6406 5.09961 19.6895C5.09925 19.794 4.97805 19.9077 4.7627 20.0029C4.6772 20.0407 4.61653 20.0869 4.62793 20.1055C4.63843 20.1241 4.54813 20.1536 4.42578 20.1719C4.30308 20.1902 4.18875 20.2268 4.17285 20.2529C4.10899 20.3547 3.36407 20.2117 3.30859 20.0869C3.29897 20.0667 3.24838 20.0499 3.19629 20.0498C3.14349 20.0498 3.09961 20.0273 3.09961 20C3.09954 19.9724 3.07006 19.9502 3.0332 19.9502C2.99667 19.9501 2.93699 19.894 2.90039 19.8252C2.86349 19.7565 2.81382 19.7002 2.79102 19.7002C2.76841 19.6996 2.75 19.6545 2.75 19.5996C2.74992 19.545 2.72764 19.5003 2.7002 19.5C2.6726 19.5 2.64941 19.4237 2.64941 19.3301C2.64939 19.223 2.62115 19.1495 2.57227 19.1309C2.47198 19.0915 2.48205 18.5676 2.58398 18.5283C2.62149 18.5134 2.64933 18.4273 2.64941 18.3271C2.64941 18.2299 2.6726 18.1504 2.7002 18.1504C2.7276 18.1502 2.74987 18.1219 2.75 18.0879C2.75 18.0534 2.81789 17.9459 2.90039 17.8496C2.98198 17.7541 3.04906 17.6941 3.0498 17.7158C3.0498 17.7383 3.12257 17.6993 3.21191 17.6289ZM38.1045 9.4502C39.4343 9.4502 39.5404 9.47008 39.5488 9.72656C39.5497 9.75476 39.5952 9.81001 39.6504 9.84961C39.7053 9.88921 39.75 9.95125 39.75 9.98633C39.7501 10.0212 39.7724 10.0496 39.7998 10.0498C39.827 10.0498 39.8495 10.0947 39.8496 10.1494C39.8496 10.2045 39.874 10.2498 39.9033 10.25C39.9749 10.25 40.0589 10.3436 40.1494 10.5244C40.1908 10.6069 40.27 10.723 40.3252 10.7812C40.3801 10.8398 40.4696 10.9506 40.5244 11.0273C40.5796 11.1038 40.653 11.1947 40.6875 11.2295C40.7219 11.2642 40.7499 11.3158 40.75 11.3438C40.75 11.372 40.8285 11.4721 40.9248 11.5654C41.0208 11.659 41.0996 11.7674 41.0996 11.8066C41.0997 11.846 41.1454 11.9106 41.2002 11.9502C41.2552 11.9898 41.2998 12.049 41.2998 12.0811C41.3001 12.1131 41.3338 12.1524 41.375 12.168C41.4161 12.1839 41.4502 12.2267 41.4502 12.2627C41.4504 12.2987 41.4952 12.3599 41.5498 12.3994C41.6047 12.439 41.6494 12.501 41.6494 12.5361C41.6494 12.5712 41.6726 12.5996 41.7002 12.5996C41.7208 12.5998 41.7385 12.6255 41.7461 12.6611L41.7539 12.7393C41.7621 12.775 41.7817 12.7998 41.8037 12.7998C41.873 12.8001 41.9998 12.9271 42 12.9961C42 13.0257 42.0223 13.0497 42.0498 13.0498C42.0771 13.0498 42.0996 13.0833 42.0996 13.124C42.0996 13.1648 42.1791 13.2796 42.2754 13.3789C42.3712 13.4778 42.4501 13.5855 42.4502 13.6182C42.4502 13.6512 42.4949 13.7104 42.5498 13.75C42.605 13.7896 42.6504 13.8408 42.6504 13.8633C42.6506 13.9074 42.7084 13.9832 42.8877 14.1748C42.9497 14.241 42.9998 14.3188 43 14.3477C43 14.3764 43.0223 14.4003 43.0498 14.4004C43.0774 14.4004 43.0996 14.4354 43.0996 14.4785C43.0996 14.5619 43.2149 14.7001 43.2842 14.7002C43.307 14.7002 43.3575 14.773 43.3965 14.8623C43.4354 14.9515 43.5082 15.0609 43.5586 15.1055C43.6087 15.1499 43.6504 15.2133 43.6504 15.2451C43.6506 15.2691 43.6686 15.2974 43.6953 15.3164L43.7539 15.3477C43.7806 15.3668 43.7996 15.3947 43.7998 15.4189C43.7998 15.451 43.8447 15.5102 43.8994 15.5498C43.9546 15.5894 44 15.662 44 15.7109C44 15.7598 44.0225 15.7998 44.0498 15.7998C44.0774 15.7998 44.0996 15.8336 44.0996 15.875C44.0996 15.9159 44.1238 15.9499 44.1533 15.9502C44.2328 15.9502 44.3496 16.0819 44.3496 16.1719C44.3497 16.2149 44.3729 16.25 44.4004 16.25C44.4278 16.2502 44.4502 16.2741 44.4502 16.3027C44.4507 16.3318 44.5008 16.4072 44.5625 16.4707C44.6243 16.5349 44.7205 16.6507 44.7754 16.7275C44.8303 16.8039 44.9031 16.895 44.9375 16.9297C44.9716 16.9644 44.9998 17.0175 45 17.0479C45 17.1002 45.276 17.3985 45.3262 17.4004C45.3391 17.4004 45.3496 17.3662 45.3496 17.3252C45.3496 17.284 45.3723 17.2504 45.3994 17.25C45.427 17.25 45.4502 17.2086 45.4502 17.1582C45.4504 17.1078 45.5066 17.0365 45.5752 17C45.6438 16.9631 45.7002 16.9028 45.7002 16.8662C45.7003 16.839 45.7127 16.8158 45.7305 16.8057L45.7695 16.7939C45.7875 16.7821 45.7998 16.7546 45.7998 16.7227C45.7998 16.6804 45.8501 16.5914 45.9121 16.5254C46.0918 16.3331 46.1494 16.2567 46.1494 16.2129C46.1498 16.1902 46.195 16.139 46.25 16.0996C46.3048 16.06 46.3496 15.996 46.3496 15.957C46.35 15.9181 46.4284 15.812 46.5244 15.7217C46.6207 15.6308 46.7002 15.5214 46.7002 15.4785C46.7002 15.4353 46.7227 15.3994 46.75 15.3994C46.7775 15.3993 46.7997 15.3759 46.7998 15.3467C46.7998 15.2775 46.9267 15.1508 46.9961 15.1504C47.0182 15.1504 47.0378 15.1247 47.0459 15.0889L47.0537 15.0107C47.0613 14.9752 47.0791 14.9505 47.0996 14.9502C47.1271 14.9502 47.1502 14.9267 47.1504 14.8984C47.1504 14.8696 47.1951 14.7974 47.25 14.7383C47.3049 14.6792 47.3496 14.6014 47.3496 14.5654C47.3497 14.5295 47.3838 14.5 47.4248 14.5C47.4662 14.5 47.5 14.4662 47.5 14.4248C47.5 14.3838 47.5223 14.3497 47.5498 14.3496C47.5774 14.3496 47.5996 14.3202 47.5996 14.2842C47.5999 14.248 47.6455 14.1703 47.7002 14.1113C47.755 14.0526 47.7998 13.9908 47.7998 13.9746C47.8002 13.942 47.87 13.8536 48.0371 13.6748C48.0989 13.6085 48.1504 13.5305 48.1504 13.502C48.1506 13.4735 48.167 13.4504 48.1875 13.4502C48.2082 13.4502 48.2557 13.3823 48.292 13.2998C48.3286 13.2174 48.3907 13.1494 48.4297 13.1494C48.4681 13.1492 48.4998 13.1163 48.5 13.0752C48.5 13.0445 48.5125 13.0174 48.5303 13.0059L48.5693 12.9941C48.5874 12.9824 48.5996 12.9546 48.5996 12.9229C48.5996 12.8359 48.8173 12.5998 48.8975 12.5996C48.9263 12.5996 48.9502 12.5542 48.9502 12.499C48.9506 12.4437 49.0175 12.3283 49.0996 12.2422C49.1821 12.1558 49.25 12.0577 49.25 12.0244C49.2502 11.991 49.3064 11.9216 49.375 11.8701C49.4437 11.8187 49.4996 11.7371 49.5 11.6885C49.5 11.6403 49.5223 11.5998 49.5498 11.5996C49.577 11.5996 49.5995 11.5765 49.5996 11.5479C49.5996 11.5194 49.6502 11.4413 49.7119 11.375C49.8914 11.1833 49.9499 11.1073 49.9502 11.0635C49.9502 11.041 49.995 10.9898 50.0498 10.9502C50.1049 10.9106 50.1503 10.8463 50.1504 10.8076C50.1504 10.7686 50.2289 10.6622 50.3252 10.5713C50.4213 10.4807 50.5 10.3713 50.5 10.3281C50.5001 10.2851 50.5223 10.2501 50.5498 10.25C50.5774 10.25 50.5996 10.2213 50.5996 10.1865C50.5999 10.1517 50.6562 10.0817 50.7246 10.0303C50.7934 9.9788 50.8493 9.90574 50.8496 9.86816C50.8496 9.83096 50.8728 9.7998 50.9004 9.7998C50.9275 9.79953 50.9502 9.76554 50.9502 9.72461C50.9504 9.68343 50.9714 9.65039 50.9971 9.65039C51.0225 9.64991 51.0579 9.60471 51.0752 9.5498C51.1058 9.45365 51.1514 9.4502 52.3037 9.4502H53.5V20.1504H50.9502V17.0254C50.9502 14.1434 50.9309 13.6672 50.8271 13.9941C50.8106 14.046 50.73 14.1586 50.6484 14.2441C50.567 14.3296 50.5001 14.4248 50.5 14.4561C50.5 14.4875 50.4214 14.5872 50.3252 14.6777C50.2289 14.7686 50.1497 14.8729 50.1494 14.9092C50.1493 14.9948 49.9299 15.25 49.8564 15.25C49.8253 15.2502 49.7998 15.2919 49.7998 15.3428C49.7996 15.3938 49.7326 15.5056 49.6504 15.5918C49.5679 15.6782 49.5 15.7726 49.5 15.8008C49.4993 15.8295 49.4207 15.9284 49.3252 16.0215C49.2291 16.1146 49.1498 16.2268 49.1494 16.2705C49.1494 16.314 49.1269 16.3496 49.0996 16.3496C49.0722 16.3499 49.0498 16.3788 49.0498 16.4131C49.0497 16.4391 49.0183 16.4851 48.9736 16.5283L48.876 16.6123C48.8316 16.656 48.8001 16.7036 48.7998 16.7314C48.7998 16.7596 48.7875 16.7846 48.7695 16.7949L48.7305 16.8047C48.7124 16.8144 48.7002 16.8379 48.7002 16.8643C48.6999 16.8994 48.6543 16.9605 48.5996 17C48.5448 17.0396 48.5 17.1017 48.5 17.1377C48.4999 17.1647 48.481 17.1955 48.4541 17.2158L48.3955 17.249C48.3689 17.2698 48.3497 17.3015 48.3496 17.3301C48.3496 17.3685 48.3274 17.4004 48.2998 17.4004C48.2724 17.4005 48.2501 17.4305 48.25 17.4678C48.25 17.505 48.1715 17.6197 48.0752 17.7217C47.9789 17.8237 47.9004 17.925 47.9004 17.9463C47.8998 17.9684 47.8321 18.0566 47.75 18.1426C47.6679 18.2286 47.6002 18.3203 47.5996 18.3477C47.5996 18.3744 47.5211 18.476 47.4248 18.5723C47.3289 18.6679 47.2505 18.7748 47.25 18.8105C47.25 18.8944 47.0304 19.1483 46.957 19.1494C46.9259 19.1494 46.8995 19.1914 46.8994 19.2422C46.8994 19.2932 46.8325 19.4058 46.75 19.4922C46.6678 19.5783 46.6001 19.6694 46.5996 19.6953C46.5996 19.7208 46.5118 19.8333 46.4043 19.9453L46.208 20.1504H45.1279C44.1448 20.1504 44.0441 20.1419 44.0146 20.0625C43.9967 20.0145 43.9407 19.9389 43.8906 19.8945C43.8405 19.8501 43.7998 19.7979 43.7998 19.7793C43.7995 19.7422 43.7351 19.6592 43.5625 19.4746C43.501 19.4089 43.4507 19.3319 43.4502 19.3027C43.4502 19.2741 43.4275 19.2502 43.4004 19.25C43.3729 19.25 43.3497 19.2149 43.3496 19.1719C43.3496 19.0819 43.2331 18.9502 43.1533 18.9502C43.124 18.9501 43.0996 18.916 43.0996 18.875C43.0996 18.8439 43.0874 18.817 43.0693 18.8057L43.0303 18.7939C43.0124 18.7824 43 18.7553 43 18.7246C42.9994 18.6831 42.921 18.5664 42.8252 18.4648C42.7291 18.3631 42.6508 18.2615 42.6504 18.2393C42.6504 18.2174 42.5825 18.1284 42.5 18.042C42.4177 17.956 42.3498 17.8438 42.3496 17.793C42.3496 17.742 42.3242 17.7002 42.293 17.7002C42.2176 17.6993 42 17.4435 42 17.3555C41.9998 17.3173 41.9211 17.2188 41.8252 17.1367C41.7292 17.0545 41.6499 16.9548 41.6494 16.9141C41.6494 16.8736 41.5824 16.7773 41.5 16.7002C41.4177 16.6233 41.35 16.5365 41.3496 16.5068C41.3496 16.4774 41.2711 16.3746 41.1748 16.2783C41.0785 16.182 41 16.0687 41 16.0264C40.9999 15.9951 40.9876 15.9678 40.9697 15.9561L40.9307 15.9443C40.9126 15.933 40.8994 15.9059 40.8994 15.875C40.8994 15.8337 40.868 15.7998 40.8291 15.7998C40.7902 15.7998 40.729 15.7327 40.6924 15.6504C40.6558 15.5679 40.6086 15.5001 40.5879 15.5C40.5669 15.5 40.5498 15.4761 40.5498 15.4473C40.5494 15.4185 40.499 15.3414 40.4375 15.2754C40.2575 15.0831 40.2002 15.0067 40.2002 14.9629C40.1999 14.9403 40.1543 14.8891 40.0996 14.8496C40.0446 14.81 40 14.7482 40 14.7129C39.9996 14.6769 39.9211 14.5718 39.8252 14.4785C39.729 14.385 39.6505 14.2826 39.6504 14.251C39.6504 14.2192 39.5716 14.1102 39.4756 14.0088L39.3008 13.8252L39.2998 16.9873V20.1504H36.8496V9.4502H38.1045ZM65.0791 9.4502C66.1215 9.4502 66.25 9.47162 66.25 9.64648C66.25 9.67583 66.2723 9.70011 66.2998 9.7002C66.3274 9.7002 66.3495 9.74474 66.3496 9.7998C66.3496 9.85519 66.3832 9.90021 66.4248 9.90039C66.4658 9.90039 66.4998 9.93339 66.5 9.97461C66.5 10.0157 66.5225 10.0498 66.5498 10.0498C66.5773 10.0498 66.5995 10.0897 66.5996 10.1387C66.5996 10.1753 66.6254 10.2253 66.6611 10.2646L66.7393 10.335C66.7751 10.3743 66.7998 10.4243 66.7998 10.4609C66.7998 10.5097 66.8228 10.5496 66.8506 10.5498C66.8785 10.5498 66.9395 10.6284 66.9854 10.7246C67.0311 10.8206 67.0824 10.8989 67.0996 10.8994C67.117 10.8994 67.1624 10.9789 67.2002 11.0752C67.2379 11.1708 67.2977 11.2495 67.334 11.25C67.3699 11.25 67.4002 11.2793 67.4004 11.3154C67.4004 11.3514 67.4451 11.4292 67.5 11.4883C67.5549 11.5474 67.5996 11.6284 67.5996 11.668C67.6 11.7077 67.6558 11.7928 67.7236 11.8574C67.792 11.9222 67.849 11.9989 67.8496 12.0283C67.85 12.0575 67.8896 12.1244 67.9375 12.1777C67.9857 12.2308 68.0582 12.3423 68.0996 12.4248C68.1842 12.5943 68.2278 12.6542 68.3877 12.8252C68.4497 12.8915 68.5 12.9868 68.5 13.0371C68.5002 13.0871 68.5446 13.1606 68.5996 13.2002C68.6543 13.2396 68.6999 13.3015 68.7002 13.3379C68.7002 13.3745 68.7565 13.4566 68.8252 13.5205C68.8937 13.584 68.9499 13.6679 68.9502 13.707C68.9502 13.7456 68.9948 13.81 69.0498 13.8496C69.1047 13.8892 69.1504 13.9734 69.1504 14.0361C69.1504 14.0988 69.1744 14.1504 69.2041 14.1504C69.2886 14.1509 69.3994 14.2845 69.3994 14.3857C69.3997 14.4367 69.445 14.5103 69.5 14.5498C69.5549 14.5894 69.5996 14.6522 69.5996 14.6885C69.5998 14.7252 69.656 14.8073 69.7246 14.8711C69.7933 14.9347 69.8496 15.0186 69.8496 15.0576C69.8499 15.0964 69.8951 15.1607 69.9502 15.2002C70.0049 15.2398 70.0496 15.3231 70.0498 15.3857C70.0498 15.4483 70.0739 15.4998 70.1035 15.5C70.183 15.5 70.2998 15.6317 70.2998 15.7217C70.2999 15.7539 70.3123 15.7819 70.3301 15.7939L70.3691 15.8057C70.3813 15.8132 70.3913 15.8276 70.3965 15.8457L70.4043 15.9043C70.4119 15.9311 70.4298 15.9502 70.4502 15.9502C70.4776 15.9505 70.5 15.99 70.5 16.0381C70.5001 16.0745 70.5314 16.1297 70.5762 16.1768L70.6738 16.2627C70.7184 16.3087 70.7498 16.3617 70.75 16.3955C70.75 16.4404 70.7946 16.5102 70.8496 16.5498C70.9045 16.5894 70.9502 16.662 70.9502 16.7109C70.9502 16.7601 70.9724 16.7997 71 16.7998C71.0272 16.7998 71.0496 16.831 71.0498 16.8691C71.0498 16.9075 71.0839 16.9522 71.125 16.9678C71.1664 16.9837 71.2002 17.0313 71.2002 17.0732C71.2002 17.1051 71.2124 17.1329 71.2305 17.1445L71.2695 17.1562C71.2873 17.1676 71.2997 17.1939 71.2998 17.2246C71.2998 17.2656 71.3224 17.2996 71.3496 17.2998C71.3772 17.2998 71.4003 17.3348 71.4004 17.377C71.4004 17.4196 71.4567 17.5104 71.5254 17.5791C71.5941 17.6481 71.6494 17.7327 71.6494 17.7666C71.6497 17.8006 71.695 17.8609 71.75 17.9004C71.8047 17.9399 71.8494 18.0117 71.8496 18.0605C71.8496 18.1097 71.8728 18.1504 71.9004 18.1504C71.9275 18.1506 71.9502 18.1735 71.9502 18.2021C71.9502 18.251 71.9896 18.3074 72.1377 18.4727C72.1722 18.5111 72.2002 18.5673 72.2002 18.5967C72.2003 18.626 72.2228 18.6504 72.25 18.6504C72.2775 18.6506 72.2998 18.6952 72.2998 18.75C72.2998 18.8049 72.3187 18.8496 72.3418 18.8496C72.3647 18.8499 72.4149 18.9114 72.4541 18.9854C72.4932 19.0595 72.576 19.1751 72.6377 19.2422C72.6994 19.3097 72.75 19.3955 72.75 19.4326C72.7502 19.4695 72.7724 19.4998 72.7998 19.5C72.8203 19.5 72.8381 19.519 72.8457 19.5459L72.8535 19.6045C72.8612 19.6312 72.8798 19.6504 72.9004 19.6504C72.9278 19.6509 72.9502 19.6954 72.9502 19.75C72.9502 19.8058 72.9837 19.8496 73.0254 19.8496C73.075 19.8498 73.0996 19.9001 73.0996 20V20.1504H71.5957C70.1332 20.1504 70.09 20.147 70.0645 20.0498C70.05 19.9949 70.0184 19.9502 69.9941 19.9502C69.9698 19.9502 69.9502 19.9161 69.9502 19.875C69.9502 19.8338 69.9278 19.8002 69.9004 19.7998C69.8798 19.7998 69.8612 19.7749 69.8535 19.7393L69.8457 19.6611C69.8406 19.6371 69.8313 19.6175 69.8193 19.6074L69.7803 19.5918C69.7625 19.5764 69.75 19.541 69.75 19.5C69.75 19.4453 69.7247 19.4008 69.6934 19.4004C69.6202 19.4004 69.5041 19.2474 69.502 19.1484C69.5011 19.1064 69.4546 19.0396 69.3994 19C69.3446 18.9603 69.2998 18.8761 69.2998 18.8135C69.2997 18.7504 69.2688 18.7002 69.2305 18.7002C69.1926 18.6996 69.1337 18.632 69.0996 18.5498C69.0655 18.4676 69.0182 18.3998 68.9941 18.3994C68.9699 18.3994 68.9503 18.344 68.9502 18.2754V18.1504H65.7002C62.039 18.1504 62.2768 18.1787 62.6377 17.7764C62.6716 17.7382 62.6998 17.6886 62.7002 17.665C62.7002 17.6416 62.7449 17.5894 62.7998 17.5498C62.855 17.5102 62.9004 17.4459 62.9004 17.4072C62.9008 17.368 62.9791 17.2626 63.0752 17.1719C63.1712 17.0815 63.2496 16.9721 63.25 16.9287C63.25 16.8856 63.2723 16.8497 63.2998 16.8496C63.3273 16.8496 63.3494 16.8261 63.3496 16.7969C63.3496 16.7675 63.3776 16.7131 63.4121 16.6777C63.5729 16.5109 63.6998 16.3451 63.7002 16.2998C63.7002 16.2725 63.7199 16.2501 63.7441 16.25C63.7684 16.25 63.8001 16.2046 63.8145 16.1494C63.84 16.0524 63.8853 16.0498 65.6699 16.0498C67.3594 16.0498 67.6223 16.0315 67.4502 15.9248C67.4229 15.908 67.4004 15.8503 67.4004 15.7969C67.4003 15.7438 67.3759 15.7005 67.3467 15.7002C67.2621 15.7002 67.1495 15.5662 67.1494 15.4648C67.1494 15.4266 67.1247 15.3749 67.0889 15.335L67.0107 15.2646C66.9751 15.2253 66.9502 15.1752 66.9502 15.1387C66.9501 15.0901 66.9271 15.0501 66.8994 15.0498C66.8715 15.0498 66.8105 14.9713 66.7646 14.875C66.7188 14.7787 66.6628 14.7002 66.6406 14.7002C66.6182 14.7 66.5996 14.6591 66.5996 14.6094C66.5996 14.5596 66.5549 14.4702 66.5 14.4111C66.445 14.3525 66.3997 14.2699 66.3994 14.2275C66.3994 14.1958 66.3812 14.1681 66.3545 14.1562L66.2959 14.1445C66.2689 14.1331 66.25 14.1061 66.25 14.0752C66.25 14.0443 66.2375 14.0173 66.2197 14.0059L66.1807 13.9941C66.1626 13.9824 66.1504 13.9546 66.1504 13.9229C66.1503 13.8802 66.1046 13.7973 66.0498 13.7383C65.9947 13.6792 65.9502 13.5898 65.9502 13.54C65.95 13.503 65.931 13.4708 65.9043 13.457L65.8457 13.4434C65.8188 13.4299 65.7999 13.398 65.7998 13.3613C65.7998 13.3125 65.755 13.2398 65.7002 13.2002C65.6454 13.1607 65.5998 13.0872 65.5996 13.0371C65.5996 12.9867 65.5433 12.889 65.4746 12.8203C65.4064 12.7521 65.3502 12.6749 65.3496 12.6484C65.3496 12.5872 65.1442 12.3496 65.0908 12.3496C65.0684 12.3497 65.0498 12.3848 65.0498 12.4268C65.0497 12.4687 65.016 12.5163 64.9746 12.5322C64.9338 12.5482 64.8997 12.5917 64.8994 12.6299C64.8994 12.6683 64.8769 12.7002 64.8496 12.7002C64.8222 12.7006 64.7998 12.7404 64.7998 12.7891C64.7998 12.8379 64.7551 12.9106 64.7002 12.9502C64.6587 12.9799 64.623 13.0251 64.6074 13.0635L64.5889 13.1377C64.5697 13.183 64.5256 13.2444 64.4746 13.293C64.4062 13.3578 64.3496 13.4428 64.3496 13.4824C64.3495 13.522 64.3048 13.6024 64.25 13.6611C64.1948 13.7202 64.1494 13.799 64.1494 13.835C64.1493 13.8707 64.1322 13.8994 64.1113 13.8994C64.0899 13.8997 64.03 13.9791 63.9785 14.0752C63.9266 14.1712 63.8649 14.25 63.8418 14.25C63.8189 14.2503 63.7999 14.295 63.7998 14.3496C63.7998 14.4048 63.7776 14.4501 63.75 14.4502C63.7224 14.4502 63.7002 14.4735 63.7002 14.502C63.7002 14.5565 63.6503 14.6249 63.4629 14.8252C63.401 14.8913 63.3499 14.9859 63.3496 15.0361C63.3496 15.0865 63.3052 15.1606 63.25 15.2002C63.1951 15.2398 63.15 15.3066 63.1494 15.3486C63.1491 15.3906 63.0927 15.4782 63.0244 15.543C62.9563 15.6078 62.9004 15.6921 62.9004 15.7305C62.9003 15.7687 62.8818 15.7997 62.8594 15.7998C62.8372 15.7998 62.7878 15.8785 62.75 15.9746C62.7122 16.0709 62.6512 16.1494 62.6152 16.1494C62.5794 16.1498 62.5498 16.1951 62.5498 16.25C62.5498 16.3048 62.5275 16.3494 62.5 16.3496C62.4796 16.3496 62.4618 16.3688 62.4541 16.3955L62.4463 16.4541C62.4387 16.4808 62.4209 16.4997 62.4004 16.5C62.3729 16.5 62.3498 16.5351 62.3496 16.5781C62.3496 16.6678 62.2328 16.7998 62.1533 16.7998C62.1238 16.8002 62.0996 16.8516 62.0996 16.9141C62.0996 16.9767 62.0548 17.06 62 17.0996C61.9448 17.1392 61.8994 17.2085 61.8994 17.252C61.8991 17.2958 61.8589 17.3745 61.8096 17.4277C61.7601 17.4808 61.7049 17.5643 61.6865 17.6123C61.6682 17.6606 61.6298 17.7002 61.6016 17.7002C61.5731 17.7003 61.5498 17.734 61.5498 17.7754C61.5497 17.8163 61.5275 17.8496 61.5 17.8496C61.4724 17.8496 61.4502 17.8953 61.4502 17.9502C61.4501 18.0053 61.4313 18.0498 61.4092 18.0498C61.3866 18.0502 61.3309 18.1287 61.2852 18.2246C61.2393 18.3209 61.1783 18.3994 61.1504 18.3994C61.1227 18.3998 61.0996 18.4406 61.0996 18.4893C61.0994 18.5382 61.0551 18.6109 61 18.6504C60.9451 18.69 60.8993 18.7568 60.8984 18.7988C60.8962 18.8978 60.7802 19.0498 60.707 19.0498C60.6755 19.0498 60.6504 19.0908 60.6504 19.1406C60.6504 19.1904 60.605 19.2798 60.5498 19.3389C60.495 19.3976 60.4502 19.4725 60.4502 19.5049C60.4501 19.537 60.3941 19.6162 60.3252 19.6797C60.2568 19.743 60.2007 19.8179 60.2002 19.8467C60.2002 19.8755 60.1508 19.9554 60.0908 20.0244L59.9824 20.1504H57.0996V20.0107C57.0997 19.9292 57.1414 19.8421 57.2002 19.7998C57.2549 19.7603 57.2995 19.6914 57.2998 19.6465C57.2998 19.6012 57.3561 19.5216 57.4248 19.4697C57.4933 19.4183 57.5495 19.3411 57.5498 19.2979C57.5498 19.2547 57.5952 19.1704 57.6504 19.1113C57.6914 19.0671 57.7269 19.0097 57.7422 18.9658L57.7559 18.8975C57.7672 18.8697 57.794 18.8496 57.8252 18.8496C57.8662 18.8495 57.9004 18.8157 57.9004 18.7744C57.9006 18.7335 57.9227 18.7002 57.9502 18.7002C57.9774 18.7001 57.9999 18.66 58 18.6113C58 18.5625 58.0446 18.4899 58.0996 18.4502C58.1543 18.4107 58.1999 18.3401 58.2002 18.293C58.2002 18.2462 58.2566 18.1634 58.3252 18.1094C58.3938 18.0555 58.45 17.9748 58.4502 17.9307C58.4502 17.8863 58.4724 17.8496 58.5 17.8496C58.5275 17.8496 58.5497 17.8163 58.5498 17.7754C58.5498 17.7341 58.5724 17.7004 58.5996 17.7002C58.6272 17.7002 58.6504 17.6643 58.6504 17.6211C58.6507 17.5314 58.767 17.4004 58.8467 17.4004C58.876 17.4001 58.8994 17.3486 58.8994 17.2861C58.8994 17.2234 58.9448 17.1392 59 17.0996C59.0548 17.06 59.0996 16.9873 59.0996 16.9385C59.0997 16.8898 59.1229 16.8496 59.1504 16.8496C59.1775 16.8493 59.2001 16.8162 59.2002 16.7754C59.2002 16.7341 59.2335 16.7004 59.2744 16.7002C59.3157 16.7002 59.3495 16.6601 59.3496 16.6113C59.3496 16.5747 59.3753 16.5247 59.4111 16.4854L59.4893 16.415C59.5251 16.3751 59.5498 16.3232 59.5498 16.2852C59.5501 16.1839 59.6616 16.0502 59.7461 16.0498C59.7755 16.0498 59.7998 15.9982 59.7998 15.9355C59.8 15.8729 59.8453 15.7895 59.9004 15.75C59.9552 15.7104 60 15.6479 60 15.6113C60.0004 15.5748 60.0566 15.4852 60.125 15.4111C60.1937 15.337 60.25 15.2521 60.25 15.2236C60.2505 15.195 60.2948 15.139 60.3496 15.0996C60.3908 15.0699 60.4272 15.0186 60.4424 14.9707L60.458 14.8789C60.4733 14.8311 60.5088 14.7796 60.5498 14.75C60.605 14.7104 60.6504 14.6483 60.6504 14.6123C60.6504 14.5765 60.6835 14.5343 60.7246 14.5186C60.7657 14.5027 60.7997 14.458 60.7998 14.4199C60.7998 14.3816 60.8224 14.3498 60.8496 14.3496C60.8772 14.3496 60.9004 14.3096 60.9004 14.2607C60.9006 14.2118 60.9452 14.1391 61 14.0996C61.055 14.06 61.0995 13.9912 61.0996 13.9463C61.0996 13.901 61.1559 13.8214 61.2246 13.7695C61.2935 13.718 61.3495 13.6409 61.3496 13.5977C61.3496 13.5545 61.3953 13.4702 61.4502 13.4111C61.4914 13.3669 61.5268 13.3095 61.542 13.2656L61.5557 13.1973C61.567 13.1695 61.5939 13.1494 61.625 13.1494C61.666 13.1494 61.7 13.1165 61.7002 13.0752C61.7002 13.0341 61.7227 13 61.75 13C61.7775 12.9999 61.7998 12.9599 61.7998 12.9111C61.7998 12.8623 61.8446 12.7896 61.8994 12.75C61.9546 12.7104 62 12.6407 62 12.5957C62.0002 12.5617 62.0316 12.5089 62.0762 12.4629L62.1738 12.377C62.2187 12.3299 62.25 12.2745 62.25 12.2383C62.25 12.1898 62.2723 12.1506 62.2998 12.1504C62.3202 12.1504 62.338 12.1311 62.3457 12.1045L62.3535 12.0459C62.3611 12.0189 62.3797 12 62.4004 12C62.4277 11.9996 62.45 11.9646 62.4502 11.9219C62.4502 11.8322 62.567 11.7002 62.6465 11.7002C62.6761 11.6999 62.7002 11.6485 62.7002 11.5859C62.7002 11.5233 62.745 11.44 62.7998 11.4004C62.8549 11.3609 62.9002 11.2882 62.9004 11.2393C62.9004 11.1904 62.9229 11.1504 62.9502 11.1504C62.9776 11.1501 63 11.1161 63 11.0752C63 11.0338 63.0338 11 63.0752 11C63.1161 10.9998 63.1503 10.9599 63.1504 10.9111C63.1504 10.8745 63.1752 10.8245 63.2109 10.7852L63.2891 10.7148C63.3249 10.6751 63.3494 10.6239 63.3496 10.5859C63.3496 10.4847 63.4613 10.35 63.5459 10.3496C63.5755 10.3496 63.5995 10.2989 63.5996 10.2363C63.5996 10.1736 63.6453 10.0894 63.7002 10.0498C63.7552 10.0102 63.7998 9.94615 63.7998 9.90723C63.7998 9.87805 63.8314 9.82364 63.876 9.77148L63.9736 9.66992C64.0186 9.61658 64.0498 9.55932 64.0498 9.52734C64.0499 9.45989 64.1841 9.4502 65.0791 9.4502ZM75.4043 9.4502L75.5273 9.57227C75.5948 9.63977 75.6504 9.70946 75.6504 9.72656C75.6509 9.77151 75.7858 9.89987 75.834 9.90137C75.8565 9.90205 75.9423 9.98052 76.0244 10.0762C76.1066 10.1719 76.193 10.25 76.2158 10.25C76.2387 10.2502 76.2871 10.2781 76.3232 10.3125C76.3596 10.347 76.4312 10.4103 76.4824 10.4531C76.5334 10.4958 76.6194 10.5912 76.6738 10.665C76.7284 10.7391 76.7916 10.7998 76.8135 10.7998C76.872 10.7999 77.1996 11.1375 77.2002 11.1982C77.2002 11.2264 77.2235 11.25 77.252 11.25C77.3196 11.2506 77.6494 11.5813 77.6494 11.6484C77.6494 11.6766 77.6737 11.7002 77.7021 11.7002C77.7702 11.7015 78.0996 12.0316 78.0996 12.0986C78.0997 12.1267 78.1222 12.1504 78.1494 12.1504C78.2053 12.1505 78.3512 12.2605 78.5635 12.4629C78.6429 12.5384 78.7175 12.5996 78.7295 12.5996C78.7365 12.6009 78.8142 12.6743 78.9346 12.791L79.8662 13.709C79.9882 13.8266 80.0675 13.8994 80.0742 13.8994C80.0932 13.8941 80.381 13.6207 80.7188 13.2871C81.5447 12.4711 81.906 12.1514 82 12.1504C82.0272 12.1504 82.0497 12.127 82.0498 12.0986C82.0498 12.0315 82.3808 11.7006 82.4482 11.7002C82.4764 11.7002 82.5 11.6769 82.5 11.6484C82.5 11.5812 82.8312 11.25 82.8984 11.25C82.9266 11.25 82.9502 11.2267 82.9502 11.1982C82.9508 11.1431 83.2756 10.7998 83.3271 10.7998C83.3695 10.799 83.4995 10.6654 83.5 10.6221C83.5 10.5876 83.5619 10.5301 83.8916 10.2607C83.9831 10.1861 84.1114 10.0745 84.1768 10.0127C84.2416 9.95113 84.3088 9.90077 84.3262 9.90039C84.366 9.90039 84.4994 9.76679 84.5 9.72656C84.5 9.70946 84.5555 9.63977 84.623 9.57227L84.7451 9.4502H86.3975C88.0161 9.4502 88.0498 9.4521 88.0498 9.5498C88.0498 9.60491 88.0275 9.65024 88 9.65039C87.9727 9.65039 87.9503 9.67342 87.9502 9.70215C87.9502 9.75959 87.726 9.9987 87.6709 10C87.6346 10 87.5275 10.1153 87.3721 10.3223C87.3191 10.3925 87.2589 10.4502 87.2383 10.4502C87.2158 10.4521 87.0669 10.5805 86.9053 10.7373C86.5219 11.1093 86.2531 11.3496 86.2207 11.3496C86.1828 11.3514 85.9511 11.5882 85.9502 11.626C85.9502 11.668 85.8154 11.7998 85.7725 11.7998C85.7256 11.8008 85.4004 12.1593 85.4004 12.21C85.4002 12.232 85.3771 12.25 85.3496 12.25C85.3204 12.2518 85.0789 12.4709 84.8115 12.7383C84.5431 13.0067 84.2469 13.281 84.1533 13.3477C84.0594 13.4145 83.559 13.8921 83.041 14.4092C82.5277 14.9213 82.0947 15.3414 82.0723 15.3496C82.0576 15.3496 81.9933 15.4008 81.9297 15.4629C81.7225 15.6649 81.5497 15.7998 81.499 15.7998C81.4788 15.8001 81.4616 15.8191 81.4541 15.8457L81.4463 15.9043C81.4387 15.9311 81.4201 15.9502 81.3994 15.9502C81.3673 15.957 81.3496 16.6896 81.3496 18.0498V20.1504H78.7998V18.0498C78.7998 16.6839 78.7824 15.9509 78.75 15.9502C78.7294 15.9502 78.7118 15.9311 78.7041 15.9043L78.6963 15.8457C78.6888 15.819 78.6709 15.8 78.6504 15.7998C78.6231 15.7998 78.4749 15.6814 78.3213 15.5371C77.7719 15.0211 77.64 14.9024 77.6191 14.9004C77.6086 14.9004 77.3074 14.6075 76.9502 14.25C76.5929 13.8924 76.291 13.5996 76.2793 13.5996C76.2448 13.599 76.0158 13.398 75.6396 13.0371C75.447 12.8526 75.2696 12.7014 75.2441 12.7002C75.2202 12.7002 75.2003 12.6769 75.2002 12.6484C75.2002 12.5813 74.8692 12.2503 74.8018 12.25C74.7734 12.25 74.7502 12.232 74.75 12.21C74.75 12.1626 74.4244 11.7998 74.3818 11.7998C74.349 11.7983 74.148 11.6214 73.7285 11.2246C73.5831 11.087 73.4047 10.9294 73.332 10.875C73.2597 10.8204 73.2002 10.7528 73.2002 10.7246C73.1997 10.6962 73.1402 10.6286 73.0674 10.5742C72.8776 10.432 72.6522 10.2173 72.6504 10.1768C72.6504 10.133 72.5168 10 72.4727 10C72.402 9.99965 72.0996 9.6267 72.0996 9.54004C72.0998 9.45509 72.1944 9.4502 73.752 9.4502H75.4043ZM103.05 9.4502V11.5498H94.3496V18.0498H103.05V20.1504H91.75V9.4502H103.05ZM112.55 9.4502C115.632 9.4502 117.785 9.46856 117.8 9.49512C117.8 9.5197 117.907 9.55199 118.037 9.56641C118.436 9.61044 118.599 9.65806 118.6 9.73047C118.6 9.77397 118.655 9.7998 118.75 9.7998C118.832 9.79983 118.899 9.82246 118.899 9.84961C118.899 9.87022 118.919 9.88881 118.945 9.89648L119.004 9.9043C119.022 9.90938 119.036 9.91867 119.044 9.93066L119.056 9.96973C119.068 9.98755 119.096 10 119.129 10C119.243 10.0004 119.699 10.4787 119.7 10.5986C119.7 10.655 119.733 10.7002 119.775 10.7002C119.816 10.7005 119.85 10.7433 119.85 10.7959C119.85 10.8485 119.878 10.9005 119.912 10.9121C119.96 10.928 119.975 11.2791 119.975 12.4395C119.975 13.5772 119.96 13.9604 119.912 14.0078C119.878 14.0421 119.85 14.1108 119.85 14.1602C119.85 14.2094 119.816 14.2497 119.775 14.25C119.734 14.25 119.7 14.2942 119.7 14.3496C119.7 14.4048 119.677 14.4502 119.649 14.4502C119.622 14.4504 119.6 14.4735 119.6 14.502C119.6 14.5698 119.37 14.7998 119.302 14.7998C119.273 14.8 119.25 14.8223 119.25 14.8496C119.25 14.8772 119.205 14.9003 119.15 14.9004C119.095 14.9004 119.05 14.9331 119.05 14.9746C119.05 15.0211 119.003 15.0498 118.925 15.0498C118.856 15.0499 118.8 15.0725 118.8 15.0996C118.8 15.1202 118.775 15.1388 118.739 15.1465L118.661 15.1543C118.625 15.1619 118.6 15.1795 118.6 15.2002C118.599 15.2275 118.521 15.25 118.425 15.25C118.329 15.25 118.25 15.2723 118.25 15.2998C118.25 15.3274 118.126 15.3496 117.975 15.3496C117.764 15.3496 117.7 15.3675 117.7 15.4248C117.7 15.4659 117.722 15.5 117.75 15.5C117.778 15.5 117.8 15.5429 117.8 15.5947C117.8 15.6468 117.834 15.7018 117.875 15.7178C117.916 15.7334 117.95 15.7928 117.95 15.8486C117.95 15.8905 117.963 15.9269 117.98 15.9424L118.02 15.958C118.031 15.9681 118.041 15.9872 118.046 16.0107L118.054 16.0889C118.061 16.1244 118.079 16.149 118.1 16.1494C118.127 16.1494 118.149 16.2067 118.149 16.2754C118.149 16.3439 118.173 16.4004 118.2 16.4004C118.228 16.4006 118.25 16.4426 118.25 16.4941C118.25 16.5463 118.284 16.6023 118.325 16.6182C118.366 16.6338 118.4 16.6924 118.4 16.748C118.4 16.8038 118.423 16.8496 118.45 16.8496C118.478 16.85 118.5 16.8955 118.5 16.9502C118.5 16.9911 118.512 17.0267 118.53 17.042L118.569 17.0576C118.587 17.0728 118.6 17.1089 118.6 17.1504C118.6 17.2052 118.623 17.25 118.65 17.25C118.671 17.2504 118.689 17.2818 118.696 17.3262L118.704 17.4238C118.712 17.4685 118.73 17.5 118.75 17.5C118.778 17.5001 118.8 17.5316 118.8 17.5693C118.8 17.6072 118.834 17.6661 118.875 17.7002C118.916 17.7344 118.95 17.8049 118.95 17.8564C118.95 17.8951 118.963 17.9281 118.98 17.9424L119.02 17.958C119.031 17.9682 119.041 17.9871 119.046 18.0107L119.054 18.0889C119.061 18.1245 119.079 18.1501 119.1 18.1504C119.127 18.1504 119.15 18.2067 119.15 18.2754C119.15 18.344 119.173 18.3994 119.2 18.3994C119.228 18.3998 119.25 18.4431 119.25 18.4951C119.25 18.5469 119.284 18.6026 119.325 18.6182C119.366 18.6342 119.4 18.6925 119.4 18.748C119.4 18.7899 119.413 18.8264 119.431 18.8418L119.47 18.8574C119.482 18.8676 119.491 18.8872 119.496 18.9111L119.504 18.9893C119.512 19.0248 119.529 19.0497 119.55 19.0498C119.577 19.0498 119.6 19.1062 119.6 19.1748C119.6 19.2431 119.622 19.2992 119.649 19.2998C119.677 19.2998 119.7 19.3452 119.7 19.4004C119.7 19.4558 119.734 19.5 119.775 19.5C119.822 19.5003 119.85 19.5473 119.85 19.625C119.85 19.6937 119.873 19.75 119.9 19.75C119.928 19.7507 119.95 19.8406 119.95 19.9502V20.1504L118.562 20.1494H117.175L117.026 19.8252C116.945 19.6464 116.86 19.5 116.839 19.5C116.817 19.4996 116.8 19.4549 116.8 19.4004C116.8 19.3452 116.777 19.2998 116.75 19.2998C116.722 19.2998 116.7 19.2704 116.7 19.2344C116.7 19.1676 116.558 18.8792 116.301 18.4248C116.223 18.2874 116.157 18.1362 116.154 18.0879C116.152 18.0396 116.127 18 116.1 18C116.072 17.9996 116.05 17.9561 116.05 17.9033C116.05 17.8499 116.029 17.7929 116.004 17.7773C115.943 17.7382 115.7 17.2486 115.7 17.165C115.7 17.1296 115.678 17.0999 115.65 17.0996C115.623 17.0996 115.6 17.0549 115.6 17C115.6 16.9448 115.58 16.8994 115.555 16.8994C115.53 16.8989 115.468 16.7981 115.417 16.6748C115.366 16.5514 115.307 16.4502 115.287 16.4502C115.267 16.4496 115.25 16.4056 115.25 16.3525C115.25 16.3125 115.238 16.2699 115.22 16.2441L115.181 16.2051C115.163 16.1793 115.149 16.1367 115.149 16.0967C115.149 16.0435 115.131 16 115.107 16C115.084 15.9997 115.023 15.9039 114.973 15.7871C114.922 15.6706 114.872 15.5641 114.861 15.5498C114.851 15.5363 114.028 15.5135 113.033 15.5L111.225 15.4746L111.212 14.4121L111.198 13.3496H114.124C116.041 13.3496 117.05 13.3328 117.05 13.2998C117.05 13.2725 117.086 13.25 117.129 13.25C117.228 13.2498 117.327 13.1521 117.372 13.0098C117.391 12.9495 117.428 12.9006 117.453 12.9004C117.525 12.9004 117.511 12.0561 117.438 11.9746C117.403 11.9371 117.308 11.8263 117.226 11.7285L117.076 11.5498H110V20.1504H108.681C107.525 20.1504 107.357 20.1404 107.33 20.0713C107.313 20.0278 107.3 17.6196 107.3 14.7207V9.4502H112.55ZM5.9707 12.3994C6.13197 12.2403 7.64991 12.3796 7.65039 12.5537C7.65039 12.5789 7.7011 12.5995 7.76367 12.5996C7.82637 12.5996 7.9106 12.6453 7.9502 12.7002C7.9898 12.7553 8.04939 12.7998 8.08203 12.7998C8.11501 12.8004 8.2015 12.8729 8.27441 12.9619C8.34751 13.0512 8.43883 13.1642 8.47852 13.2129C8.51767 13.261 8.54958 13.3327 8.5498 13.3721C8.5498 13.4111 8.57225 13.4572 8.59961 13.4746C8.62691 13.4914 8.64941 13.5473 8.64941 13.5977C8.64949 13.6479 8.6837 13.7017 8.72461 13.7178C8.77408 13.7367 8.79977 13.8152 8.7998 13.9482C8.7998 14.0584 8.81885 14.1495 8.8418 14.1504C8.86488 14.1504 8.88881 14.296 8.89453 14.4746C8.90113 14.6756 8.88494 14.7998 8.85254 14.7998C8.82351 14.8001 8.79984 14.8989 8.7998 15.0195C8.7998 15.1686 8.77561 15.2488 8.72461 15.2686C8.68074 15.2856 8.64949 15.3603 8.64941 15.4512C8.64941 15.5415 8.62871 15.5932 8.59961 15.5752C8.57213 15.5584 8.5498 15.5796 8.5498 15.6221C8.54974 15.6648 8.52749 15.7001 8.5 15.7002C8.4728 15.7002 8.45036 15.7353 8.4502 15.7783C8.4502 15.8794 8.07796 16.25 7.97656 16.25C7.93448 16.2501 7.89949 16.2726 7.89941 16.2998C7.89941 16.3274 7.86848 16.3496 7.83008 16.3496C7.79173 16.3497 7.74733 16.3835 7.73145 16.4248C7.71555 16.4659 7.64577 16.5 7.57617 16.5C7.50694 16.5001 7.4506 16.5224 7.4502 16.5498C7.4502 16.5771 7.34851 16.5996 7.22461 16.5996C7.10112 16.5996 7 16.6228 7 16.6504C6.99871 16.6784 6.8581 16.7002 6.67773 16.7002C6.50146 16.7002 6.34369 16.6778 6.3252 16.6504C6.3084 16.6228 6.20641 16.5996 6.09961 16.5996C5.9929 16.5996 5.89209 16.5771 5.875 16.5498C5.85811 16.5223 5.80551 16.5 5.75879 16.5C5.71188 16.4998 5.61302 16.4439 5.53906 16.375C5.46498 16.3063 5.37271 16.25 5.33398 16.25C5.24758 16.25 5 16.0088 5 15.9248C4.99957 15.8911 4.94333 15.8219 4.875 15.7705C4.8063 15.7189 4.75 15.6365 4.75 15.5879C4.74997 15.5397 4.72741 15.5001 4.7002 15.5C4.67955 15.5 4.66195 15.4685 4.6543 15.4238L4.64648 15.3262C4.63884 15.2814 4.62028 15.25 4.59961 15.25C4.56885 15.2486 4.54981 14.9737 4.5498 14.5244C4.5498 14.1257 4.57234 13.7542 4.59961 13.6992C4.62717 13.6447 4.67258 13.5556 4.7002 13.501C4.7275 13.4464 4.75 13.3767 4.75 13.3467C4.75038 13.277 4.87678 13.1495 4.94629 13.1494C4.97569 13.1494 5 13.1316 5 13.1094C5.00109 13.0447 5.33313 12.7002 5.39453 12.7002C5.42489 12.7001 5.45001 12.6775 5.4502 12.6504C5.4502 12.6228 5.49497 12.5996 5.5498 12.5996C5.60453 12.5996 5.64912 12.5714 5.64941 12.5361C5.64941 12.501 5.71077 12.4672 5.78516 12.4609C5.85956 12.4549 5.9434 12.4267 5.9707 12.3994ZM22.3496 12.3496C22.7573 12.3496 23.0553 12.3702 23.0752 12.3994C23.092 12.427 23.1497 12.4502 23.2031 12.4502C23.2564 12.4503 23.2998 12.4841 23.2998 12.5254C23.3001 12.5699 23.3462 12.5996 23.4141 12.5996C23.4765 12.5996 23.56 12.6453 23.5996 12.7002C23.6392 12.7553 23.6984 12.7997 23.7305 12.7998C23.7625 12.7998 23.8531 12.8817 23.9316 12.9814C24.0102 13.0816 24.1035 13.1928 24.1377 13.2285C24.1721 13.2639 24.2001 13.328 24.2002 13.3711C24.2002 13.4143 24.2227 13.4502 24.25 13.4502C24.2775 13.4504 24.2998 13.5066 24.2998 13.5752C24.2999 13.6528 24.3282 13.7002 24.375 13.7002C24.4304 13.7002 24.4502 13.7583 24.4502 13.9248C24.4502 14.0483 24.4724 14.1503 24.5 14.1504C24.5282 14.1504 24.5498 14.2915 24.5498 14.4746C24.5498 14.6579 24.5282 14.7998 24.5 14.7998C24.4725 14.7999 24.4503 14.9011 24.4502 15.0244C24.4502 15.1912 24.4305 15.25 24.375 15.25C24.3261 15.25 24.2998 15.2991 24.2998 15.3906C24.2998 15.468 24.2551 15.5796 24.2002 15.6387C24.145 15.6978 24.0996 15.7668 24.0996 15.792C24.0987 15.8741 23.7149 16.2494 23.6309 16.25C23.5865 16.25 23.5499 16.2725 23.5498 16.2998C23.5498 16.3274 23.5188 16.3496 23.4805 16.3496C23.4421 16.3496 23.3975 16.3835 23.3818 16.4248C23.3659 16.4659 23.2962 16.5 23.2266 16.5C23.1572 16.5 23.1 16.5223 23.0996 16.5498C23.0996 16.5771 22.9986 16.5996 22.875 16.5996C22.7511 16.5996 22.6504 16.6228 22.6504 16.6504C22.6491 16.6784 22.5076 16.7002 22.3252 16.7002C22.1428 16.7002 22.0013 16.6784 22 16.6504C22 16.6228 21.8983 16.5996 21.7744 16.5996C21.6515 16.5996 21.5506 16.579 21.5498 16.5537C21.5498 16.5279 21.4877 16.4989 21.4121 16.4902C21.3305 16.4809 21.2805 16.4485 21.2881 16.4092C21.2959 16.3729 21.2807 16.3562 21.2549 16.3721C21.2286 16.3877 21.174 16.3666 21.1328 16.3252C21.0914 16.2838 21.0217 16.25 20.9785 16.25C20.9463 16.25 20.9183 16.2376 20.9062 16.2197L20.8945 16.1807C20.8844 16.1627 20.8605 16.1494 20.833 16.1494C20.7964 16.1489 20.7355 16.0879 20.6973 16.0127C20.6589 15.9371 20.5761 15.8216 20.5137 15.7559C20.4511 15.6903 20.4005 15.6059 20.4004 15.5684C20.4004 15.5309 20.3772 15.5 20.3496 15.5C20.3224 15.4997 20.2998 15.4449 20.2998 15.3779C20.2998 15.3107 20.2776 15.2417 20.25 15.2246C20.2207 15.2058 20.2006 14.9203 20.2012 14.5342C20.2018 13.902 20.2371 13.6868 20.3867 13.4189C20.4194 13.3607 20.4324 13.2986 20.415 13.2812C20.3979 13.2639 20.4224 13.25 20.4697 13.25C20.5168 13.2499 20.5418 13.2276 20.5254 13.2002C20.5083 13.1726 20.5297 13.1494 20.5723 13.1494C20.6148 13.1493 20.6491 13.1269 20.6494 13.0986C20.6494 13.0701 20.7278 12.9684 20.8232 12.873C20.9182 12.7781 21.0188 12.7009 21.0479 12.7002C21.0762 12.7002 21.0994 12.6776 21.0996 12.6504C21.0996 12.6228 21.1423 12.5997 21.1943 12.5996C21.2461 12.5996 21.3026 12.5664 21.3184 12.5254C21.3343 12.484 21.4029 12.4502 21.4707 12.4502C21.5387 12.4501 21.6082 12.427 21.625 12.3994C21.6457 12.3702 21.9427 12.3496 22.3496 12.3496ZM27.4629 13.8682C27.6062 13.7973 28.346 13.7821 28.3496 13.8496C28.3496 13.8769 28.3953 13.8994 28.4502 13.8994C28.5057 13.8996 28.5496 13.9331 28.5498 13.9746C28.5498 14.016 28.5737 14.0498 28.6025 14.0498C28.7147 14.0502 28.8991 14.2974 28.8994 14.4473C28.8994 14.531 28.9226 14.5996 28.9502 14.5996C28.9777 14.6001 29 14.6904 29 14.7998C29 14.9096 28.9777 14.9995 28.9502 15C28.9226 15 28.8994 15.0785 28.8994 15.1748C28.8994 15.2711 28.8812 15.3496 28.8584 15.3496C28.8356 15.3497 28.7869 15.4061 28.75 15.4746C28.7136 15.5432 28.6586 15.599 28.6279 15.5996C28.5976 15.5996 28.5396 15.6453 28.5 15.7002C28.3876 15.8554 27.5301 15.8491 27.3936 15.6924C27.3424 15.6332 27.3 15.6032 27.2998 15.625C27.2998 15.6472 27.255 15.6249 27.2002 15.5752C27.145 15.5254 27.0996 15.4539 27.0996 15.417C27.0995 15.3802 27.077 15.3496 27.0498 15.3496C27.0223 15.3493 27 15.292 27 15.2217C26.9999 15.1495 26.9785 15.1078 26.9502 15.125C26.919 15.1442 26.9004 15.0339 26.9004 14.8281C26.9004 14.6427 26.922 14.5 26.9502 14.5C26.9776 14.4997 26.9999 14.4582 27 14.4072C27 14.3134 27.2258 14.0503 27.3066 14.0498C27.3302 14.0498 27.3495 14.0219 27.3496 13.9873C27.3496 13.9525 27.4008 13.8988 27.4629 13.8682ZM95.5723 13.4141C95.6107 13.3136 102.428 13.3214 102.528 13.4219C102.633 13.5283 102.633 15.4243 102.528 15.5293C102.466 15.5903 101.948 15.599 99.0156 15.5879L95.5752 15.5752L95.5615 14.5264C95.554 13.9506 95.5588 13.4509 95.5723 13.4141ZM1.0498 13.1494C1.29635 13.1494 1.49844 13.168 1.5 13.1904C1.5 13.2126 1.57854 13.262 1.6748 13.2998C1.7711 13.3376 1.84961 13.3986 1.84961 13.4346C1.84972 13.4703 1.87238 13.4997 1.89941 13.5C1.92682 13.5 1.94729 13.5166 1.94434 13.5371C1.92486 13.6608 1.95748 13.801 2 13.7754C2.03149 13.7559 2.04979 13.8734 2.0498 14.0938C2.0498 14.286 2.02724 14.457 2 14.4746C1.97242 14.4917 1.94918 14.555 1.94824 14.6152C1.94645 14.7335 1.84241 14.8997 1.76953 14.9004C1.74465 14.9004 1.66293 14.9558 1.58887 15.0244C1.44607 15.157 0.599609 15.2214 0.599609 15.0996C0.599373 15.0793 0.574624 15.0613 0.539062 15.0537L0.460938 15.0459C0.425071 15.0377 0.399414 15.0181 0.399414 14.9961C0.399017 14.933 0.275125 14.8004 0.21582 14.7998C0.119885 14.7986 0.0498047 14.5014 0.0498047 14.0957V13.6621L0.244141 13.4561C0.350926 13.3427 0.47484 13.25 0.519531 13.25C0.563693 13.2499 0.599432 13.2276 0.599609 13.2002C0.599609 13.1705 0.783183 13.1494 1.0498 13.1494ZM3.47461 8.7832C3.666 8.73199 4.51441 8.7773 4.53809 8.83984C4.54918 8.87281 4.59137 8.90034 4.63184 8.90039C4.67204 8.90039 4.77733 8.9673 4.86523 9.0498C4.9531 9.13196 5.04181 9.1999 5.0625 9.2002C5.08318 9.20025 5.09961 9.23403 5.09961 9.27539C5.09972 9.31636 5.12286 9.34961 5.15039 9.34961C5.17754 9.34998 5.2002 9.39552 5.2002 9.4502C5.20025 9.505 5.22243 9.5498 5.25 9.5498C5.28026 9.55004 5.29979 9.76677 5.2998 10.0996C5.2998 10.4327 5.28027 10.6502 5.25 10.6504C5.22241 10.6504 5.20021 10.6959 5.2002 10.752C5.2002 10.8567 5.15744 10.9226 4.96484 11.1152C4.79396 11.2858 4.70902 11.3494 4.65234 11.3496C4.62354 11.3496 4.59961 11.3728 4.59961 11.4004C4.59861 11.4278 4.49676 11.4502 4.37207 11.4502C4.23292 11.4502 4.15598 11.4697 4.1748 11.5C4.1934 11.5303 4.12645 11.5498 4.00586 11.5498C3.89576 11.5498 3.79151 11.5276 3.77441 11.5C3.75735 11.4728 3.64341 11.4502 3.52148 11.4502C3.40017 11.4501 3.30074 11.4278 3.2998 11.4004C3.2998 11.3728 3.2642 11.3496 3.2207 11.3496C3.1191 11.3488 2.75 10.9782 2.75 10.877C2.74995 10.8345 2.72765 10.8 2.7002 10.7998C2.67261 10.7998 2.64943 10.731 2.64941 10.6465C2.64941 10.5624 2.61648 10.4595 2.5752 10.418C2.5272 10.3697 2.5 10.2459 2.5 10.0713C2.5 9.86339 2.5179 9.7998 2.5752 9.7998C2.62743 9.79957 2.6494 9.74705 2.64941 9.625C2.64941 9.5287 2.6726 9.4502 2.7002 9.4502C2.72768 9.44993 2.75 9.40435 2.75 9.34961C2.75013 9.29466 2.7726 9.25005 2.7998 9.25C2.8274 9.25 2.84961 9.22569 2.84961 9.19629C2.84986 9.12694 2.97764 9 3.04688 9C3.07597 8.99978 3.09944 8.97752 3.09961 8.9502C3.09961 8.92297 3.14013 8.90051 3.18945 8.90039C3.23892 8.90039 3.30101 8.87937 3.32715 8.85449C3.3532 8.82964 3.41977 8.79794 3.47461 8.7832ZM25.0254 8.64941C25.1485 8.64945 25.2495 8.67052 25.25 8.69531C25.25 8.72051 25.3404 8.75679 25.4502 8.77539C25.5601 8.79401 25.6504 8.82932 25.6504 8.85449C25.6504 8.87935 25.6891 8.90032 25.7373 8.90039C25.8414 8.90039 26.0996 9.11139 26.0996 9.19629C26.0997 9.22922 26.1228 9.24169 26.1504 9.22461C26.1775 9.20807 26.2002 9.23857 26.2002 9.29199C26.2004 9.34538 26.2336 9.40187 26.2744 9.41797C26.3157 9.43352 26.3494 9.49076 26.3496 9.54492C26.3496 9.59922 26.3728 9.6577 26.4004 9.6748C26.4279 9.69286 26.4502 9.89638 26.4502 10.1279C26.4502 10.3747 26.4295 10.548 26.4004 10.5498C26.3728 10.5498 26.3496 10.6039 26.3496 10.6699C26.3496 10.7356 26.3158 10.8028 26.2744 10.8184C26.2337 10.8344 26.2004 10.8763 26.2002 10.9121C26.2002 10.9481 26.1545 11.0102 26.0996 11.0498C26.0449 11.0893 26.0002 11.1493 26 11.1826C26 11.2159 25.9213 11.2718 25.8252 11.3066C25.7292 11.3414 25.6504 11.3883 25.6504 11.4102C25.6486 11.4323 25.3787 11.4502 25.0498 11.4502C24.6849 11.4502 24.4523 11.4307 24.4502 11.4004C24.4502 11.3728 24.394 11.3497 24.3252 11.3496C24.2565 11.3496 24.2002 11.3289 24.2002 11.3037C24.1995 11.2776 24.0978 11.1567 23.9746 11.0332C23.8507 10.9096 23.75 10.772 23.75 10.7285C23.7499 10.6852 23.73 10.6504 23.7061 10.6504C23.642 10.6485 23.6337 9.66569 23.6973 9.62598C23.7261 9.60828 23.75 9.53888 23.75 9.47168C23.7501 9.3968 23.779 9.34961 23.8252 9.34961C23.8662 9.34957 23.9004 9.33144 23.9004 9.30957C23.9016 9.24821 24.2293 8.90226 24.2881 8.90039C24.3157 8.90039 24.4026 8.86626 24.4814 8.8252C24.5603 8.7841 24.6649 8.75 24.7129 8.75C24.7606 8.74957 24.7996 8.72762 24.7998 8.7002C24.7998 8.6726 24.9015 8.64941 25.0254 8.64941ZM8.48828 6.81152C8.52006 6.71648 9.36828 6.72777 9.44922 6.82422C9.48327 6.86514 9.53059 6.88669 9.55469 6.87207C9.59427 6.84778 9.71449 6.89057 10.0996 7.06738C10.1683 7.09888 10.2765 7.17551 10.3398 7.2373C10.4025 7.29879 10.4752 7.3491 10.502 7.34961C10.5281 7.34961 10.5498 7.37497 10.5498 7.40527C10.5504 7.43601 10.6288 7.53894 10.7246 7.63477C10.8209 7.73107 10.8994 7.85307 10.8994 7.90527C10.8995 7.95735 10.9226 8 10.9502 8C10.9776 8.00041 10.9999 8.06914 11 8.15332C11 8.23762 11.0338 8.34073 11.0752 8.38184C11.1322 8.43914 11.1504 8.58207 11.1504 8.98047C11.1504 9.39901 11.1352 9.50912 11.0752 9.53223C11.0287 9.54993 11 9.62607 11 9.73047C11 9.82367 10.9777 9.89995 10.9502 9.90039C10.9226 9.90039 10.8994 9.94359 10.8994 9.99609C10.8993 10.0487 10.879 10.0994 10.8535 10.1084C10.8281 10.1178 10.8 10.1585 10.791 10.1992C10.7696 10.2943 10.4209 10.6504 10.3486 10.6504C10.3187 10.6506 10.308 10.6718 10.3242 10.6982C10.3407 10.7249 10.2965 10.7616 10.2266 10.7793C10.1569 10.7967 10.0996 10.8309 10.0996 10.8555C10.0996 10.8797 10.0551 10.8994 10 10.8994C9.9451 10.8994 9.90039 10.9226 9.90039 10.9502C9.90012 10.9777 9.84325 11 9.77441 11C9.70599 11.0001 9.65051 11.0226 9.65039 11.0498C9.65039 11.0807 9.39987 11.0996 9 11.0996C8.6001 11.0996 8.34961 11.0807 8.34961 11.0498C8.34944 11.0225 8.271 11 8.1748 11C8.0788 11 8.00038 10.9777 8 10.9502C8 10.9226 7.96297 10.8994 7.91797 10.8994C7.87297 10.8993 7.7845 10.8439 7.7207 10.7754C7.6571 10.7067 7.57838 10.6504 7.54688 10.6504C7.47924 10.6491 7.20094 10.362 7.2002 10.293C7.2002 10.2672 7.15451 10.1978 7.09961 10.1387C7.04446 10.0796 7 9.98906 7 9.9375C7 9.88629 6.97743 9.85809 6.9502 9.875C6.9085 9.9005 6.86985 9.6373 6.89355 9.4873C6.89672 9.46674 6.87188 9.45612 6.83789 9.46289C6.79141 9.47219 6.77261 9.34269 6.7666 8.96289C6.76031 8.55274 6.773 8.45061 6.8291 8.4502C6.8762 8.4502 6.90039 8.39171 6.90039 8.27441C6.90047 8.17833 6.92264 8.09961 6.9502 8.09961C6.97058 8.09949 6.98849 8.07471 6.99609 8.03906L7.00391 7.96094C7.01154 7.9252 7.02921 7.89953 7.0498 7.89941C7.07733 7.89941 7.09948 7.85366 7.09961 7.79688C7.09961 7.69878 7.20579 7.5498 7.27539 7.5498C7.31701 7.54885 7.4502 7.41633 7.4502 7.37598C7.45116 7.30153 7.70503 7.09961 7.79785 7.09961C7.84001 7.09955 7.87608 7.08725 7.8916 7.06934L7.90723 7.03027C7.92188 7.01233 7.95653 7 7.99609 7C8.04851 6.99992 8.10017 6.97459 8.11035 6.94434C8.1182 6.92177 8.1673 6.90016 8.23047 6.88867L8.36523 6.87305C8.42914 6.86075 8.47978 6.83669 8.48828 6.81152ZM19.5342 6.81836C19.5748 6.71704 20.4799 6.72775 20.5205 6.83008C20.5346 6.86745 20.5794 6.88573 20.6201 6.87012C20.6609 6.85452 20.7579 6.87454 20.835 6.91504C20.9121 6.95524 21.0422 7.01917 21.124 7.05664C21.2866 7.13134 21.466 7.26791 21.6055 7.4248C21.8606 7.71162 21.9497 7.82964 21.9502 7.88086C21.9505 7.91206 21.984 7.9658 22.0254 8C22.0664 8.03429 22.0996 8.12584 22.0996 8.20312C22.0996 8.28019 22.1223 8.35746 22.1494 8.375C22.1782 8.3927 22.2002 8.65092 22.2002 8.97852C22.2002 9.32627 22.18 9.5498 22.1494 9.5498C22.1223 9.55053 22.0997 9.61944 22.0996 9.70312C22.0996 9.78772 22.0716 9.88866 22.0371 9.92676C21.8842 10.0976 21.8496 10.1499 21.8496 10.2129C21.8496 10.3016 21.3413 10.7993 21.25 10.7998C21.2229 10.7998 21.2005 10.8222 21.2002 10.8496C21.2002 10.8769 21.1438 10.8994 21.0752 10.8994C21.0237 10.8994 20.9791 10.9127 20.96 10.9307L20.9404 10.9697C20.9215 10.9877 20.8767 11 20.8252 11C20.7566 11 20.7003 11.0225 20.7002 11.0498C20.7002 11.0807 20.45 11.0996 20.0498 11.0996C19.6499 11.0996 19.4004 11.0807 19.4004 11.0498C19.4002 11.0225 19.3208 11 19.2246 11C19.1287 11 19.0502 10.9777 19.0498 10.9502C19.0498 10.9226 19.0128 10.8994 18.9678 10.8994C18.923 10.8992 18.834 10.8439 18.7705 10.7754C18.7066 10.7067 18.6183 10.6504 18.5742 10.6504C18.5303 10.6503 18.5061 10.6308 18.5205 10.6074C18.5349 10.5843 18.4905 10.5352 18.4229 10.499C18.3552 10.4627 18.2998 10.394 18.2998 10.3467C18.2996 10.2994 18.2648 10.2469 18.2217 10.2305C18.1788 10.214 18.1577 10.178 18.1748 10.1504C18.1918 10.1225 18.1694 10.0996 18.125 10.0996C18.0803 10.0996 18.0552 10.0811 18.0693 10.0586C18.0829 10.0355 18.0622 9.9545 18.0225 9.87793C17.9827 9.80133 17.9504 9.69797 17.9502 9.64746C17.9502 9.59762 17.9275 9.54279 17.9004 9.52539C17.8722 9.50799 17.8496 9.26568 17.8496 8.97168C17.8496 8.65721 17.8701 8.4502 17.9004 8.4502C17.9275 8.44955 17.9502 8.37032 17.9502 8.27441C17.9503 8.17833 17.9724 8.09961 18 8.09961C18.0206 8.09957 18.0383 8.07473 18.0459 8.03906L18.0537 7.96094C18.0613 7.92521 18.0793 7.89961 18.0996 7.89941C18.1271 7.89941 18.1502 7.86714 18.1504 7.82715C18.1504 7.78665 18.2289 7.67442 18.3252 7.57812C18.4212 7.48212 18.4997 7.38431 18.5 7.36035C18.5 7.34828 18.5143 7.32965 18.5371 7.30957L18.7129 7.19043C18.7356 7.17074 18.7499 7.15304 18.75 7.1416C18.75 7.11883 18.7948 7.09966 18.8496 7.09961C18.8912 7.09961 18.9272 7.08741 18.9424 7.06934L18.958 7.03027C18.9738 7.01232 19.011 7 19.0537 7C19.1107 6.99993 19.1929 6.96436 19.2363 6.9209C19.2798 6.87795 19.3575 6.85364 19.4102 6.86719C19.4666 6.88189 19.5177 6.86186 19.5342 6.81836ZM13.7998 4.59961C13.8036 4.53627 15.1182 4.53249 15.2383 4.5957C15.2861 4.62093 15.4048 4.6758 15.502 4.71777C15.5991 4.7598 15.734 4.84367 15.8018 4.90332C15.8696 4.963 15.9754 5.04588 16.0371 5.08691C16.099 5.1282 16.1491 5.19233 16.1494 5.23047C16.1494 5.26857 16.1726 5.2998 16.2002 5.2998C16.2276 5.30001 16.2499 5.33523 16.25 5.37793C16.25 5.42053 16.2721 5.44228 16.2988 5.42578C16.3255 5.40989 16.3613 5.45385 16.3789 5.52344C16.3963 5.59299 16.4308 5.64914 16.4551 5.64941C16.4797 5.64941 16.5 5.69368 16.5 5.74707C16.5 5.80039 16.5223 5.8581 16.5498 5.875C16.5771 5.89208 16.5996 5.99291 16.5996 6.09961C16.5996 6.20641 16.6228 6.3084 16.6504 6.3252C16.6778 6.34373 16.7002 6.50297 16.7002 6.68066C16.7002 6.88404 16.6818 6.99366 16.6504 6.97461C16.6195 6.95571 16.5996 7.04127 16.5996 7.19727C16.5996 7.33634 16.5771 7.4502 16.5498 7.4502C16.5223 7.45054 16.5 7.50746 16.5 7.57715C16.5 7.64696 16.4439 7.76447 16.375 7.83887C16.3063 7.91297 16.25 7.99177 16.25 8.01367C16.2497 8.13262 15.5796 8.64941 15.4258 8.64941C15.3842 8.64947 15.3496 8.67263 15.3496 8.7002C15.3491 8.7277 15.2505 8.75 15.1299 8.75C14.981 8.75003 14.9016 8.77423 14.8818 8.8252C14.8602 8.88184 14.7686 8.90038 14.5078 8.90039C14.2618 8.90039 14.144 8.8786 14.0996 8.8252C14.0653 8.78387 13.9617 8.75005 13.8691 8.75C13.7764 8.75 13.7006 8.7277 13.7002 8.7002C13.7002 8.6726 13.6323 8.64941 13.5498 8.64941C13.4674 8.64937 13.4004 8.62688 13.4004 8.59961C13.4001 8.57919 13.381 8.56132 13.3545 8.55371L13.2959 8.5459C13.269 8.53829 13.2501 8.52065 13.25 8.5C13.25 8.4728 13.2215 8.45035 13.1865 8.4502C13.1514 8.4502 13.0857 8.4103 13.041 8.3623C12.9963 8.31432 12.9014 8.22199 12.8301 8.15723C12.7587 8.09243 12.7002 8.00813 12.7002 7.96973C12.7002 7.93152 12.6775 7.89967 12.6504 7.89941C12.6228 7.89941 12.5997 7.84396 12.5996 7.77539C12.5996 7.70669 12.5716 7.65039 12.5371 7.65039C12.4208 7.65008 12.3496 7.26251 12.3496 6.62598C12.3496 6.28387 12.3672 6.00323 12.3887 6C12.4103 6 12.4335 5.9379 12.4395 5.8623C12.4455 5.78678 12.4843 5.6995 12.5254 5.66895C12.5665 5.63857 12.5995 5.57703 12.5996 5.53223C12.5996 5.48723 12.6228 5.4502 12.6504 5.4502C12.6775 5.45 12.7002 5.42614 12.7002 5.39746C12.7005 5.32949 12.9303 5.09961 12.998 5.09961C13.0267 5.09947 13.0498 5.08026 13.0498 5.05664C13.0501 4.97622 13.3124 4.75064 13.4062 4.75C13.4575 4.75 13.4999 4.72745 13.5 4.7002C13.5 4.6726 13.5679 4.65039 13.6504 4.65039C13.7327 4.65031 13.7998 4.62716 13.7998 4.59961ZM24.2754 4.2002C24.4916 4.20022 24.6501 4.22096 24.6504 4.25C24.6504 4.27724 24.691 4.2997 24.7412 4.2998C24.8366 4.2998 25.0995 4.5587 25.0996 4.65234C25.0996 4.68167 25.1196 4.69354 25.1436 4.67871C25.289 4.58874 25.2032 5.69711 25.0527 5.85547C24.969 5.94307 24.9004 6.03422 24.9004 6.05762C24.9001 6.08083 24.866 6.09953 24.8252 6.09961C24.7838 6.09961 24.75 6.12279 24.75 6.15039C24.7471 6.23633 23.8064 6.21269 23.7178 6.12402C23.6764 6.08264 23.6212 6.06155 23.5957 6.07715C23.5705 6.09274 23.5498 6.0876 23.5498 6.06543C23.5498 6.05431 23.5355 6.02792 23.5127 5.99414L23.376 5.81641C23.3314 5.75101 23.3 5.68249 23.2998 5.64551C23.2998 5.59671 23.2775 5.54231 23.25 5.52539C23.1117 5.43989 23.2163 4.82753 23.4014 4.64062C23.4418 4.59985 23.5196 4.50677 23.5742 4.43359C23.6309 4.35769 23.7226 4.2998 23.7871 4.2998C23.8491 4.29977 23.9004 4.27728 23.9004 4.25C23.9007 4.22095 24.0587 4.2002 24.2754 4.2002ZM5.6875 3.75L5.94434 3.99414L6.2002 4.23828V4.71973C6.20018 5.00524 6.18014 5.19839 6.15039 5.2002C6.12279 5.2002 6.09961 5.2376 6.09961 5.2832C6.09919 5.37819 5.81505 5.64941 5.71582 5.64941C5.67953 5.64943 5.64941 5.6726 5.64941 5.7002C5.6486 5.72918 5.4828 5.75 5.25 5.75C5.01711 5.75 4.85033 5.7292 4.84961 5.7002C4.84961 5.67265 4.80582 5.6495 4.75195 5.64941C4.69799 5.64941 4.57373 5.57073 4.47656 5.47363C4.37936 5.37673 4.2998 5.25224 4.2998 5.19824C4.29976 5.14431 4.27727 5.09961 4.25 5.09961C4.22093 5.09942 4.2002 4.94108 4.2002 4.72461C4.20022 4.50832 4.22094 4.34978 4.25 4.34961C4.27726 4.34961 4.29974 4.30691 4.2998 4.25391C4.2998 4.14232 4.57398 3.84968 4.67871 3.84961C4.71801 3.84961 4.75 3.8271 4.75 3.7998C4.75124 3.76997 4.94037 3.75 5.21875 3.75H5.6875ZM9.7998 2.58301C9.80088 2.47927 10.3901 2.46918 10.4307 2.57227C10.4492 2.62113 10.5229 2.64937 10.6299 2.64941C10.7235 2.64941 10.7998 2.6726 10.7998 2.7002C10.8 2.7277 10.8322 2.75 10.8711 2.75C10.9105 2.75052 11.0387 2.84072 11.1562 2.9502C11.274 3.06019 11.3516 3.15039 11.3291 3.15039C11.3072 3.15098 11.325 3.206 11.3691 3.27344C11.4138 3.34127 11.4502 3.47611 11.4502 3.57324C11.4502 3.64628 11.4626 3.7095 11.4805 3.73633L11.5195 3.76367C11.5374 3.78996 11.5498 3.85116 11.5498 3.92188C11.5498 4.01655 11.5276 4.10773 11.5 4.125C11.4727 4.14208 11.4503 4.24441 11.4502 4.35254C11.4502 4.46025 11.4278 4.54884 11.4004 4.5498C11.3728 4.5498 11.3497 4.58446 11.3496 4.62695C11.3496 4.70732 11.2993 4.7805 11.1152 4.96484C10.9217 5.15804 10.8564 5.2002 10.749 5.2002C10.6913 5.20025 10.658 5.22244 10.6748 5.25C10.6949 5.2821 10.5005 5.2998 10.1279 5.2998C9.77606 5.2998 9.54983 5.2803 9.5498 5.25C9.5498 5.22249 9.51468 5.20034 9.47168 5.2002C9.42856 5.2002 9.36349 5.17211 9.32715 5.1377C9.29088 5.10323 9.20252 5.03235 9.13086 4.98047C9.05939 4.92844 9.00038 4.85597 9 4.81836C9 4.78086 8.98186 4.75 8.95996 4.75C8.91012 4.74965 8.7998 4.45238 8.7998 4.31836C8.79975 4.26375 8.76673 4.17543 8.72656 4.12207C8.63059 3.9955 8.62958 3.80424 8.72461 3.76758C8.77561 3.74808 8.7998 3.66863 8.7998 3.51953C8.79981 3.39915 8.82217 3.3006 8.84961 3.2998C8.87025 3.2998 8.88883 3.27492 8.89648 3.23926L8.9043 3.16113C8.91191 3.12523 8.92974 3.09961 8.9502 3.09961C8.97752 3.09941 8.99981 3.07598 9 3.04688C9 2.97763 9.12695 2.8498 9.19629 2.84961C9.22569 2.84961 9.25 2.8274 9.25 2.7998C9.2501 2.77262 9.29467 2.75012 9.34961 2.75C9.40438 2.75 9.44998 2.7277 9.4502 2.7002C9.4502 2.6726 9.5287 2.64941 9.625 2.64941C9.7377 2.64939 9.7998 2.62589 9.7998 2.58301ZM18.5596 2.55469C18.722 2.46072 19.2416 2.49265 19.1719 2.60547C19.1569 2.63 19.2247 2.64941 19.3223 2.64941C19.42 2.64945 19.5 2.67262 19.5 2.7002C19.5002 2.7277 19.5463 2.75 19.6025 2.75C19.7092 2.75037 19.9502 2.95673 19.9502 3.04785C19.9503 3.07656 19.9725 3.09958 20 3.09961C20.0273 3.09961 20.0498 3.145 20.0498 3.2002C20.0498 3.25565 20.0833 3.2998 20.125 3.2998C20.1774 3.29991 20.2002 3.35283 20.2002 3.47461C20.2002 3.57086 20.2184 3.6503 20.2412 3.65039C20.264 3.65039 20.2876 3.77365 20.2939 3.9248C20.3005 4.09052 20.2843 4.19956 20.2529 4.2002C20.2238 4.2002 20.2002 4.27388 20.2002 4.36328C20.2001 4.46786 20.1552 4.57484 20.0752 4.66113C20.0065 4.73521 19.9502 4.82098 19.9502 4.85156C19.9496 4.95432 19.6156 5.2002 19.4766 5.2002C19.4344 5.2003 19.4004 5.22246 19.4004 5.25C19.4004 5.2803 19.1829 5.2998 18.8496 5.2998C18.5165 5.2998 18.2998 5.28029 18.2998 5.25C18.2998 5.2224 18.2533 5.2002 18.1963 5.2002C18.0992 5.20008 17.9504 5.09503 17.9502 5.02637C17.9502 4.9748 17.7083 4.75025 17.6523 4.75C17.6235 4.75 17.5996 4.6937 17.5996 4.625C17.5996 4.55634 17.5774 4.5 17.5498 4.5C17.5196 4.49931 17.5 4.28221 17.5 3.94824C17.5 3.39989 17.5314 3.27701 17.7246 3.07031C17.7528 3.03994 17.8197 2.95566 17.874 2.88281C17.9307 2.80703 18.0225 2.75002 18.0869 2.75C18.1489 2.75 18.2 2.7277 18.2002 2.7002C18.2002 2.67264 18.2578 2.64948 18.3281 2.64941C18.3813 2.64941 18.4466 2.63143 18.4932 2.60449L18.5596 2.55469ZM14.875 0.0498047C15.1574 0.0498118 15.3483 0.0700818 15.3496 0.0996094C15.3496 0.120254 15.3687 0.138829 15.3955 0.146484L15.4541 0.154297C15.481 0.162634 15.5 0.18235 15.5 0.205078C15.5003 0.235539 15.5681 0.322482 15.6504 0.399414C15.8055 0.544597 15.8921 1.49977 15.75 1.5C15.7224 1.5 15.7002 1.53816 15.7002 1.58496C15.7001 1.69769 15.4543 1.94974 15.3438 1.9502C15.2957 1.9502 15.2417 1.9724 15.2246 2C15.2072 2.02726 15.0373 2.0498 14.8467 2.0498C14.6488 2.04979 14.5 2.02849 14.5 2C14.4999 1.97939 14.4684 1.96174 14.4238 1.9541L14.3262 1.94629C14.2815 1.93864 14.25 1.92007 14.25 1.89941C14.2496 1.87241 14.2154 1.84974 14.1738 1.84961C14.1316 1.84961 14.0818 1.8106 14.0635 1.7627C14.0449 1.71477 13.9783 1.59909 13.915 1.50586C13.7731 1.29676 13.7448 0.667964 13.875 0.618164C13.9159 0.602221 13.9379 0.570587 13.9238 0.547852C13.9098 0.524541 13.9553 0.44996 14.0244 0.380859C14.0937 0.311559 14.1504 0.230948 14.1504 0.202148C14.1505 0.173431 14.206 0.150489 14.2744 0.150391C14.3434 0.150391 14.4004 0.127209 14.4004 0.0996094C14.4017 0.0700765 14.5928 0.0498047 14.875 0.0498047Z" fill="#171A20"/>
</g>
<defs>
<clipPath id="clip0_55_2">
<rect width="120" height="28.9655" fill="white"/>
</clipPath>
</defs>
</svg>
