<svg width="50" height="50" viewBox="0 0 50 50" fill="none" xmlns="http://www.w3.org/2000/svg">
<path d="M24.4738 23.7264C24.0104 23.7264 23.5659 23.9106 23.2382 24.2382C22.9106 24.5659 22.7264 25.0104 22.7264 25.4738C22.7264 25.9372 22.9106 26.3817 23.2382 26.7094C23.5659 27.037 24.0104 27.2212 24.4738 27.2212C24.9372 27.2212 25.3817 27.037 25.7094 26.7094C26.037 26.3817 26.2212 25.9372 26.2212 25.4738C26.2212 25.0104 26.037 24.5659 25.7094 24.2382C25.3817 23.9106 24.9372 23.7264 24.4738 23.7264ZM25.3475 8C33.2107 8 33.4029 14.2381 29.2791 16.3C27.5492 17.1563 26.7803 18.991 26.4483 20.6161C27.2871 20.9656 28.021 21.5072 28.5801 22.2062C35.0454 18.7114 42 20.0919 42 26.3475C42 34.2107 35.7619 34.3854 33.6999 30.2441C32.8263 28.5142 30.974 27.7454 29.349 27.4134C28.9995 28.2521 28.4578 28.9685 27.7589 29.5627C31.2361 36.0105 29.8557 42.9476 23.6001 42.9476C15.7369 42.9476 15.5796 36.692 19.7034 34.6301C21.4159 33.7738 22.1847 31.9566 22.5342 30.349C21.678 29.9995 20.9266 29.4403 20.3674 28.7414C13.9196 32.2012 7 30.8382 7 24.6001C7 16.7369 13.2207 16.5447 15.2826 20.686C16.1563 22.4159 17.991 23.1672 19.6161 23.4993C19.9481 22.6605 20.5072 21.9266 21.2237 21.3674C17.7464 14.9196 19.1268 8 25.3475 8Z" fill="#0F8DFF" fill-opacity="0.8"/>
</svg>
