<svg width="50" height="50" viewBox="0 0 50 50" fill="none" xmlns="http://www.w3.org/2000/svg">
<path fill-rule="evenodd" clip-rule="evenodd" d="M21.5191 37.4448C21.6594 37.6952 21.5688 38.0112 21.3185 38.1515C21.0664 38.29 20.7503 38.1994 20.61 37.9491C19.4453 35.8539 20.056 34.8702 20.6189 33.9629C21.0007 33.3468 21.3522 32.7804 20.4378 31.5428C20.0063 30.9374 19.8536 30.1739 20.0223 29.4494C20.1875 28.6664 20.6029 27.958 21.2031 27.4306C21.5476 27.1554 21.6754 26.6902 21.5174 26.2782C21.3221 25.7687 21.0326 25.2999 20.6651 24.8968C20.6545 24.8826 20.6438 24.8684 20.6331 24.8525L20.5177 24.6891V24.6909C20.3526 24.4547 20.4094 24.1316 20.6438 23.9664C20.8799 23.7995 21.2031 23.8563 21.3682 24.0925L21.4766 24.2452V24.2434C21.9293 24.7495 22.2791 25.3354 22.5117 25.971C22.8135 26.7754 22.5596 27.6845 21.8831 28.2154C21.457 28.5918 21.1623 29.096 21.0451 29.6536C20.9385 30.0922 21.022 30.5556 21.2777 30.9285C22.6058 32.7306 22.0784 33.5811 21.5032 34.5098C21.0948 35.1685 20.6509 35.8823 21.5191 37.4448ZM25.2691 37.4448C25.4094 37.6952 25.3188 38.0112 25.0667 38.1515C24.8164 38.29 24.5003 38.1994 24.36 37.9491C23.197 35.8539 23.806 34.8702 24.3689 33.9629C24.7524 33.3468 25.1022 32.7804 24.1878 31.5428C23.7546 30.9374 23.6036 30.1739 23.7723 29.4494C23.9375 28.6664 24.3529 27.958 24.9549 27.4306C25.2993 27.1554 25.4254 26.6902 25.2691 26.2782C25.0738 25.7687 24.7844 25.2999 24.4169 24.8968C24.4062 24.8826 24.3938 24.8684 24.3849 24.8542L24.2695 24.6909C24.1044 24.4547 24.1612 24.1316 24.3956 23.9664C24.6317 23.7995 24.9549 23.8563 25.12 24.0925L25.2266 24.2452L25.2283 24.2434C25.6793 24.7495 26.0309 25.3354 26.2635 25.971C26.5653 26.7754 26.3114 27.6845 25.6367 28.2154C25.2088 28.5918 24.9158 29.096 24.7986 29.6536C24.6903 30.0922 24.7755 30.5556 25.0312 30.9285C26.3593 32.7306 25.832 33.5811 25.2549 34.5098C24.8465 35.1685 24.4027 35.8823 25.2709 37.4448L25.2691 37.4448ZM29.0191 37.4448C29.1594 37.6952 29.0688 38.0112 28.8167 38.1515C28.5664 38.29 28.2503 38.1994 28.11 37.9491C26.9453 35.8539 27.556 34.8702 28.1189 33.9629C28.5024 33.3468 28.8522 32.7804 27.9378 31.5428C27.5046 30.9374 27.3536 30.1739 27.5205 29.4494C27.6875 28.6664 28.1011 27.958 28.7013 27.4306C29.0458 27.1554 29.1719 26.6902 29.0156 26.2782C28.8203 25.7687 28.5309 25.2999 28.1633 24.8968C28.1509 24.8826 28.1402 24.8684 28.1314 24.8542L28.016 24.6909C27.8508 24.4547 27.9076 24.1316 28.142 23.9664C28.3764 23.7995 28.7013 23.8563 28.8665 24.0925L28.9748 24.2452V24.2434C29.4258 24.7495 29.7773 25.3354 30.0099 25.971C30.31 26.7754 30.0561 27.6845 29.3814 28.2154C28.9552 28.5918 28.6623 29.096 28.5451 29.6536C28.4386 30.0922 28.522 30.5556 28.7777 30.9285C30.1058 32.7306 29.5785 33.5811 29.005 34.5098C28.5966 35.1685 28.1527 35.8823 29.021 37.4448L29.0191 37.4448ZM32.7691 37.4448C32.9076 37.6952 32.8171 38.0112 32.5667 38.1515C32.3164 38.29 31.9985 38.1994 31.86 37.9491C30.6953 35.8539 31.306 34.8702 31.8689 33.9629C32.2507 33.3468 32.6022 32.7804 31.6878 31.5428C31.2546 30.9374 31.1036 30.1757 31.2723 29.4494C31.4392 28.6664 31.8529 27.9597 32.4549 27.4306C32.7993 27.1554 32.9254 26.6902 32.7691 26.2782C32.5738 25.7687 32.2844 25.2999 31.9169 24.8968C31.9044 24.8826 31.8938 24.8684 31.8849 24.8542L31.7695 24.6909C31.6861 24.579 31.6523 24.437 31.6754 24.2985C31.6967 24.1618 31.7748 24.0375 31.8885 23.9576C32.0039 23.8777 32.1459 23.8457 32.2826 23.8706C32.4211 23.8972 32.5419 23.9771 32.62 24.0925L32.7283 24.2452C33.1793 24.7495 33.5309 25.3354 33.7617 25.9728C34.0635 26.7772 33.8096 27.6845 33.1349 28.2154C32.707 28.5918 32.414 29.0961 32.2968 29.6536C32.1885 30.0922 32.2737 30.5556 32.5294 30.9285C33.8575 32.7307 33.3302 33.5812 32.7531 34.5098C32.3448 35.1685 31.9009 35.8823 32.7691 37.4448ZM8.00005 19.4957L24.756 9.82071C24.9211 9.7124 25.1341 9.70529 25.3064 9.80473L42.0909 19.4956V17.3436L25.0455 7.5L8 17.3418L8.00005 19.4957ZM26.4641 14.5862C27.1424 15.2627 27.249 16.3244 26.718 17.1217C26.1871 17.9189 25.1662 18.2296 24.2802 17.8638C23.396 17.4981 22.8917 16.5588 23.0781 15.6178C23.2628 14.6785 24.0867 14.002 25.0454 14.0002C25.5781 14.0002 26.0877 14.2097 26.4641 14.5862ZM25.0455 12.958C26.4996 12.958 27.7514 13.986 28.0355 15.4118C28.3196 16.8393 27.5561 18.2669 26.212 18.8244C24.8679 19.3802 23.3178 18.9097 22.51 17.7005C21.7021 16.4913 21.8619 14.8791 22.8899 13.851C23.4617 13.2793 24.2375 12.958 25.0455 12.958ZM42.0909 41.4575H8V42.8513H42.0909V41.4575ZM14.2909 40.417H35.8V21.8161H14.2909V40.417ZM10.9724 40.417H13.2486L13.2504 21.2961C13.2486 21.1558 13.3055 21.0245 13.4031 20.925C13.5008 20.8274 13.6339 20.7741 13.7724 20.7741H36.322C36.4605 20.7741 36.5936 20.8291 36.6913 20.9268C36.7889 21.0245 36.844 21.1576 36.844 21.2961V40.4188H39.1203V19.0834C39.1203 19.0497 39.1238 19.0159 39.1291 18.984L25.0455 10.8535L10.9723 18.9767L10.9724 40.417ZM17.771 37.4447C17.9095 37.6951 17.8189 38.0111 17.5685 38.1514C17.3164 38.2899 17.0004 38.1993 16.8619 37.949C15.6989 35.8538 16.3079 34.8702 16.8707 33.9628C17.2543 33.3467 17.6041 32.7803 16.6896 31.5428H16.6879C16.2564 30.9373 16.1055 30.1738 16.2724 29.4493C16.4393 28.6663 16.853 27.9579 17.4549 27.4305C17.7994 27.1553 17.9272 26.6901 17.7692 26.2782C17.5739 25.7686 17.2845 25.2998 16.9169 24.8968C16.9063 24.8825 16.8938 24.8683 16.885 24.8541L16.7695 24.6908C16.6044 24.4546 16.6612 24.1315 16.8956 23.9663C17.1318 23.7994 17.4549 23.8562 17.6201 24.0924L17.7266 24.2451L17.7284 24.2433C18.1794 24.7494 18.5309 25.3353 18.7635 25.971C19.0654 26.7753 18.8115 27.6844 18.1367 28.2153C17.7088 28.5917 17.4159 29.096 17.2986 29.6535C17.1903 30.0921 17.2756 30.5555 17.5313 30.9284C18.8594 32.7305 18.332 33.581 17.7567 34.5097C17.3466 35.1684 16.9027 35.8822 17.771 37.4447Z" fill="#0F8DFF" fill-opacity="0.8"/>
</svg>
