<svg width="87" height="87" viewBox="0 0 87 87" fill="none" xmlns="http://www.w3.org/2000/svg">
<g clip-path="url(#clip0_32_10)">
<path d="M36.8853 19.6656C36.8853 16.2273 39.6667 13.4459 43.105 13.4459C46.5433 13.4459 49.3248 16.2273 49.3248 19.6656C49.3248 23.104 46.5433 25.8854 43.105 25.8854C39.6667 25.8854 36.8853 23.104 36.8853 19.6656Z" fill="#FFDB6A"/>
<path d="M36.8853 66.6283C36.8853 63.1899 39.6667 60.4085 43.105 60.4085C46.5433 60.4085 49.3248 63.1899 49.3248 66.6283C49.3248 70.0666 46.5433 72.848 43.105 72.848C39.6667 72.848 36.8853 70.0666 36.8853 66.6283Z" fill="#FFDB6A"/>
<path d="M22.0974 30.945C19.6654 28.513 19.6654 24.5855 22.0974 22.1535C24.5294 19.7215 28.457 19.7215 30.889 22.1535C33.3209 24.5855 33.3209 28.527 30.889 30.945C28.457 33.377 24.5155 33.377 22.0974 30.945Z" fill="#FFDB6A"/>
<path d="M55.3069 64.1543C52.8749 61.7223 52.8749 57.7948 55.3069 55.3628C57.7389 52.9308 61.6664 52.9308 64.0984 55.3628C66.5304 57.7948 66.5304 61.7363 64.0984 64.1543C61.6664 66.5863 57.7249 66.5863 55.3069 64.1543Z" fill="#FFDB6A"/>
<path d="M30.9031 64.1543C28.4711 66.5863 24.5296 66.5863 22.1116 64.1543C19.6796 61.7223 19.6796 57.7948 22.1116 55.3628C24.5436 52.9308 28.4851 52.9308 30.9031 55.3628C33.3351 57.7948 33.3351 61.7363 30.9031 64.1543Z" fill="#FFDB6A"/>
<path d="M64.1123 30.945C61.6803 33.377 57.7388 33.377 55.3208 30.945C52.8888 28.513 52.8888 24.5855 55.3208 22.1535C57.7528 19.7215 61.6943 19.7215 64.1123 22.1535C66.5443 24.5855 66.5443 28.527 64.1123 30.945Z" fill="#FFDB6A"/>
<path d="M19.6236 49.3667C16.1852 49.3667 13.4038 46.5853 13.4038 43.1469C13.4038 39.7086 16.1852 36.9272 19.6236 36.9272C23.0619 36.9272 25.8433 39.7086 25.8433 43.1469C25.8433 46.5853 23.0619 49.3667 19.6236 49.3667Z" fill="#FFDB6A"/>
<path d="M66.5862 49.3667C63.1479 49.3667 60.3665 46.5853 60.3665 43.1469C60.3665 39.7086 63.1479 36.9272 66.5862 36.9272C70.0245 36.9272 72.806 39.7086 72.806 43.1469C72.806 46.5853 70.0245 49.3667 66.5862 49.3667Z" fill="#FFDB6A"/>
<path d="M26.151 74.8048C26.123 72.6663 27.8282 70.9052 29.9667 70.8773C32.1052 70.8493 33.8663 72.5545 33.8942 74.693C33.9222 76.8315 32.217 78.5926 30.0785 78.6205C27.94 78.6485 26.1789 76.9433 26.151 74.8048Z" fill="#FFDB6A"/>
<path d="M58.9687 14.1727C57.4732 15.7101 55.0272 15.7381 53.4898 14.2565C51.9523 12.761 51.9243 10.315 53.4199 8.77755C54.9154 7.24008 57.3614 7.21213 58.8988 8.70766C60.4363 10.2032 60.4643 12.6492 58.9827 14.1866" fill="#FFDB6A"/>
<path d="M53.5319 77.5023C51.9944 76.0068 51.9665 73.5608 53.448 72.0234C54.9436 70.4859 57.3895 70.4579 58.927 71.9535C60.4645 73.449 60.4924 75.895 58.9969 77.4325C57.5013 78.9699 55.0554 78.9979 53.5179 77.5023" fill="#FFDB6A"/>
<path d="M33.8522 11.4332C33.8802 13.5717 32.175 15.3328 30.0365 15.3607C27.898 15.3887 26.1369 13.6835 26.109 11.545C26.081 9.40652 27.7862 7.64542 29.9247 7.61747C32.0632 7.58951 33.8243 9.2947 33.8522 11.4332Z" fill="#FFDB6A"/>
<path d="M74.7907 60.0591C72.6522 60.087 70.8911 58.3818 70.8631 56.2434C70.8352 54.1049 72.5404 52.3438 74.6788 52.3158C76.8173 52.2879 78.5784 53.9931 78.6064 56.1315C78.6343 58.27 76.9291 60.0311 74.7907 60.0591Z" fill="#FFDB6A"/>
<path d="M14.1586 27.2411C15.6961 28.7367 15.724 31.1826 14.2285 32.7201C12.733 34.2576 10.287 34.2855 8.74952 32.79C7.21205 31.2945 7.1841 28.8485 8.67963 27.311C10.1752 25.7736 12.6211 25.7456 14.1586 27.2272" fill="#FFDB6A"/>
<path d="M77.5022 32.6782C76.0066 34.2156 73.5607 34.2436 72.0232 32.762C70.4857 31.2665 70.4578 28.8205 71.9533 27.2831C73.4489 25.7456 75.8948 25.7176 77.4323 27.2132C78.9698 28.7087 78.9977 31.1547 77.5162 32.6921" fill="#FFDB6A"/>
<path d="M11.433 52.3578C13.5715 52.3298 15.3326 54.035 15.3605 56.1735C15.3885 58.312 13.6833 60.0731 11.5448 60.101C9.40634 60.129 7.64524 58.4238 7.61728 56.2853C7.58933 54.1468 9.29452 52.3857 11.433 52.3578Z" fill="#FFDB6A"/>
<path d="M39.5408 84.4908C38.9817 83.0931 39.6526 81.4858 41.0642 80.9267C42.4619 80.3676 44.0693 81.0525 44.6284 82.4502C45.1875 83.8479 44.5026 85.4413 43.1049 86.0143C41.7072 86.5734 40.0998 85.8885 39.5408 84.4908Z" fill="#FFDB6A"/>
<path d="M46.6412 3.81572C46.0401 5.21342 44.4328 5.85636 43.0491 5.25535C41.6654 4.65434 41.0084 3.04699 41.6094 1.66327C42.2105 0.279548 43.8178 -0.37737 45.2015 0.22364C46.5992 0.82465 47.2422 2.432 46.6412 3.81572Z" fill="#FFDB6A"/>
<path d="M69.8428 74.8887C68.4451 74.2876 67.8022 72.6803 68.4032 71.2966C69.0042 69.9128 70.6116 69.2559 71.9953 69.8569C73.379 70.458 74.0359 72.0653 73.4349 73.449C72.8339 74.8327 71.2266 75.4897 69.8428 74.8887Z" fill="#FFDB6A"/>
<path d="M17.8346 12.8169C18.3937 14.2286 17.7088 15.822 16.3111 16.381C14.8994 16.9401 13.306 16.2552 12.747 14.8575C12.1879 13.4598 12.8728 11.8665 14.2705 11.2934C15.6682 10.7343 17.2615 11.4192 17.8346 12.8169Z" fill="#FFDB6A"/>
<path d="M84.4908 46.6691C83.0791 47.2282 81.4857 46.5433 80.9267 45.1456C80.3676 43.734 81.0524 42.1406 82.4501 41.5815C83.8478 41.0224 85.4412 41.7073 86.0143 43.105C86.5733 44.5027 85.8885 46.0961 84.4908 46.6691Z" fill="#FFDB6A"/>
<path d="M3.81554 39.5688C5.19926 40.1698 5.85618 41.7772 5.25517 43.1609C4.65416 44.5446 3.04681 45.2015 1.66309 44.6005C0.279365 43.9995 -0.377553 42.3922 0.223457 41.0085C0.824467 39.6247 2.43182 38.9678 3.81554 39.5688Z" fill="#FFDB6A"/>
<path d="M74.8887 16.3671C74.2877 17.7648 72.6804 18.4077 71.2966 17.8067C69.9129 17.2057 69.256 15.5983 69.857 14.2146C70.458 12.8309 72.0654 12.174 73.4491 12.775C74.8328 13.376 75.4897 14.9833 74.8887 16.3671Z" fill="#FFDB6A"/>
<path d="M12.8168 68.3894C14.2145 67.8303 15.8219 68.5152 16.381 69.9128C16.94 71.3245 16.2552 72.9179 14.8575 73.477C13.4598 74.0361 11.8664 73.3512 11.2934 71.9535C10.7343 70.5558 11.4191 68.9624 12.8168 68.3894Z" fill="#FFDB6A"/>
</g>
<defs>
<clipPath id="clip0_32_10">
<rect width="86.21" height="86.21" fill="white"/>
</clipPath>
</defs>
</svg>
