<svg width="50" height="50" viewBox="0 0 50 50" fill="none" xmlns="http://www.w3.org/2000/svg">
<path fill-rule="evenodd" clip-rule="evenodd" d="M32.6368 30.8777C32.5303 30.8777 32.4433 30.9647 32.4433 31.0712V32.9942C32.4433 33.1007 32.5303 33.1877 32.6368 33.1877H34.4728C34.5793 33.1877 34.6663 33.1007 34.6663 32.9942V31.0712C34.6663 30.9647 34.5793 30.8777 34.4728 30.8777H32.6368ZM10.2859 26.5826L5 32.0708H19.2968L24.5345 26.5808L10.2859 26.5826ZM32.2018 21.7635L20.2041 34.3344H5V33.0524H19.5723L19.8422 32.9228L32.2017 19.9701L45.909 34.336H44.1973L32.2018 21.7635ZM30.8258 19.9897H22.7044C22.7044 20.549 22.8411 21.3445 22.1877 21.3445H18.5585C17.905 21.3445 18.0418 20.5473 18.0418 19.9897H16.5272L11.1259 25.6006H25.4722L30.8258 19.9897ZM19.0767 20.3111H21.6725V17.7188H19.0767V20.3111ZM22.4769 16H18.2706V17.0405H22.4769V16ZM29.9305 27.9977C29.824 27.9977 29.737 28.0847 29.737 28.1913V30.116C29.737 30.2225 29.824 30.3095 29.9305 30.3095H31.7665C31.873 30.3095 31.96 30.2225 31.96 30.116V28.1913C31.96 28.0847 31.873 27.9977 31.7665 27.9977H29.9305ZM32.6365 27.9977C32.53 27.9977 32.443 28.0847 32.443 28.1913V30.116C32.443 30.2225 32.53 30.3095 32.6365 30.3095H34.4725C34.579 30.3095 34.666 30.2225 34.666 30.116V28.1913C34.666 28.0847 34.579 27.9977 34.4725 27.9977H32.6365ZM29.9305 30.8777C29.824 30.8777 29.737 30.9647 29.737 31.0712V32.9942C29.737 33.1007 29.824 33.1877 29.9305 33.1877H31.7665C31.873 33.1877 31.96 33.1007 31.96 32.9942V31.0712C31.96 30.9647 31.873 30.8777 31.7665 30.8777H29.9305Z" fill="#0F8DFF" fill-opacity="0.8"/>
</svg>
