<svg width="51" height="51" viewBox="0 0 51 51" fill="none" xmlns="http://www.w3.org/2000/svg">
<path d="M25.0911 7C24.9881 6.9996 24.889 7.03916 24.8155 7.11006C24.7421 7.18096 24.7002 7.27745 24.699 7.37851V8.59483C24.6988 8.64538 24.7088 8.69546 24.7284 8.7422C24.7481 8.78894 24.777 8.83141 24.8134 8.86715C24.8499 8.9029 24.8932 8.93121 24.9408 8.95046C24.9885 8.96972 25.0396 8.97953 25.0911 8.97933C25.1427 8.97953 25.1937 8.96972 25.2414 8.95046C25.2891 8.93121 25.3324 8.9029 25.3689 8.86715C25.4053 8.83141 25.4342 8.78894 25.4538 8.7422C25.4734 8.69546 25.4835 8.64538 25.4832 8.59483V7.37851C25.482 7.27745 25.4401 7.18096 25.3667 7.11006C25.2932 7.03916 25.1942 6.9996 25.0911 7ZM31.7174 9.69146C31.6152 9.69306 31.5177 9.73391 31.4458 9.80523L30.6158 10.6131C30.5793 10.6487 30.5503 10.691 30.5306 10.7376C30.5108 10.7842 30.5007 10.8342 30.5007 10.8847C30.5007 10.9351 30.5108 10.9851 30.5306 11.0317C30.5503 11.0783 30.5793 11.1206 30.6158 11.1562C30.6521 11.192 30.6952 11.2204 30.7428 11.2397C30.7903 11.2591 30.8413 11.2691 30.8927 11.2691C30.9442 11.2691 30.9951 11.2591 31.0427 11.2397C31.0902 11.2204 31.1334 11.192 31.1697 11.1562L31.9935 10.3423C32.0654 10.2707 32.1056 10.1743 32.1056 10.0738C32.1056 9.97331 32.0654 9.87687 31.9935 9.80523C31.9574 9.7694 31.9144 9.7409 31.8671 9.72138C31.8197 9.70185 31.7688 9.69169 31.7174 9.69146ZM18.4633 9.69436C18.3605 9.69435 18.2619 9.73409 18.1887 9.80494C18.1169 9.87658 18.0766 9.97302 18.0766 10.0735C18.0766 10.174 18.1169 10.2704 18.1887 10.342L19.0599 11.2008C19.0962 11.2366 19.1394 11.265 19.1869 11.2843C19.2344 11.3037 19.2854 11.3137 19.3369 11.3137C19.3883 11.3137 19.4393 11.3037 19.4868 11.2843C19.5343 11.265 19.5775 11.2366 19.6138 11.2008C19.6503 11.1652 19.6792 11.1229 19.699 11.0763C19.7187 11.0297 19.7289 10.9797 19.7289 10.9293C19.7289 10.8788 19.7187 10.8288 19.699 10.7822C19.6792 10.7356 19.6503 10.6933 19.6138 10.6577L18.7365 9.80494C18.6637 9.73444 18.5656 9.69473 18.4633 9.69436ZM25.0911 10.0654C21.4286 10.0654 18.4481 12.982 18.4481 16.5734C18.4481 20.1647 21.4286 23.0873 25.0911 23.0873C28.7537 23.0873 31.7281 20.1647 31.7281 16.5734C31.7281 12.982 28.7537 10.0654 25.0911 10.0654ZM25.0392 12.7464C25.0835 12.7408 25.1284 12.7428 25.172 12.7522C25.2595 12.77 25.3382 12.8167 25.3948 12.8845C25.4515 12.9523 25.4827 13.0371 25.4833 13.1247V15.4272H26.9602C27.0251 15.4273 27.0889 15.4432 27.146 15.4736C27.203 15.5039 27.2514 15.5477 27.2868 15.601C27.3223 15.6543 27.3436 15.7155 27.3489 15.7789C27.3542 15.8423 27.3433 15.906 27.3172 15.9642L25.4497 20.1757C25.4146 20.2576 25.3516 20.3249 25.2714 20.3662C25.1913 20.4075 25.099 20.4202 25.0104 20.4022C24.9217 20.3842 24.8422 20.3365 24.7855 20.2674C24.7287 20.1983 24.6981 20.1119 24.6991 20.0232V17.7222H23.2237C23.1591 17.7227 23.0953 17.7074 23.0382 17.6778C22.9811 17.6481 22.9323 17.6051 22.8963 17.5525C22.8604 17.4998 22.8383 17.4393 22.832 17.3762C22.8258 17.3131 22.8356 17.2495 22.8605 17.1911L24.7341 12.9721C24.7612 12.9123 24.8035 12.8602 24.8569 12.8209C24.9103 12.7817 24.973 12.7551 25.0392 12.7464ZM15.7154 16.1889C15.6123 16.1901 15.5139 16.2311 15.4416 16.3032C15.3693 16.3752 15.329 16.4723 15.3294 16.5734C15.329 16.6744 15.3693 16.7715 15.4416 16.8436C15.5139 16.9156 15.6123 16.9567 15.7154 16.9578H16.9543C17.0058 16.958 17.0569 16.9482 17.1046 16.929C17.1522 16.9097 17.1955 16.8814 17.232 16.8457C17.2684 16.8099 17.2973 16.7675 17.317 16.7207C17.3366 16.674 17.3466 16.6239 17.3464 16.5734C17.3466 16.5228 17.3366 16.4727 17.317 16.426C17.2973 16.3793 17.2685 16.3368 17.232 16.301C17.1956 16.2653 17.1522 16.237 17.1046 16.2177C17.0569 16.1985 17.0058 16.1887 16.9543 16.1889H15.7154ZM33.2919 16.1889C33.1888 16.1901 33.0904 16.2311 33.0181 16.3032C32.9458 16.3752 32.9055 16.4723 32.9059 16.5734C32.9055 16.6744 32.9458 16.7715 33.0181 16.8436C33.0904 16.9156 33.1888 16.9567 33.2919 16.9578H34.4682C34.5713 16.9567 34.6697 16.9156 34.742 16.8436C34.8143 16.7715 34.8547 16.6744 34.8542 16.5734C34.8547 16.4723 34.8143 16.3752 34.742 16.3032C34.6697 16.2311 34.5713 16.1901 34.4683 16.1889H33.2919ZM19.336 21.8321C19.2324 21.8322 19.1331 21.8726 19.0599 21.9444L18.1887 22.8047C18.1169 22.8763 18.0766 22.9727 18.0766 23.0732C18.0766 23.1737 18.1169 23.2701 18.1887 23.3418C18.2618 23.4122 18.3601 23.4517 18.4626 23.4517C18.565 23.4517 18.6634 23.4122 18.7364 23.3418L19.6137 22.4875C19.6502 22.4519 19.6792 22.4096 19.6989 22.363C19.7187 22.3164 19.7289 22.2664 19.7289 22.216C19.7289 22.1655 19.7187 22.1155 19.6989 22.0689C19.6792 22.0223 19.6502 21.98 19.6137 21.9444C19.5773 21.9087 19.534 21.8803 19.4864 21.8611C19.4388 21.8418 19.3875 21.8319 19.336 21.8321ZM30.8919 21.877C30.8405 21.8772 30.7897 21.8874 30.7423 21.9069C30.695 21.9264 30.652 21.9549 30.6159 21.9907C30.5426 22.0626 30.5015 22.16 30.5015 22.2615C30.5015 22.3631 30.5426 22.4605 30.6159 22.5323L31.4458 23.3417C31.5189 23.4121 31.6173 23.4516 31.7197 23.4516C31.8222 23.4516 31.9206 23.4121 31.9936 23.3417C32.0655 23.2701 32.1057 23.1736 32.1057 23.0731C32.1057 22.9727 32.0655 22.8762 31.9936 22.8046L31.1697 21.9907C31.1334 21.9547 31.0901 21.9261 31.0424 21.9065C30.9947 21.887 30.9436 21.877 30.8919 21.877ZM25.091 24.2348C24.988 24.2344 24.8889 24.2739 24.8155 24.3448C24.742 24.4157 24.7001 24.5122 24.6989 24.6133V25.7668C24.7001 25.8678 24.742 25.9643 24.8155 26.0352C24.8889 26.1061 24.988 26.1457 25.091 26.1453C25.1941 26.1457 25.2932 26.1061 25.3666 26.0352C25.4401 25.9643 25.482 25.8678 25.4832 25.7668V24.6134C25.482 24.5124 25.4401 24.4159 25.3666 24.345C25.2932 24.2741 25.1941 24.2344 25.091 24.2348ZM9.07841 26.9158C8.99704 26.9158 8.91771 26.9408 8.85151 26.9872C8.78532 27.0336 8.73555 27.0991 8.70916 27.1746L6.45262 33.8083H17.7202L18.6433 26.9158L9.07841 26.9158ZM20.2224 26.9158L19.2978 33.8083H30.8843L29.9597 26.9158H20.2224ZM31.5388 26.9158L32.4619 33.8083H43.731L41.4744 27.1747C41.448 27.0992 41.3983 27.0337 41.3321 26.9873C41.2659 26.9409 41.1866 26.9159 41.1052 26.9159L31.5388 26.9158ZM5.93081 35.3402L3.23636 43.262C3.21695 43.3199 3.21188 43.3815 3.22161 43.4416C3.23133 43.5018 3.25555 43.5588 3.29225 43.608C3.32895 43.6571 3.37709 43.697 3.43265 43.7242C3.4882 43.7515 3.54958 43.7654 3.6117 43.7647H16.3852L17.5142 35.3402H5.93081ZM19.0934 35.3402L17.9643 43.7647H32.2178L31.0887 35.3402H19.0934ZM32.6679 35.3402L33.7969 43.7647H46.5719C46.6341 43.7653 46.6954 43.7515 46.751 43.7242C46.8065 43.697 46.8547 43.6571 46.8914 43.6079C46.9281 43.5588 46.9523 43.5018 46.962 43.4416C46.9717 43.3814 46.9667 43.3199 46.9473 43.262L44.2528 35.3403L32.6679 35.3402Z" fill="#0F8DFF" fill-opacity="0.8"/>
</svg>
