<svg width="1030" height="153" viewBox="0 0 1030 153" fill="none" xmlns="http://www.w3.org/2000/svg">
<g clip-path="url(#clip0_74_1364)">
<rect x="77.66" y="16" width="188" height="188" rx="94" stroke="#EAEAEA" stroke-opacity="0.13" stroke-width="12"/>
<mask id="mask0_74_1364" style="mask-type:alpha" maskUnits="userSpaceOnUse" x="71" y="10" width="201" height="200">
<g clip-path="url(#clip1_74_1364)">
<path d="M71.66 10H271.66V110H71.66V10Z" fill="black"/>
</g>
</mask>
<g mask="url(#mask0_74_1364)">
<mask id="mask1_74_1364" style="mask-type:alpha" maskUnits="userSpaceOnUse" x="45" y="-17" width="253" height="254">
<g clip-path="url(#clip2_74_1364)">
<path d="M266.768 79.094L76.5569 140.897L45.6552 45.7917L235.867 -16.0117L266.768 79.094Z" fill="black"/>
</g>
</mask>
<g mask="url(#mask1_74_1364)">
<rect x="290.11" y="170.348" width="188.001" height="187.998" rx="93.9989" transform="rotate(162 290.11 170.348)" stroke="#FAF9F6" stroke-width="12"/>
</g>
</g>
<path d="M131.84 71.5C135.04 71.5 137.756 72.1833 139.99 73.55C142.256 74.8833 143.99 76.8333 145.19 79.4C146.39 81.9667 146.99 85.1333 146.99 88.9C146.99 92.9 146.256 96.2833 144.79 99.05C143.356 101.817 141.356 103.917 138.79 105.35C136.223 106.783 133.24 107.5 129.84 107.5C128.073 107.5 126.39 107.317 124.79 106.95C123.19 106.583 121.806 106.017 120.64 105.25L123.04 100.35C124.006 100.983 125.056 101.433 126.19 101.7C127.323 101.933 128.49 102.05 129.69 102.05C132.99 102.05 135.606 101.033 137.54 99C139.473 96.9667 140.44 93.9667 140.44 90C140.44 89.3667 140.423 88.6333 140.39 87.8C140.356 86.9333 140.24 86.0667 140.04 85.2L142.04 87.4C141.473 88.7667 140.656 89.9167 139.59 90.85C138.523 91.75 137.273 92.4333 135.84 92.9C134.406 93.3667 132.823 93.6 131.09 93.6C128.823 93.6 126.773 93.1667 124.94 92.3C123.14 91.4 121.706 90.15 120.64 88.55C119.573 86.9167 119.04 85.0167 119.04 82.85C119.04 80.5167 119.606 78.5167 120.74 76.85C121.873 75.15 123.406 73.8333 125.34 72.9C127.306 71.9667 129.473 71.5 131.84 71.5ZM132.19 76.6C130.856 76.6 129.673 76.85 128.64 77.35C127.606 77.8167 126.79 78.5 126.19 79.4C125.623 80.2667 125.34 81.3167 125.34 82.55C125.34 84.3833 125.973 85.8333 127.24 86.9C128.506 87.9667 130.206 88.5 132.34 88.5C133.74 88.5 134.973 88.25 136.04 87.75C137.106 87.2167 137.94 86.5 138.54 85.6C139.14 84.6667 139.44 83.6333 139.44 82.5C139.44 81.4 139.156 80.4167 138.59 79.55C138.023 78.65 137.206 77.9333 136.14 77.4C135.073 76.8667 133.756 76.6 132.19 76.6ZM165.987 107.5C163.221 107.5 160.721 106.8 158.487 105.4C156.287 104 154.554 101.967 153.287 99.3C152.021 96.6 151.387 93.3333 151.387 89.5C151.387 85.6667 152.021 82.4167 153.287 79.75C154.554 77.05 156.287 75 158.487 73.6C160.721 72.2 163.221 71.5 165.987 71.5C168.787 71.5 171.287 72.2 173.487 73.6C175.687 75 177.421 77.05 178.687 79.75C179.987 82.4167 180.637 85.6667 180.637 89.5C180.637 93.3333 179.987 96.6 178.687 99.3C177.421 101.967 175.687 104 173.487 105.4C171.287 106.8 168.787 107.5 165.987 107.5ZM165.987 101.85C167.621 101.85 169.037 101.417 170.237 100.55C171.437 99.65 172.371 98.2833 173.037 96.45C173.737 94.6167 174.087 92.3 174.087 89.5C174.087 86.6667 173.737 84.35 173.037 82.55C172.371 80.7167 171.437 79.3667 170.237 78.5C169.037 77.6 167.621 77.15 165.987 77.15C164.421 77.15 163.021 77.6 161.787 78.5C160.587 79.3667 159.637 80.7167 158.937 82.55C158.271 84.35 157.937 86.6667 157.937 89.5C157.937 92.3 158.271 94.6167 158.937 96.45C159.637 98.2833 160.587 99.65 161.787 100.55C163.021 101.417 164.421 101.85 165.987 101.85ZM189.93 107L213.83 72H218.73L194.83 107H189.93ZM192.83 90.85C191.197 90.85 189.747 90.45 188.48 89.65C187.213 88.85 186.23 87.7333 185.53 86.3C184.83 84.8667 184.48 83.1833 184.48 81.25C184.48 79.3167 184.83 77.6333 185.53 76.2C186.23 74.7667 187.213 73.65 188.48 72.85C189.747 72.05 191.197 71.65 192.83 71.65C194.53 71.65 195.997 72.05 197.23 72.85C198.497 73.65 199.48 74.7667 200.18 76.2C200.88 77.6333 201.23 79.3167 201.23 81.25C201.23 83.1833 200.88 84.8667 200.18 86.3C199.48 87.7333 198.497 88.85 197.23 89.65C195.997 90.45 194.53 90.85 192.83 90.85ZM192.88 87.35C194.213 87.35 195.247 86.8333 195.98 85.8C196.747 84.7333 197.13 83.2167 197.13 81.25C197.13 79.2833 196.747 77.7833 195.98 76.75C195.247 75.6833 194.213 75.15 192.88 75.15C191.547 75.15 190.48 75.6833 189.68 76.75C188.913 77.8167 188.53 79.3167 188.53 81.25C188.53 83.1833 188.913 84.6833 189.68 85.75C190.48 86.8167 191.547 87.35 192.88 87.35ZM215.78 107.35C214.147 107.35 212.697 106.95 211.43 106.15C210.163 105.35 209.18 104.233 208.48 102.8C207.78 101.367 207.43 99.6833 207.43 97.75C207.43 95.8167 207.78 94.1333 208.48 92.7C209.18 91.2667 210.163 90.15 211.43 89.35C212.697 88.55 214.147 88.15 215.78 88.15C217.48 88.15 218.947 88.55 220.18 89.35C221.447 90.15 222.43 91.2667 223.13 92.7C223.83 94.1333 224.18 95.8167 224.18 97.75C224.18 99.6833 223.83 101.367 223.13 102.8C222.43 104.233 221.447 105.35 220.18 106.15C218.947 106.95 217.48 107.35 215.78 107.35ZM215.78 103.85C217.113 103.85 218.163 103.317 218.93 102.25C219.697 101.183 220.08 99.6833 220.08 97.75C220.08 95.8167 219.697 94.3167 218.93 93.25C218.163 92.1833 217.113 91.65 215.78 91.65C214.48 91.65 213.43 92.1833 212.63 93.25C211.863 94.2833 211.48 95.7833 211.48 97.75C211.48 99.7167 211.863 101.233 212.63 102.3C213.43 103.333 214.48 103.85 215.78 103.85Z" fill="#FAF9F6"/>
</g>
<path d="M59.8666 141V129.8H64.2346C65.2159 129.8 66.0533 129.955 66.7466 130.264C67.4399 130.573 67.9733 131.021 68.3466 131.608C68.7199 132.195 68.9066 132.893 68.9066 133.704C68.9066 134.515 68.7199 135.213 68.3466 135.8C67.9733 136.376 67.4399 136.819 66.7466 137.128C66.0533 137.437 65.2159 137.592 64.2346 137.592H60.7466L61.4666 136.856V141H59.8666ZM67.3546 141L64.5066 136.936H66.2186L69.0986 141H67.3546ZM61.4666 137.016L60.7466 136.232H64.1866C65.2106 136.232 65.9839 136.013 66.5066 135.576C67.0399 135.128 67.3066 134.504 67.3066 133.704C67.3066 132.904 67.0399 132.285 66.5066 131.848C65.9839 131.411 65.2106 131.192 64.1866 131.192H60.7466L61.4666 130.392V137.016ZM75.0436 141.096C74.1369 141.096 73.3369 140.909 72.6436 140.536C71.9609 140.163 71.4276 139.651 71.0436 139C70.6703 138.349 70.4836 137.603 70.4836 136.76C70.4836 135.917 70.6649 135.171 71.0276 134.52C71.4009 133.869 71.9076 133.363 72.5476 133C73.1983 132.627 73.9289 132.44 74.7396 132.44C75.5609 132.44 76.2863 132.621 76.9156 132.984C77.5449 133.347 78.0356 133.859 78.3876 134.52C78.7503 135.171 78.9316 135.933 78.9316 136.808C78.9316 136.872 78.9263 136.947 78.9156 137.032C78.9156 137.117 78.9103 137.197 78.8996 137.272H71.6836V136.168H78.0996L77.4756 136.552C77.4863 136.008 77.3743 135.523 77.1396 135.096C76.9049 134.669 76.5796 134.339 76.1636 134.104C75.7583 133.859 75.2836 133.736 74.7396 133.736C74.2063 133.736 73.7316 133.859 73.3156 134.104C72.8996 134.339 72.5743 134.675 72.3396 135.112C72.1049 135.539 71.9876 136.029 71.9876 136.584V136.84C71.9876 137.405 72.1156 137.912 72.3716 138.36C72.6383 138.797 73.0063 139.139 73.4756 139.384C73.9449 139.629 74.4836 139.752 75.0916 139.752C75.5929 139.752 76.0463 139.667 76.4516 139.496C76.8676 139.325 77.2303 139.069 77.5396 138.728L78.3876 139.72C78.0036 140.168 77.5236 140.509 76.9476 140.744C76.3823 140.979 75.7476 141.096 75.0436 141.096ZM84.5685 141.096C83.7471 141.096 83.0111 140.915 82.3605 140.552C81.7205 140.189 81.2138 139.683 80.8405 139.032C80.4671 138.381 80.2805 137.624 80.2805 136.76C80.2805 135.896 80.4671 135.144 80.8405 134.504C81.2138 133.853 81.7205 133.347 82.3605 132.984C83.0111 132.621 83.7471 132.44 84.5685 132.44C85.2831 132.44 85.9285 132.6 86.5045 132.92C87.0805 133.24 87.5391 133.72 87.8805 134.36C88.2325 135 88.4085 135.8 88.4085 136.76C88.4085 137.72 88.2378 138.52 87.8965 139.16C87.5658 139.8 87.1125 140.285 86.5365 140.616C85.9605 140.936 85.3045 141.096 84.5685 141.096ZM84.6965 139.752C85.2298 139.752 85.7098 139.629 86.1365 139.384C86.5738 139.139 86.9151 138.792 87.1605 138.344C87.4165 137.885 87.5445 137.357 87.5445 136.76C87.5445 136.152 87.4165 135.629 87.1605 135.192C86.9151 134.744 86.5738 134.397 86.1365 134.152C85.7098 133.907 85.2298 133.784 84.6965 133.784C84.1525 133.784 83.6671 133.907 83.2405 134.152C82.8138 134.397 82.4725 134.744 82.2165 135.192C81.9605 135.629 81.8325 136.152 81.8325 136.76C81.8325 137.357 81.9605 137.885 82.2165 138.344C82.4725 138.792 82.8138 139.139 83.2405 139.384C83.6671 139.629 84.1525 139.752 84.6965 139.752ZM87.5925 141V138.712L87.6885 136.744L87.5285 134.776V129.128H89.0645V141H87.5925ZM95.5387 141.096C94.8134 141.096 94.1734 140.963 93.6187 140.696C93.0747 140.429 92.648 140.024 92.3387 139.48C92.04 138.925 91.8907 138.232 91.8907 137.4V132.52H93.4267V137.224C93.4267 138.056 93.624 138.68 94.0187 139.096C94.424 139.512 94.9894 139.72 95.7147 139.72C96.248 139.72 96.712 139.613 97.1067 139.4C97.5014 139.176 97.8054 138.856 98.0187 138.44C98.232 138.013 98.3387 137.501 98.3387 136.904V132.52H99.8747V141H98.4187V138.712L98.6587 139.32C98.3814 139.885 97.9654 140.323 97.4107 140.632C96.856 140.941 96.232 141.096 95.5387 141.096ZM106.495 141.096C105.631 141.096 104.858 140.909 104.175 140.536C103.503 140.163 102.975 139.651 102.591 139C102.207 138.349 102.015 137.603 102.015 136.76C102.015 135.917 102.207 135.171 102.591 134.52C102.975 133.869 103.503 133.363 104.175 133C104.858 132.627 105.631 132.44 106.495 132.44C107.263 132.44 107.946 132.595 108.543 132.904C109.151 133.203 109.62 133.651 109.951 134.248L108.783 135C108.506 134.584 108.164 134.28 107.759 134.088C107.364 133.885 106.938 133.784 106.479 133.784C105.924 133.784 105.428 133.907 104.991 134.152C104.554 134.397 104.207 134.744 103.951 135.192C103.695 135.629 103.567 136.152 103.567 136.76C103.567 137.368 103.695 137.896 103.951 138.344C104.207 138.792 104.554 139.139 104.991 139.384C105.428 139.629 105.924 139.752 106.479 139.752C106.938 139.752 107.364 139.656 107.759 139.464C108.164 139.261 108.506 138.952 108.783 138.536L109.951 139.272C109.62 139.859 109.151 140.312 108.543 140.632C107.946 140.941 107.263 141.096 106.495 141.096ZM114.961 141.096C114.108 141.096 113.446 140.867 112.977 140.408C112.508 139.949 112.273 139.293 112.273 138.44V130.664H113.809V138.376C113.809 138.835 113.921 139.187 114.145 139.432C114.38 139.677 114.71 139.8 115.137 139.8C115.617 139.8 116.017 139.667 116.337 139.4L116.817 140.504C116.582 140.707 116.3 140.856 115.969 140.952C115.649 141.048 115.313 141.096 114.961 141.096ZM110.833 133.784V132.52H116.241V133.784H110.833ZM118.674 141V132.52H120.21V141H118.674ZM119.442 130.888C119.143 130.888 118.893 130.792 118.69 130.6C118.498 130.408 118.402 130.173 118.402 129.896C118.402 129.608 118.498 129.368 118.69 129.176C118.893 128.984 119.143 128.888 119.442 128.888C119.741 128.888 119.986 128.984 120.178 129.176C120.381 129.357 120.482 129.587 120.482 129.864C120.482 130.152 120.386 130.397 120.194 130.6C120.002 130.792 119.751 130.888 119.442 130.888ZM126.775 141.096C125.921 141.096 125.164 140.909 124.503 140.536C123.841 140.163 123.319 139.651 122.935 139C122.551 138.339 122.359 137.592 122.359 136.76C122.359 135.917 122.551 135.171 122.935 134.52C123.319 133.869 123.841 133.363 124.503 133C125.164 132.627 125.921 132.44 126.775 132.44C127.617 132.44 128.369 132.627 129.031 133C129.703 133.363 130.225 133.869 130.599 134.52C130.983 135.16 131.175 135.907 131.175 136.76C131.175 137.603 130.983 138.349 130.599 139C130.225 139.651 129.703 140.163 129.031 140.536C128.369 140.909 127.617 141.096 126.775 141.096ZM126.775 139.752C127.319 139.752 127.804 139.629 128.231 139.384C128.668 139.139 129.009 138.792 129.255 138.344C129.5 137.885 129.623 137.357 129.623 136.76C129.623 136.152 129.5 135.629 129.255 135.192C129.009 134.744 128.668 134.397 128.231 134.152C127.804 133.907 127.319 133.784 126.775 133.784C126.231 133.784 125.745 133.907 125.319 134.152C124.892 134.397 124.551 134.744 124.295 135.192C124.039 135.629 123.911 136.152 123.911 136.76C123.911 137.357 124.039 137.885 124.295 138.344C124.551 138.792 124.892 139.139 125.319 139.384C125.745 139.629 126.231 139.752 126.775 139.752ZM137.827 132.44C138.52 132.44 139.128 132.573 139.651 132.84C140.184 133.107 140.6 133.512 140.899 134.056C141.198 134.6 141.347 135.288 141.347 136.12V141H139.811V136.296C139.811 135.475 139.608 134.856 139.203 134.44C138.808 134.024 138.248 133.816 137.523 133.816C136.979 133.816 136.504 133.923 136.099 134.136C135.694 134.349 135.379 134.664 135.155 135.08C134.942 135.496 134.835 136.013 134.835 136.632V141H133.299V132.52H134.771V134.808L134.531 134.2C134.808 133.645 135.235 133.213 135.811 132.904C136.387 132.595 137.059 132.44 137.827 132.44ZM148.71 141V129.8H150.31V141H148.71ZM157.967 132.44C158.661 132.44 159.269 132.573 159.791 132.84C160.325 133.107 160.741 133.512 161.039 134.056C161.338 134.6 161.487 135.288 161.487 136.12V141H159.951V136.296C159.951 135.475 159.749 134.856 159.343 134.44C158.949 134.024 158.389 133.816 157.663 133.816C157.119 133.816 156.645 133.923 156.239 134.136C155.834 134.349 155.519 134.664 155.295 135.08C155.082 135.496 154.975 136.013 154.975 136.632V141H153.439V132.52H154.911V134.808L154.671 134.2C154.949 133.645 155.375 133.213 155.951 132.904C156.527 132.595 157.199 132.44 157.967 132.44ZM170.307 134.632H176.067V135.992H170.307V134.632ZM170.451 139.608H176.979V141H168.851V129.8H176.755V131.192H170.451V139.608ZM179.346 141V129.128H180.882V141H179.346ZM187.59 141.096C186.684 141.096 185.884 140.909 185.19 140.536C184.508 140.163 183.974 139.651 183.59 139C183.217 138.349 183.03 137.603 183.03 136.76C183.03 135.917 183.212 135.171 183.574 134.52C183.948 133.869 184.454 133.363 185.094 133C185.745 132.627 186.476 132.44 187.286 132.44C188.108 132.44 188.833 132.621 189.462 132.984C190.092 133.347 190.582 133.859 190.934 134.52C191.297 135.171 191.478 135.933 191.478 136.808C191.478 136.872 191.473 136.947 191.462 137.032C191.462 137.117 191.457 137.197 191.446 137.272H184.23V136.168H190.646L190.022 136.552C190.033 136.008 189.921 135.523 189.686 135.096C189.452 134.669 189.126 134.339 188.71 134.104C188.305 133.859 187.83 133.736 187.286 133.736C186.753 133.736 186.278 133.859 185.862 134.104C185.446 134.339 185.121 134.675 184.886 135.112C184.652 135.539 184.534 136.029 184.534 136.584V136.84C184.534 137.405 184.662 137.912 184.918 138.36C185.185 138.797 185.553 139.139 186.022 139.384C186.492 139.629 187.03 139.752 187.638 139.752C188.14 139.752 188.593 139.667 188.998 139.496C189.414 139.325 189.777 139.069 190.086 138.728L190.934 139.72C190.55 140.168 190.07 140.509 189.494 140.744C188.929 140.979 188.294 141.096 187.59 141.096ZM197.307 141.096C196.443 141.096 195.67 140.909 194.987 140.536C194.315 140.163 193.787 139.651 193.403 139C193.019 138.349 192.827 137.603 192.827 136.76C192.827 135.917 193.019 135.171 193.403 134.52C193.787 133.869 194.315 133.363 194.987 133C195.67 132.627 196.443 132.44 197.307 132.44C198.075 132.44 198.758 132.595 199.355 132.904C199.963 133.203 200.433 133.651 200.763 134.248L199.595 135C199.318 134.584 198.977 134.28 198.571 134.088C198.177 133.885 197.75 133.784 197.291 133.784C196.737 133.784 196.241 133.907 195.803 134.152C195.366 134.397 195.019 134.744 194.763 135.192C194.507 135.629 194.379 136.152 194.379 136.76C194.379 137.368 194.507 137.896 194.763 138.344C195.019 138.792 195.366 139.139 195.803 139.384C196.241 139.629 196.737 139.752 197.291 139.752C197.75 139.752 198.177 139.656 198.571 139.464C198.977 139.261 199.318 138.952 199.595 138.536L200.763 139.272C200.433 139.859 199.963 140.312 199.355 140.632C198.758 140.941 198.075 141.096 197.307 141.096ZM205.773 141.096C204.92 141.096 204.259 140.867 203.789 140.408C203.32 139.949 203.085 139.293 203.085 138.44V130.664H204.621V138.376C204.621 138.835 204.733 139.187 204.957 139.432C205.192 139.677 205.523 139.8 205.949 139.8C206.429 139.8 206.829 139.667 207.149 139.4L207.629 140.504C207.395 140.707 207.112 140.856 206.781 140.952C206.461 141.048 206.125 141.096 205.773 141.096ZM201.645 133.784V132.52H207.053V133.784H201.645ZM209.486 141V132.52H210.958V134.824L210.814 134.248C211.049 133.661 211.444 133.213 211.998 132.904C212.553 132.595 213.236 132.44 214.046 132.44V133.928C213.982 133.917 213.918 133.912 213.854 133.912C213.801 133.912 213.748 133.912 213.694 133.912C212.873 133.912 212.222 134.157 211.742 134.648C211.262 135.139 211.022 135.848 211.022 136.776V141H209.486ZM215.939 141V132.52H217.475V141H215.939ZM216.707 130.888C216.409 130.888 216.158 130.792 215.955 130.6C215.763 130.408 215.667 130.173 215.667 129.896C215.667 129.608 215.763 129.368 215.955 129.176C216.158 128.984 216.409 128.888 216.707 128.888C217.006 128.888 217.251 128.984 217.443 129.176C217.646 129.357 217.747 129.587 217.747 129.864C217.747 130.152 217.651 130.397 217.459 130.6C217.267 130.792 217.017 130.888 216.707 130.888ZM224.104 141.096C223.24 141.096 222.467 140.909 221.784 140.536C221.112 140.163 220.584 139.651 220.2 139C219.816 138.349 219.624 137.603 219.624 136.76C219.624 135.917 219.816 135.171 220.2 134.52C220.584 133.869 221.112 133.363 221.784 133C222.467 132.627 223.24 132.44 224.104 132.44C224.872 132.44 225.555 132.595 226.152 132.904C226.76 133.203 227.23 133.651 227.56 134.248L226.392 135C226.115 134.584 225.774 134.28 225.368 134.088C224.974 133.885 224.547 133.784 224.088 133.784C223.534 133.784 223.038 133.907 222.6 134.152C222.163 134.397 221.816 134.744 221.56 135.192C221.304 135.629 221.176 136.152 221.176 136.76C221.176 137.368 221.304 137.896 221.56 138.344C221.816 138.792 222.163 139.139 222.6 139.384C223.038 139.629 223.534 139.752 224.088 139.752C224.547 139.752 224.974 139.656 225.368 139.464C225.774 139.261 226.115 138.952 226.392 138.536L227.56 139.272C227.23 139.859 226.76 140.312 226.152 140.632C225.555 140.941 224.872 141.096 224.104 141.096ZM229.439 141V132.52H230.975V141H229.439ZM230.207 130.888C229.909 130.888 229.658 130.792 229.455 130.6C229.263 130.408 229.167 130.173 229.167 129.896C229.167 129.608 229.263 129.368 229.455 129.176C229.658 128.984 229.909 128.888 230.207 128.888C230.506 128.888 230.751 128.984 230.943 129.176C231.146 129.357 231.247 129.587 231.247 129.864C231.247 130.152 231.151 130.397 230.959 130.6C230.767 130.792 230.517 130.888 230.207 130.888ZM236.82 141.096C235.967 141.096 235.306 140.867 234.836 140.408C234.367 139.949 234.132 139.293 234.132 138.44V130.664H235.668V138.376C235.668 138.835 235.78 139.187 236.004 139.432C236.239 139.677 236.57 139.8 236.996 139.8C237.476 139.8 237.876 139.667 238.196 139.4L238.676 140.504C238.442 140.707 238.159 140.856 237.828 140.952C237.508 141.048 237.172 141.096 236.82 141.096ZM232.692 133.784V132.52H238.1V133.784H232.692ZM240.745 144.2C240.34 144.2 239.945 144.131 239.561 143.992C239.177 143.864 238.846 143.672 238.569 143.416L239.225 142.264C239.438 142.467 239.673 142.621 239.929 142.728C240.185 142.835 240.457 142.888 240.745 142.888C241.118 142.888 241.428 142.792 241.673 142.6C241.918 142.408 242.148 142.067 242.361 141.576L242.889 140.408L243.049 140.216L246.377 132.52H247.881L243.769 141.848C243.524 142.445 243.246 142.915 242.937 143.256C242.638 143.597 242.308 143.837 241.945 143.976C241.582 144.125 241.182 144.2 240.745 144.2ZM242.761 141.272L238.889 132.52H240.489L243.785 140.072L242.761 141.272ZM253.835 141V129.8H258.859C260.15 129.8 261.142 130.061 261.835 130.584C262.529 131.096 262.875 131.8 262.875 132.696C262.875 133.304 262.737 133.816 262.459 134.232C262.193 134.648 261.83 134.968 261.371 135.192C260.913 135.416 260.417 135.528 259.883 135.528L260.171 135.048C260.811 135.048 261.377 135.16 261.867 135.384C262.358 135.608 262.747 135.939 263.035 136.376C263.323 136.803 263.467 137.336 263.467 137.976C263.467 138.936 263.105 139.683 262.379 140.216C261.665 140.739 260.598 141 259.179 141H253.835ZM255.435 139.704H259.115C260.001 139.704 260.678 139.555 261.147 139.256C261.617 138.957 261.851 138.488 261.851 137.848C261.851 137.197 261.617 136.723 261.147 136.424C260.678 136.125 260.001 135.976 259.115 135.976H255.291V134.68H258.715C259.526 134.68 260.155 134.531 260.603 134.232C261.051 133.933 261.275 133.485 261.275 132.888C261.275 132.291 261.051 131.843 260.603 131.544C260.155 131.245 259.526 131.096 258.715 131.096H255.435V139.704ZM265.721 141V132.52H267.257V141H265.721ZM266.489 130.888C266.19 130.888 265.939 130.792 265.737 130.6C265.545 130.408 265.449 130.173 265.449 129.896C265.449 129.608 265.545 129.368 265.737 129.176C265.939 128.984 266.19 128.888 266.489 128.888C266.787 128.888 267.033 128.984 267.225 129.176C267.427 129.357 267.529 129.587 267.529 129.864C267.529 130.152 267.433 130.397 267.241 130.6C267.049 130.792 266.798 130.888 266.489 130.888ZM270.189 141V129.128H271.725V141H270.189ZM274.658 141V129.128H276.194V141H274.658ZM281.559 141.096C280.855 141.096 280.183 141 279.543 140.808C278.914 140.616 278.418 140.381 278.055 140.104L278.695 138.888C279.058 139.133 279.506 139.341 280.039 139.512C280.572 139.683 281.116 139.768 281.671 139.768C282.386 139.768 282.898 139.667 283.207 139.464C283.527 139.261 283.687 138.979 283.687 138.616C283.687 138.349 283.591 138.141 283.399 137.992C283.207 137.843 282.951 137.731 282.631 137.656C282.322 137.581 281.975 137.517 281.591 137.464C281.207 137.4 280.823 137.325 280.439 137.24C280.055 137.144 279.703 137.016 279.383 136.856C279.063 136.685 278.807 136.456 278.615 136.168C278.423 135.869 278.327 135.475 278.327 134.984C278.327 134.472 278.471 134.024 278.759 133.64C279.047 133.256 279.452 132.963 279.975 132.76C280.508 132.547 281.138 132.44 281.863 132.44C282.418 132.44 282.978 132.509 283.543 132.648C284.119 132.776 284.588 132.963 284.951 133.208L284.295 134.424C283.911 134.168 283.511 133.992 283.095 133.896C282.679 133.8 282.263 133.752 281.847 133.752C281.175 133.752 280.674 133.864 280.343 134.088C280.012 134.301 279.847 134.579 279.847 134.92C279.847 135.208 279.943 135.432 280.135 135.592C280.338 135.741 280.594 135.859 280.903 135.944C281.223 136.029 281.575 136.104 281.959 136.168C282.343 136.221 282.727 136.296 283.111 136.392C283.495 136.477 283.842 136.6 284.151 136.76C284.471 136.92 284.727 137.144 284.919 137.432C285.122 137.72 285.223 138.104 285.223 138.584C285.223 139.096 285.074 139.539 284.775 139.912C284.476 140.285 284.055 140.579 283.511 140.792C282.967 140.995 282.316 141.096 281.559 141.096Z" fill="#FAF9F6"/>
<g clip-path="url(#clip3_74_1364)">
<rect x="420.99" y="16" width="188" height="188" rx="94" stroke="#EAEAEA" stroke-opacity="0.13" stroke-width="12"/>
<mask id="mask2_74_1364" style="mask-type:alpha" maskUnits="userSpaceOnUse" x="414" y="10" width="201" height="200">
<g clip-path="url(#clip4_74_1364)">
<path d="M414.99 10H614.99V110H414.99V10Z" fill="black"/>
</g>
</mask>
<g mask="url(#mask2_74_1364)">
<mask id="mask3_74_1364" style="mask-type:alpha" maskUnits="userSpaceOnUse" x="388" y="-17" width="254" height="254">
<g clip-path="url(#clip5_74_1364)">
<path d="M419.888 79.096L610.1 140.899L579.198 236.005L388.986 174.202L419.888 79.096Z" fill="black"/>
</g>
</mask>
<g mask="url(#mask3_74_1364)">
<rect x="454.642" y="-8.44957" width="188.001" height="188.001" rx="94" transform="rotate(18 454.642 -8.44957)" stroke="#FAF9F6" stroke-width="12"/>
</g>
</g>
<path d="M475.107 107V74.5L477.957 77.45H467.707V72H481.607V107H475.107ZM503.15 107.5C500.384 107.5 497.884 106.8 495.65 105.4C493.45 104 491.717 101.967 490.45 99.3C489.184 96.6 488.55 93.3333 488.55 89.5C488.55 85.6667 489.184 82.4167 490.45 79.75C491.717 77.05 493.45 75 495.65 73.6C497.884 72.2 500.384 71.5 503.15 71.5C505.95 71.5 508.45 72.2 510.65 73.6C512.85 75 514.584 77.05 515.85 79.75C517.15 82.4167 517.8 85.6667 517.8 89.5C517.8 93.3333 517.15 96.6 515.85 99.3C514.584 101.967 512.85 104 510.65 105.4C508.45 106.8 505.95 107.5 503.15 107.5ZM503.15 101.85C504.784 101.85 506.2 101.417 507.4 100.55C508.6 99.65 509.534 98.2833 510.2 96.45C510.9 94.6167 511.25 92.3 511.25 89.5C511.25 86.6667 510.9 84.35 510.2 82.55C509.534 80.7167 508.6 79.3667 507.4 78.5C506.2 77.6 504.784 77.15 503.15 77.15C501.584 77.15 500.184 77.6 498.95 78.5C497.75 79.3667 496.8 80.7167 496.1 82.55C495.434 84.35 495.1 86.6667 495.1 89.5C495.1 92.3 495.434 94.6167 496.1 96.45C496.8 98.2833 497.75 99.65 498.95 100.55C500.184 101.417 501.584 101.85 503.15 101.85ZM527.093 107L550.993 72H555.893L531.993 107H527.093ZM529.993 90.85C528.36 90.85 526.91 90.45 525.643 89.65C524.376 88.85 523.393 87.7333 522.693 86.3C521.993 84.8667 521.643 83.1833 521.643 81.25C521.643 79.3167 521.993 77.6333 522.693 76.2C523.393 74.7667 524.376 73.65 525.643 72.85C526.91 72.05 528.36 71.65 529.993 71.65C531.693 71.65 533.16 72.05 534.393 72.85C535.66 73.65 536.643 74.7667 537.343 76.2C538.043 77.6333 538.393 79.3167 538.393 81.25C538.393 83.1833 538.043 84.8667 537.343 86.3C536.643 87.7333 535.66 88.85 534.393 89.65C533.16 90.45 531.693 90.85 529.993 90.85ZM530.043 87.35C531.376 87.35 532.41 86.8333 533.143 85.8C533.91 84.7333 534.293 83.2167 534.293 81.25C534.293 79.2833 533.91 77.7833 533.143 76.75C532.41 75.6833 531.376 75.15 530.043 75.15C528.71 75.15 527.643 75.6833 526.843 76.75C526.076 77.8167 525.693 79.3167 525.693 81.25C525.693 83.1833 526.076 84.6833 526.843 85.75C527.643 86.8167 528.71 87.35 530.043 87.35ZM552.943 107.35C551.31 107.35 549.86 106.95 548.593 106.15C547.326 105.35 546.343 104.233 545.643 102.8C544.943 101.367 544.593 99.6833 544.593 97.75C544.593 95.8167 544.943 94.1333 545.643 92.7C546.343 91.2667 547.326 90.15 548.593 89.35C549.86 88.55 551.31 88.15 552.943 88.15C554.643 88.15 556.11 88.55 557.343 89.35C558.61 90.15 559.593 91.2667 560.293 92.7C560.993 94.1333 561.343 95.8167 561.343 97.75C561.343 99.6833 560.993 101.367 560.293 102.8C559.593 104.233 558.61 105.35 557.343 106.15C556.11 106.95 554.643 107.35 552.943 107.35ZM552.943 103.85C554.276 103.85 555.326 103.317 556.093 102.25C556.86 101.183 557.243 99.6833 557.243 97.75C557.243 95.8167 556.86 94.3167 556.093 93.25C555.326 92.1833 554.276 91.65 552.943 91.65C551.643 91.65 550.593 92.1833 549.793 93.25C549.026 94.2833 548.643 95.7833 548.643 97.75C548.643 99.7167 549.026 101.233 549.793 102.3C550.593 103.333 551.643 103.85 552.943 103.85Z" fill="#FAF9F6"/>
</g>
<path d="M420.816 141V129.8H422.416V141H420.816ZM430.073 132.44C430.767 132.44 431.375 132.573 431.897 132.84C432.431 133.107 432.847 133.512 433.145 134.056C433.444 134.6 433.593 135.288 433.593 136.12V141H432.057V136.296C432.057 135.475 431.855 134.856 431.449 134.44C431.055 134.024 430.495 133.816 429.769 133.816C429.225 133.816 428.751 133.923 428.345 134.136C427.94 134.349 427.625 134.664 427.401 135.08C427.188 135.496 427.081 136.013 427.081 136.632V141H425.545V132.52H427.017V134.808L426.777 134.2C427.055 133.645 427.481 133.213 428.057 132.904C428.633 132.595 429.305 132.44 430.073 132.44ZM440.132 141.096C439.268 141.096 438.495 140.909 437.812 140.536C437.14 140.163 436.612 139.651 436.228 139C435.844 138.349 435.652 137.603 435.652 136.76C435.652 135.917 435.844 135.171 436.228 134.52C436.612 133.869 437.14 133.363 437.812 133C438.495 132.627 439.268 132.44 440.132 132.44C440.9 132.44 441.583 132.595 442.18 132.904C442.788 133.203 443.257 133.651 443.588 134.248L442.42 135C442.143 134.584 441.801 134.28 441.396 134.088C441.001 133.885 440.575 133.784 440.116 133.784C439.561 133.784 439.065 133.907 438.628 134.152C438.191 134.397 437.844 134.744 437.588 135.192C437.332 135.629 437.204 136.152 437.204 136.76C437.204 137.368 437.332 137.896 437.588 138.344C437.844 138.792 438.191 139.139 438.628 139.384C439.065 139.629 439.561 139.752 440.116 139.752C440.575 139.752 441.001 139.656 441.396 139.464C441.801 139.261 442.143 138.952 442.42 138.536L443.588 139.272C443.257 139.859 442.788 140.312 442.18 140.632C441.583 140.941 440.9 141.096 440.132 141.096ZM445.577 141V132.52H447.049V134.824L446.905 134.248C447.139 133.661 447.534 133.213 448.089 132.904C448.643 132.595 449.326 132.44 450.137 132.44V133.928C450.073 133.917 450.009 133.912 449.945 133.912C449.891 133.912 449.838 133.912 449.785 133.912C448.963 133.912 448.313 134.157 447.833 134.648C447.353 135.139 447.113 135.848 447.113 136.776V141H445.577ZM455.728 141.096C454.821 141.096 454.021 140.909 453.328 140.536C452.645 140.163 452.112 139.651 451.728 139C451.354 138.349 451.168 137.603 451.168 136.76C451.168 135.917 451.349 135.171 451.712 134.52C452.085 133.869 452.592 133.363 453.232 133C453.882 132.627 454.613 132.44 455.424 132.44C456.245 132.44 456.97 132.621 457.6 132.984C458.229 133.347 458.72 133.859 459.072 134.52C459.434 135.171 459.616 135.933 459.616 136.808C459.616 136.872 459.61 136.947 459.6 137.032C459.6 137.117 459.594 137.197 459.584 137.272H452.368V136.168H458.784L458.16 136.552C458.17 136.008 458.058 135.523 457.824 135.096C457.589 134.669 457.264 134.339 456.848 134.104C456.442 133.859 455.968 133.736 455.424 133.736C454.89 133.736 454.416 133.859 454 134.104C453.584 134.339 453.258 134.675 453.024 135.112C452.789 135.539 452.672 136.029 452.672 136.584V136.84C452.672 137.405 452.8 137.912 453.056 138.36C453.322 138.797 453.69 139.139 454.16 139.384C454.629 139.629 455.168 139.752 455.776 139.752C456.277 139.752 456.73 139.667 457.136 139.496C457.552 139.325 457.914 139.069 458.224 138.728L459.072 139.72C458.688 140.168 458.208 140.509 457.632 140.744C457.066 140.979 456.432 141.096 455.728 141.096ZM466.778 141V139.208L466.698 138.872V135.816C466.698 135.165 466.506 134.664 466.122 134.312C465.749 133.949 465.183 133.768 464.426 133.768C463.925 133.768 463.434 133.853 462.954 134.024C462.474 134.184 462.069 134.403 461.738 134.68L461.098 133.528C461.535 133.176 462.058 132.909 462.666 132.728C463.285 132.536 463.93 132.44 464.602 132.44C465.765 132.44 466.661 132.723 467.29 133.288C467.919 133.853 468.234 134.717 468.234 135.88V141H466.778ZM463.994 141.096C463.365 141.096 462.81 140.989 462.33 140.776C461.861 140.563 461.498 140.269 461.242 139.896C460.986 139.512 460.858 139.08 460.858 138.6C460.858 138.141 460.965 137.725 461.178 137.352C461.402 136.979 461.759 136.68 462.25 136.456C462.751 136.232 463.423 136.12 464.266 136.12H466.954V137.224H464.33C463.562 137.224 463.045 137.352 462.778 137.608C462.511 137.864 462.378 138.173 462.378 138.536C462.378 138.952 462.543 139.288 462.874 139.544C463.205 139.789 463.663 139.912 464.25 139.912C464.826 139.912 465.327 139.784 465.754 139.528C466.191 139.272 466.506 138.899 466.698 138.408L467.002 139.464C466.799 139.965 466.442 140.365 465.93 140.664C465.418 140.952 464.773 141.096 463.994 141.096ZM473.509 141.096C472.805 141.096 472.133 141 471.493 140.808C470.863 140.616 470.367 140.381 470.005 140.104L470.645 138.888C471.007 139.133 471.455 139.341 471.989 139.512C472.522 139.683 473.066 139.768 473.621 139.768C474.335 139.768 474.847 139.667 475.157 139.464C475.477 139.261 475.637 138.979 475.637 138.616C475.637 138.349 475.541 138.141 475.349 137.992C475.157 137.843 474.901 137.731 474.581 137.656C474.271 137.581 473.925 137.517 473.541 137.464C473.157 137.4 472.773 137.325 472.389 137.24C472.005 137.144 471.653 137.016 471.333 136.856C471.013 136.685 470.757 136.456 470.565 136.168C470.373 135.869 470.277 135.475 470.277 134.984C470.277 134.472 470.421 134.024 470.709 133.64C470.997 133.256 471.402 132.963 471.925 132.76C472.458 132.547 473.087 132.44 473.813 132.44C474.367 132.44 474.927 132.509 475.493 132.648C476.069 132.776 476.538 132.963 476.901 133.208L476.245 134.424C475.861 134.168 475.461 133.992 475.045 133.896C474.629 133.8 474.213 133.752 473.797 133.752C473.125 133.752 472.623 133.864 472.293 134.088C471.962 134.301 471.797 134.579 471.797 134.92C471.797 135.208 471.893 135.432 472.085 135.592C472.287 135.741 472.543 135.859 472.853 135.944C473.173 136.029 473.525 136.104 473.909 136.168C474.293 136.221 474.677 136.296 475.061 136.392C475.445 136.477 475.791 136.6 476.101 136.76C476.421 136.92 476.677 137.144 476.869 137.432C477.071 137.72 477.173 138.104 477.173 138.584C477.173 139.096 477.023 139.539 476.725 139.912C476.426 140.285 476.005 140.579 475.461 140.792C474.917 140.995 474.266 141.096 473.509 141.096ZM482.868 141.096C481.961 141.096 481.161 140.909 480.468 140.536C479.785 140.163 479.252 139.651 478.868 139C478.495 138.349 478.308 137.603 478.308 136.76C478.308 135.917 478.489 135.171 478.852 134.52C479.225 133.869 479.732 133.363 480.372 133C481.023 132.627 481.753 132.44 482.564 132.44C483.385 132.44 484.111 132.621 484.74 132.984C485.369 133.347 485.86 133.859 486.212 134.52C486.575 135.171 486.756 135.933 486.756 136.808C486.756 136.872 486.751 136.947 486.74 137.032C486.74 137.117 486.735 137.197 486.724 137.272H479.508V136.168H485.924L485.3 136.552C485.311 136.008 485.199 135.523 484.964 135.096C484.729 134.669 484.404 134.339 483.988 134.104C483.583 133.859 483.108 133.736 482.564 133.736C482.031 133.736 481.556 133.859 481.14 134.104C480.724 134.339 480.399 134.675 480.164 135.112C479.929 135.539 479.812 136.029 479.812 136.584V136.84C479.812 137.405 479.94 137.912 480.196 138.36C480.463 138.797 480.831 139.139 481.3 139.384C481.769 139.629 482.308 139.752 482.916 139.752C483.417 139.752 483.871 139.667 484.276 139.496C484.692 139.325 485.055 139.069 485.364 138.728L486.212 139.72C485.828 140.168 485.348 140.509 484.772 140.744C484.207 140.979 483.572 141.096 482.868 141.096ZM493.41 141V129.8H495.01V141H493.41ZM502.667 132.44C503.36 132.44 503.968 132.573 504.491 132.84C505.024 133.107 505.44 133.512 505.739 134.056C506.038 134.6 506.187 135.288 506.187 136.12V141H504.651V136.296C504.651 135.475 504.448 134.856 504.043 134.44C503.648 134.024 503.088 133.816 502.363 133.816C501.819 133.816 501.344 133.923 500.939 134.136C500.534 134.349 500.219 134.664 499.995 135.08C499.782 135.496 499.675 136.013 499.675 136.632V141H498.139V132.52H499.611V134.808L499.371 134.2C499.648 133.645 500.075 133.213 500.651 132.904C501.227 132.595 501.899 132.44 502.667 132.44ZM521.583 129.8H523.183V141H521.583V129.8ZM515.151 141H513.551V129.8H515.151V141ZM521.727 136.008H514.991V134.616H521.727V136.008ZM529.943 141.096C529.09 141.096 528.332 140.909 527.671 140.536C527.01 140.163 526.487 139.651 526.103 139C525.719 138.339 525.527 137.592 525.527 136.76C525.527 135.917 525.719 135.171 526.103 134.52C526.487 133.869 527.01 133.363 527.671 133C528.332 132.627 529.09 132.44 529.943 132.44C530.786 132.44 531.538 132.627 532.199 133C532.871 133.363 533.394 133.869 533.767 134.52C534.151 135.16 534.343 135.907 534.343 136.76C534.343 137.603 534.151 138.349 533.767 139C533.394 139.651 532.871 140.163 532.199 140.536C531.538 140.909 530.786 141.096 529.943 141.096ZM529.943 139.752C530.487 139.752 530.972 139.629 531.399 139.384C531.836 139.139 532.178 138.792 532.423 138.344C532.668 137.885 532.791 137.357 532.791 136.76C532.791 136.152 532.668 135.629 532.423 135.192C532.178 134.744 531.836 134.397 531.399 134.152C530.972 133.907 530.487 133.784 529.943 133.784C529.399 133.784 528.914 133.907 528.487 134.152C528.06 134.397 527.719 134.744 527.463 135.192C527.207 135.629 527.079 136.152 527.079 136.76C527.079 137.357 527.207 137.885 527.463 138.344C527.719 138.792 528.06 139.139 528.487 139.384C528.914 139.629 529.399 139.752 529.943 139.752ZM547.075 132.44C547.758 132.44 548.36 132.573 548.883 132.84C549.406 133.107 549.811 133.512 550.099 134.056C550.398 134.6 550.547 135.288 550.547 136.12V141H549.011V136.296C549.011 135.475 548.819 134.856 548.435 134.44C548.051 134.024 547.512 133.816 546.819 133.816C546.307 133.816 545.859 133.923 545.475 134.136C545.091 134.349 544.792 134.664 544.579 135.08C544.376 135.496 544.275 136.013 544.275 136.632V141H542.739V136.296C542.739 135.475 542.547 134.856 542.163 134.44C541.79 134.024 541.251 133.816 540.547 133.816C540.046 133.816 539.603 133.923 539.219 134.136C538.835 134.349 538.536 134.664 538.323 135.08C538.11 135.496 538.003 136.013 538.003 136.632V141H536.467V132.52H537.939V134.776L537.699 134.2C537.966 133.645 538.376 133.213 538.931 132.904C539.486 132.595 540.131 132.44 540.867 132.44C541.678 132.44 542.376 132.643 542.963 133.048C543.55 133.443 543.934 134.045 544.115 134.856L543.491 134.6C543.747 133.949 544.195 133.427 544.835 133.032C545.475 132.637 546.222 132.44 547.075 132.44ZM557.149 141.096C556.243 141.096 555.443 140.909 554.749 140.536C554.067 140.163 553.533 139.651 553.149 139C552.776 138.349 552.589 137.603 552.589 136.76C552.589 135.917 552.771 135.171 553.133 134.52C553.507 133.869 554.013 133.363 554.653 133C555.304 132.627 556.035 132.44 556.845 132.44C557.667 132.44 558.392 132.621 559.021 132.984C559.651 133.347 560.141 133.859 560.493 134.52C560.856 135.171 561.037 135.933 561.037 136.808C561.037 136.872 561.032 136.947 561.021 137.032C561.021 137.117 561.016 137.197 561.005 137.272H553.789V136.168H560.205L559.581 136.552C559.592 136.008 559.48 135.523 559.245 135.096C559.011 134.669 558.685 134.339 558.269 134.104C557.864 133.859 557.389 133.736 556.845 133.736C556.312 133.736 555.837 133.859 555.421 134.104C555.005 134.339 554.68 134.675 554.445 135.112C554.211 135.539 554.093 136.029 554.093 136.584V136.84C554.093 137.405 554.221 137.912 554.477 138.36C554.744 138.797 555.112 139.139 555.581 139.384C556.051 139.629 556.589 139.752 557.197 139.752C557.699 139.752 558.152 139.667 558.557 139.496C558.973 139.325 559.336 139.069 559.645 138.728L560.493 139.72C560.109 140.168 559.629 140.509 559.053 140.744C558.488 140.979 557.853 141.096 557.149 141.096ZM570.923 141L565.995 129.8H567.723L572.251 140.136H571.259L575.819 129.8H577.419L572.507 141H570.923ZM583.247 141V139.208L583.167 138.872V135.816C583.167 135.165 582.975 134.664 582.591 134.312C582.217 133.949 581.652 133.768 580.895 133.768C580.393 133.768 579.903 133.853 579.423 134.024C578.943 134.184 578.537 134.403 578.207 134.68L577.567 133.528C578.004 133.176 578.527 132.909 579.135 132.728C579.753 132.536 580.399 132.44 581.071 132.44C582.233 132.44 583.129 132.723 583.759 133.288C584.388 133.853 584.703 134.717 584.703 135.88V141H583.247ZM580.463 141.096C579.833 141.096 579.279 140.989 578.799 140.776C578.329 140.563 577.967 140.269 577.711 139.896C577.455 139.512 577.327 139.08 577.327 138.6C577.327 138.141 577.433 137.725 577.647 137.352C577.871 136.979 578.228 136.68 578.719 136.456C579.22 136.232 579.892 136.12 580.735 136.12H583.423V137.224H580.799C580.031 137.224 579.513 137.352 579.247 137.608C578.98 137.864 578.847 138.173 578.847 138.536C578.847 138.952 579.012 139.288 579.343 139.544C579.673 139.789 580.132 139.912 580.719 139.912C581.295 139.912 581.796 139.784 582.223 139.528C582.66 139.272 582.975 138.899 583.167 138.408L583.471 139.464C583.268 139.965 582.911 140.365 582.399 140.664C581.887 140.952 581.241 141.096 580.463 141.096ZM587.545 141V129.128H589.081V141H587.545ZM595.582 141.096C594.857 141.096 594.217 140.963 593.662 140.696C593.118 140.429 592.691 140.024 592.382 139.48C592.083 138.925 591.934 138.232 591.934 137.4V132.52H593.47V137.224C593.47 138.056 593.667 138.68 594.062 139.096C594.467 139.512 595.033 139.72 595.758 139.72C596.291 139.72 596.755 139.613 597.15 139.4C597.545 139.176 597.849 138.856 598.062 138.44C598.275 138.013 598.382 137.501 598.382 136.904V132.52H599.918V141H598.462V138.712L598.702 139.32C598.425 139.885 598.009 140.323 597.454 140.632C596.899 140.941 596.275 141.096 595.582 141.096ZM606.618 141.096C605.711 141.096 604.911 140.909 604.218 140.536C603.535 140.163 603.002 139.651 602.618 139C602.245 138.349 602.058 137.603 602.058 136.76C602.058 135.917 602.239 135.171 602.602 134.52C602.975 133.869 603.482 133.363 604.122 133C604.773 132.627 605.503 132.44 606.314 132.44C607.135 132.44 607.861 132.621 608.49 132.984C609.119 133.347 609.61 133.859 609.962 134.52C610.325 135.171 610.506 135.933 610.506 136.808C610.506 136.872 610.501 136.947 610.49 137.032C610.49 137.117 610.485 137.197 610.474 137.272H603.258V136.168H609.674L609.05 136.552C609.061 136.008 608.949 135.523 608.714 135.096C608.479 134.669 608.154 134.339 607.738 134.104C607.333 133.859 606.858 133.736 606.314 133.736C605.781 133.736 605.306 133.859 604.89 134.104C604.474 134.339 604.149 134.675 603.914 135.112C603.679 135.539 603.562 136.029 603.562 136.584V136.84C603.562 137.405 603.69 137.912 603.946 138.36C604.213 138.797 604.581 139.139 605.05 139.384C605.519 139.629 606.058 139.752 606.666 139.752C607.167 139.752 607.621 139.667 608.026 139.496C608.442 139.325 608.805 139.069 609.114 138.728L609.962 139.72C609.578 140.168 609.098 140.509 608.522 140.744C607.957 140.979 607.322 141.096 606.618 141.096Z" fill="#FAF9F6"/>
<g clip-path="url(#clip6_74_1364)">
<rect x="764.32" y="16" width="188" height="188" rx="94" stroke="#EAEAEA" stroke-opacity="0.13" stroke-width="12"/>
<mask id="mask4_74_1364" style="mask-type:alpha" maskUnits="userSpaceOnUse" x="758" y="10" width="201" height="200">
<g clip-path="url(#clip7_74_1364)">
<path d="M758.32 10H958.32V110H758.32V10Z" fill="black"/>
</g>
</mask>
<g mask="url(#mask4_74_1364)">
<mask id="mask5_74_1364" style="mask-type:alpha" maskUnits="userSpaceOnUse" x="718" y="-30" width="280" height="280">
<g clip-path="url(#clip8_74_1364)">
<path d="M917.099 29.1018L799.542 190.904L718.641 132.126L836.197 -29.6764L917.099 29.1018Z" fill="black"/>
</g>
</mask>
<g mask="url(#mask5_74_1364)">
<rect x="989.619" y="89.2074" width="187.999" height="187.999" rx="93.9995" transform="rotate(126 989.619 89.2074)" stroke="#FAF9F6" stroke-width="12"/>
</g>
</g>
<path d="M813.505 107L827.955 74.6L829.655 77.5H809.805L812.905 74.35V83.45H806.855V72H834.055V76.35L820.455 107H813.505ZM851.699 107.5C848.932 107.5 846.432 106.8 844.199 105.4C841.999 104 840.265 101.967 838.999 99.3C837.732 96.6 837.099 93.3333 837.099 89.5C837.099 85.6667 837.732 82.4167 838.999 79.75C840.265 77.05 841.999 75 844.199 73.6C846.432 72.2 848.932 71.5 851.699 71.5C854.499 71.5 856.999 72.2 859.199 73.6C861.399 75 863.132 77.05 864.399 79.75C865.699 82.4167 866.349 85.6667 866.349 89.5C866.349 93.3333 865.699 96.6 864.399 99.3C863.132 101.967 861.399 104 859.199 105.4C856.999 106.8 854.499 107.5 851.699 107.5ZM851.699 101.85C853.332 101.85 854.749 101.417 855.949 100.55C857.149 99.65 858.082 98.2833 858.749 96.45C859.449 94.6167 859.799 92.3 859.799 89.5C859.799 86.6667 859.449 84.35 858.749 82.55C858.082 80.7167 857.149 79.3667 855.949 78.5C854.749 77.6 853.332 77.15 851.699 77.15C850.132 77.15 848.732 77.6 847.499 78.5C846.299 79.3667 845.349 80.7167 844.649 82.55C843.982 84.35 843.649 86.6667 843.649 89.5C843.649 92.3 843.982 94.6167 844.649 96.45C845.349 98.2833 846.299 99.65 847.499 100.55C848.732 101.417 850.132 101.85 851.699 101.85ZM875.641 107L899.541 72H904.441L880.541 107H875.641ZM878.541 90.85C876.908 90.85 875.458 90.45 874.191 89.65C872.925 88.85 871.941 87.7333 871.241 86.3C870.541 84.8667 870.191 83.1833 870.191 81.25C870.191 79.3167 870.541 77.6333 871.241 76.2C871.941 74.7667 872.925 73.65 874.191 72.85C875.458 72.05 876.908 71.65 878.541 71.65C880.241 71.65 881.708 72.05 882.941 72.85C884.208 73.65 885.191 74.7667 885.891 76.2C886.591 77.6333 886.941 79.3167 886.941 81.25C886.941 83.1833 886.591 84.8667 885.891 86.3C885.191 87.7333 884.208 88.85 882.941 89.65C881.708 90.45 880.241 90.85 878.541 90.85ZM878.591 87.35C879.925 87.35 880.958 86.8333 881.691 85.8C882.458 84.7333 882.841 83.2167 882.841 81.25C882.841 79.2833 882.458 77.7833 881.691 76.75C880.958 75.6833 879.925 75.15 878.591 75.15C877.258 75.15 876.191 75.6833 875.391 76.75C874.625 77.8167 874.241 79.3167 874.241 81.25C874.241 83.1833 874.625 84.6833 875.391 85.75C876.191 86.8167 877.258 87.35 878.591 87.35ZM901.491 107.35C899.858 107.35 898.408 106.95 897.141 106.15C895.875 105.35 894.891 104.233 894.191 102.8C893.491 101.367 893.141 99.6833 893.141 97.75C893.141 95.8167 893.491 94.1333 894.191 92.7C894.891 91.2667 895.875 90.15 897.141 89.35C898.408 88.55 899.858 88.15 901.491 88.15C903.191 88.15 904.658 88.55 905.891 89.35C907.158 90.15 908.141 91.2667 908.841 92.7C909.541 94.1333 909.891 95.8167 909.891 97.75C909.891 99.6833 909.541 101.367 908.841 102.8C908.141 104.233 907.158 105.35 905.891 106.15C904.658 106.95 903.191 107.35 901.491 107.35ZM901.491 103.85C902.825 103.85 903.875 103.317 904.641 102.25C905.408 101.183 905.791 99.6833 905.791 97.75C905.791 95.8167 905.408 94.3167 904.641 93.25C903.875 92.1833 902.825 91.65 901.491 91.65C900.191 91.65 899.141 92.1833 898.341 93.25C897.575 94.2833 897.191 95.7833 897.191 97.75C897.191 99.7167 897.575 101.233 898.341 102.3C899.141 103.333 900.191 103.85 901.491 103.85Z" fill="#FAF9F6"/>
</g>
<path d="M733.014 141V129.8H737.382C738.364 129.8 739.201 129.955 739.894 130.264C740.588 130.573 741.121 131.021 741.494 131.608C741.868 132.195 742.054 132.893 742.054 133.704C742.054 134.515 741.868 135.213 741.494 135.8C741.121 136.376 740.588 136.819 739.894 137.128C739.201 137.437 738.364 137.592 737.382 137.592H733.894L734.614 136.856V141H733.014ZM740.502 141L737.654 136.936H739.366L742.246 141H740.502ZM734.614 137.016L733.894 136.232H737.334C738.358 136.232 739.132 136.013 739.654 135.576C740.188 135.128 740.454 134.504 740.454 133.704C740.454 132.904 740.188 132.285 739.654 131.848C739.132 131.411 738.358 131.192 737.334 131.192H733.894L734.614 130.392V137.016ZM748.191 141.096C747.285 141.096 746.485 140.909 745.791 140.536C745.109 140.163 744.575 139.651 744.191 139C743.818 138.349 743.631 137.603 743.631 136.76C743.631 135.917 743.813 135.171 744.175 134.52C744.549 133.869 745.055 133.363 745.695 133C746.346 132.627 747.077 132.44 747.887 132.44C748.709 132.44 749.434 132.621 750.063 132.984C750.693 133.347 751.183 133.859 751.535 134.52C751.898 135.171 752.079 135.933 752.079 136.808C752.079 136.872 752.074 136.947 752.063 137.032C752.063 137.117 752.058 137.197 752.047 137.272H744.831V136.168H751.247L750.623 136.552C750.634 136.008 750.522 135.523 750.287 135.096C750.053 134.669 749.727 134.339 749.311 134.104C748.906 133.859 748.431 133.736 747.887 133.736C747.354 133.736 746.879 133.859 746.463 134.104C746.047 134.339 745.722 134.675 745.487 135.112C745.253 135.539 745.135 136.029 745.135 136.584V136.84C745.135 137.405 745.263 137.912 745.519 138.36C745.786 138.797 746.154 139.139 746.623 139.384C747.093 139.629 747.631 139.752 748.239 139.752C748.741 139.752 749.194 139.667 749.599 139.496C750.015 139.325 750.378 139.069 750.687 138.728L751.535 139.72C751.151 140.168 750.671 140.509 750.095 140.744C749.53 140.979 748.895 141.096 748.191 141.096ZM757.716 141.096C756.895 141.096 756.159 140.915 755.508 140.552C754.868 140.189 754.361 139.683 753.988 139.032C753.615 138.381 753.428 137.624 753.428 136.76C753.428 135.896 753.615 135.144 753.988 134.504C754.361 133.853 754.868 133.347 755.508 132.984C756.159 132.621 756.895 132.44 757.716 132.44C758.431 132.44 759.076 132.6 759.652 132.92C760.228 133.24 760.687 133.72 761.028 134.36C761.38 135 761.556 135.8 761.556 136.76C761.556 137.72 761.385 138.52 761.044 139.16C760.713 139.8 760.26 140.285 759.684 140.616C759.108 140.936 758.452 141.096 757.716 141.096ZM757.844 139.752C758.377 139.752 758.857 139.629 759.284 139.384C759.721 139.139 760.063 138.792 760.308 138.344C760.564 137.885 760.692 137.357 760.692 136.76C760.692 136.152 760.564 135.629 760.308 135.192C760.063 134.744 759.721 134.397 759.284 134.152C758.857 133.907 758.377 133.784 757.844 133.784C757.3 133.784 756.815 133.907 756.388 134.152C755.961 134.397 755.62 134.744 755.364 135.192C755.108 135.629 754.98 136.152 754.98 136.76C754.98 137.357 755.108 137.885 755.364 138.344C755.62 138.792 755.961 139.139 756.388 139.384C756.815 139.629 757.3 139.752 757.844 139.752ZM760.74 141V138.712L760.836 136.744L760.676 134.776V129.128H762.212V141H760.74ZM768.686 141.096C767.961 141.096 767.321 140.963 766.766 140.696C766.222 140.429 765.796 140.024 765.486 139.48C765.188 138.925 765.038 138.232 765.038 137.4V132.52H766.574V137.224C766.574 138.056 766.772 138.68 767.166 139.096C767.572 139.512 768.137 139.72 768.862 139.72C769.396 139.72 769.86 139.613 770.254 139.4C770.649 139.176 770.953 138.856 771.166 138.44C771.38 138.013 771.486 137.501 771.486 136.904V132.52H773.022V141H771.566V138.712L771.806 139.32C771.529 139.885 771.113 140.323 770.558 140.632C770.004 140.941 769.38 141.096 768.686 141.096ZM779.642 141.096C778.778 141.096 778.005 140.909 777.322 140.536C776.65 140.163 776.122 139.651 775.738 139C775.354 138.349 775.162 137.603 775.162 136.76C775.162 135.917 775.354 135.171 775.738 134.52C776.122 133.869 776.65 133.363 777.322 133C778.005 132.627 778.778 132.44 779.642 132.44C780.41 132.44 781.093 132.595 781.69 132.904C782.298 133.203 782.768 133.651 783.098 134.248L781.93 135C781.653 134.584 781.312 134.28 780.906 134.088C780.512 133.885 780.085 133.784 779.626 133.784C779.072 133.784 778.576 133.907 778.138 134.152C777.701 134.397 777.354 134.744 777.098 135.192C776.842 135.629 776.714 136.152 776.714 136.76C776.714 137.368 776.842 137.896 777.098 138.344C777.354 138.792 777.701 139.139 778.138 139.384C778.576 139.629 779.072 139.752 779.626 139.752C780.085 139.752 780.512 139.656 780.906 139.464C781.312 139.261 781.653 138.952 781.93 138.536L783.098 139.272C782.768 139.859 782.298 140.312 781.69 140.632C781.093 140.941 780.41 141.096 779.642 141.096ZM788.108 141.096C787.255 141.096 786.594 140.867 786.124 140.408C785.655 139.949 785.42 139.293 785.42 138.44V130.664H786.956V138.376C786.956 138.835 787.068 139.187 787.292 139.432C787.527 139.677 787.858 139.8 788.284 139.8C788.764 139.8 789.164 139.667 789.484 139.4L789.964 140.504C789.73 140.707 789.447 140.856 789.116 140.952C788.796 141.048 788.46 141.096 788.108 141.096ZM783.98 133.784V132.52H789.388V133.784H783.98ZM791.821 141V132.52H793.357V141H791.821ZM792.589 130.888C792.291 130.888 792.04 130.792 791.837 130.6C791.645 130.408 791.549 130.173 791.549 129.896C791.549 129.608 791.645 129.368 791.837 129.176C792.04 128.984 792.291 128.888 792.589 128.888C792.888 128.888 793.133 128.984 793.325 129.176C793.528 129.357 793.629 129.587 793.629 129.864C793.629 130.152 793.533 130.397 793.341 130.6C793.149 130.792 792.899 130.888 792.589 130.888ZM799.922 141.096C799.069 141.096 798.312 140.909 797.65 140.536C796.989 140.163 796.466 139.651 796.082 139C795.698 138.339 795.506 137.592 795.506 136.76C795.506 135.917 795.698 135.171 796.082 134.52C796.466 133.869 796.989 133.363 797.65 133C798.312 132.627 799.069 132.44 799.922 132.44C800.765 132.44 801.517 132.627 802.178 133C802.85 133.363 803.373 133.869 803.746 134.52C804.13 135.16 804.322 135.907 804.322 136.76C804.322 137.603 804.13 138.349 803.746 139C803.373 139.651 802.85 140.163 802.178 140.536C801.517 140.909 800.765 141.096 799.922 141.096ZM799.922 139.752C800.466 139.752 800.952 139.629 801.378 139.384C801.816 139.139 802.157 138.792 802.402 138.344C802.648 137.885 802.77 137.357 802.77 136.76C802.77 136.152 802.648 135.629 802.402 135.192C802.157 134.744 801.816 134.397 801.378 134.152C800.952 133.907 800.466 133.784 799.922 133.784C799.378 133.784 798.893 133.907 798.466 134.152C798.04 134.397 797.698 134.744 797.442 135.192C797.186 135.629 797.058 136.152 797.058 136.76C797.058 137.357 797.186 137.885 797.442 138.344C797.698 138.792 798.04 139.139 798.466 139.384C798.893 139.629 799.378 139.752 799.922 139.752ZM810.974 132.44C811.668 132.44 812.276 132.573 812.798 132.84C813.332 133.107 813.748 133.512 814.046 134.056C814.345 134.6 814.494 135.288 814.494 136.12V141H812.958V136.296C812.958 135.475 812.756 134.856 812.35 134.44C811.956 134.024 811.396 133.816 810.67 133.816C810.126 133.816 809.652 133.923 809.246 134.136C808.841 134.349 808.526 134.664 808.302 135.08C808.089 135.496 807.982 136.013 807.982 136.632V141H806.446V132.52H807.918V134.808L807.678 134.2C807.956 133.645 808.382 133.213 808.958 132.904C809.534 132.595 810.206 132.44 810.974 132.44ZM821.858 141V129.8H823.458V141H821.858ZM831.115 132.44C831.808 132.44 832.416 132.573 832.939 132.84C833.472 133.107 833.888 133.512 834.187 134.056C834.486 134.6 834.635 135.288 834.635 136.12V141H833.099V136.296C833.099 135.475 832.896 134.856 832.491 134.44C832.096 134.024 831.536 133.816 830.811 133.816C830.267 133.816 829.792 133.923 829.387 134.136C828.982 134.349 828.667 134.664 828.443 135.08C828.23 135.496 828.123 136.013 828.123 136.632V141H826.587V132.52H828.059V134.808L827.819 134.2C828.096 133.645 828.523 133.213 829.099 132.904C829.675 132.595 830.347 132.44 831.115 132.44ZM847.007 141.128C846.153 141.128 845.364 140.989 844.639 140.712C843.924 140.424 843.3 140.024 842.767 139.512C842.244 138.989 841.833 138.381 841.535 137.688C841.236 136.995 841.087 136.232 841.087 135.4C841.087 134.568 841.236 133.805 841.535 133.112C841.833 132.419 842.249 131.816 842.783 131.304C843.316 130.781 843.94 130.381 844.655 130.104C845.38 129.816 846.169 129.672 847.023 129.672C847.887 129.672 848.681 129.821 849.407 130.12C850.143 130.408 850.767 130.84 851.279 131.416L850.239 132.424C849.812 131.976 849.332 131.645 848.799 131.432C848.265 131.208 847.695 131.096 847.087 131.096C846.457 131.096 845.871 131.203 845.327 131.416C844.793 131.629 844.329 131.928 843.935 132.312C843.54 132.696 843.231 133.155 843.007 133.688C842.793 134.211 842.687 134.781 842.687 135.4C842.687 136.019 842.793 136.595 843.007 137.128C843.231 137.651 843.54 138.104 843.935 138.488C844.329 138.872 844.793 139.171 845.327 139.384C845.871 139.597 846.457 139.704 847.087 139.704C847.695 139.704 848.265 139.597 848.799 139.384C849.332 139.16 849.812 138.819 850.239 138.36L851.279 139.368C850.767 139.944 850.143 140.381 849.407 140.68C848.681 140.979 847.881 141.128 847.007 141.128ZM858.492 141V139.208L858.412 138.872V135.816C858.412 135.165 858.22 134.664 857.836 134.312C857.462 133.949 856.897 133.768 856.14 133.768C855.638 133.768 855.148 133.853 854.668 134.024C854.188 134.184 853.782 134.403 853.452 134.68L852.812 133.528C853.249 133.176 853.772 132.909 854.38 132.728C854.998 132.536 855.644 132.44 856.316 132.44C857.478 132.44 858.374 132.723 859.004 133.288C859.633 133.853 859.948 134.717 859.948 135.88V141H858.492ZM855.708 141.096C855.078 141.096 854.524 140.989 854.044 140.776C853.574 140.563 853.212 140.269 852.956 139.896C852.7 139.512 852.572 139.08 852.572 138.6C852.572 138.141 852.678 137.725 852.892 137.352C853.116 136.979 853.473 136.68 853.964 136.456C854.465 136.232 855.137 136.12 855.98 136.12H858.668V137.224H856.044C855.276 137.224 854.758 137.352 854.492 137.608C854.225 137.864 854.092 138.173 854.092 138.536C854.092 138.952 854.257 139.288 854.588 139.544C854.918 139.789 855.377 139.912 855.964 139.912C856.54 139.912 857.041 139.784 857.468 139.528C857.905 139.272 858.22 138.899 858.412 138.408L858.716 139.464C858.513 139.965 858.156 140.365 857.644 140.664C857.132 140.952 856.486 141.096 855.708 141.096ZM862.79 141V132.52H864.262V134.824L864.118 134.248C864.353 133.661 864.748 133.213 865.302 132.904C865.857 132.595 866.54 132.44 867.35 132.44V133.928C867.286 133.917 867.222 133.912 867.158 133.912C867.105 133.912 867.052 133.912 866.998 133.912C866.177 133.912 865.526 134.157 865.046 134.648C864.566 135.139 864.326 135.848 864.326 136.776V141H862.79ZM873.739 141.096C873.014 141.096 872.358 140.936 871.771 140.616C871.195 140.285 870.737 139.8 870.395 139.16C870.065 138.52 869.899 137.72 869.899 136.76C869.899 135.8 870.07 135 870.411 134.36C870.763 133.72 871.227 133.24 871.803 132.92C872.39 132.6 873.035 132.44 873.739 132.44C874.571 132.44 875.307 132.621 875.947 132.984C876.587 133.347 877.094 133.853 877.467 134.504C877.841 135.144 878.027 135.896 878.027 136.76C878.027 137.624 877.841 138.381 877.467 139.032C877.094 139.683 876.587 140.189 875.947 140.552C875.307 140.915 874.571 141.096 873.739 141.096ZM869.243 141V129.128H870.779V134.776L870.619 136.744L870.715 138.712V141H869.243ZM873.611 139.752C874.155 139.752 874.641 139.629 875.067 139.384C875.505 139.139 875.846 138.792 876.091 138.344C876.347 137.885 876.475 137.357 876.475 136.76C876.475 136.152 876.347 135.629 876.091 135.192C875.846 134.744 875.505 134.397 875.067 134.152C874.641 133.907 874.155 133.784 873.611 133.784C873.078 133.784 872.593 133.907 872.155 134.152C871.729 134.397 871.387 134.744 871.131 135.192C870.886 135.629 870.763 136.152 870.763 136.76C870.763 137.357 870.886 137.885 871.131 138.344C871.387 138.792 871.729 139.139 872.155 139.384C872.593 139.629 873.078 139.752 873.611 139.752ZM883.782 141.096C882.928 141.096 882.171 140.909 881.51 140.536C880.848 140.163 880.326 139.651 879.942 139C879.558 138.339 879.366 137.592 879.366 136.76C879.366 135.917 879.558 135.171 879.942 134.52C880.326 133.869 880.848 133.363 881.51 133C882.171 132.627 882.928 132.44 883.782 132.44C884.624 132.44 885.376 132.627 886.038 133C886.71 133.363 887.232 133.869 887.606 134.52C887.99 135.16 888.182 135.907 888.182 136.76C888.182 137.603 887.99 138.349 887.606 139C887.232 139.651 886.71 140.163 886.038 140.536C885.376 140.909 884.624 141.096 883.782 141.096ZM883.782 139.752C884.326 139.752 884.811 139.629 885.238 139.384C885.675 139.139 886.016 138.792 886.262 138.344C886.507 137.885 886.63 137.357 886.63 136.76C886.63 136.152 886.507 135.629 886.262 135.192C886.016 134.744 885.675 134.397 885.238 134.152C884.811 133.907 884.326 133.784 883.782 133.784C883.238 133.784 882.752 133.907 882.326 134.152C881.899 134.397 881.558 134.744 881.302 135.192C881.046 135.629 880.918 136.152 880.918 136.76C880.918 137.357 881.046 137.885 881.302 138.344C881.558 138.792 881.899 139.139 882.326 139.384C882.752 139.629 883.238 139.752 883.782 139.752ZM894.834 132.44C895.527 132.44 896.135 132.573 896.658 132.84C897.191 133.107 897.607 133.512 897.906 134.056C898.205 134.6 898.354 135.288 898.354 136.12V141H896.818V136.296C896.818 135.475 896.615 134.856 896.21 134.44C895.815 134.024 895.255 133.816 894.53 133.816C893.986 133.816 893.511 133.923 893.106 134.136C892.701 134.349 892.386 134.664 892.162 135.08C891.949 135.496 891.842 136.013 891.842 136.632V141H890.306V132.52H891.778V134.808L891.538 134.2C891.815 133.645 892.242 133.213 892.818 132.904C893.394 132.595 894.066 132.44 894.834 132.44ZM907.173 134.632H912.933V135.992H907.173V134.632ZM907.317 139.608H913.845V141H905.717V129.8H913.621V131.192H907.317V139.608ZM926.82 132.44C927.503 132.44 928.105 132.573 928.628 132.84C929.151 133.107 929.556 133.512 929.844 134.056C930.143 134.6 930.292 135.288 930.292 136.12V141H928.756V136.296C928.756 135.475 928.564 134.856 928.18 134.44C927.796 134.024 927.257 133.816 926.564 133.816C926.052 133.816 925.604 133.923 925.22 134.136C924.836 134.349 924.537 134.664 924.324 135.08C924.121 135.496 924.02 136.013 924.02 136.632V141H922.484V136.296C922.484 135.475 922.292 134.856 921.908 134.44C921.535 134.024 920.996 133.816 920.292 133.816C919.791 133.816 919.348 133.923 918.964 134.136C918.58 134.349 918.281 134.664 918.068 135.08C917.855 135.496 917.748 136.013 917.748 136.632V141H916.212V132.52H917.684V134.776L917.444 134.2C917.711 133.645 918.121 133.213 918.676 132.904C919.231 132.595 919.876 132.44 920.612 132.44C921.423 132.44 922.121 132.643 922.708 133.048C923.295 133.443 923.679 134.045 923.86 134.856L923.236 134.6C923.492 133.949 923.94 133.427 924.58 133.032C925.22 132.637 925.967 132.44 926.82 132.44ZM933.118 141V132.52H934.654V141H933.118ZM933.886 130.888C933.588 130.888 933.337 130.792 933.134 130.6C932.942 130.408 932.846 130.173 932.846 129.896C932.846 129.608 932.942 129.368 933.134 129.176C933.337 128.984 933.588 128.888 933.886 128.888C934.185 128.888 934.43 128.984 934.622 129.176C934.825 129.357 934.926 129.587 934.926 129.864C934.926 130.152 934.83 130.397 934.638 130.6C934.446 130.792 934.196 130.888 933.886 130.888ZM940.019 141.096C939.315 141.096 938.643 141 938.003 140.808C937.374 140.616 936.878 140.381 936.515 140.104L937.155 138.888C937.518 139.133 937.966 139.341 938.499 139.512C939.032 139.683 939.576 139.768 940.131 139.768C940.846 139.768 941.358 139.667 941.667 139.464C941.987 139.261 942.147 138.979 942.147 138.616C942.147 138.349 942.051 138.141 941.859 137.992C941.667 137.843 941.411 137.731 941.091 137.656C940.782 137.581 940.435 137.517 940.051 137.464C939.667 137.4 939.283 137.325 938.899 137.24C938.515 137.144 938.163 137.016 937.843 136.856C937.523 136.685 937.267 136.456 937.075 136.168C936.883 135.869 936.787 135.475 936.787 134.984C936.787 134.472 936.931 134.024 937.219 133.64C937.507 133.256 937.912 132.963 938.435 132.76C938.968 132.547 939.598 132.44 940.323 132.44C940.878 132.44 941.438 132.509 942.003 132.648C942.579 132.776 943.048 132.963 943.411 133.208L942.755 134.424C942.371 134.168 941.971 133.992 941.555 133.896C941.139 133.8 940.723 133.752 940.307 133.752C939.635 133.752 939.134 133.864 938.803 134.088C938.472 134.301 938.307 134.579 938.307 134.92C938.307 135.208 938.403 135.432 938.595 135.592C938.798 135.741 939.054 135.859 939.363 135.944C939.683 136.029 940.035 136.104 940.419 136.168C940.803 136.221 941.187 136.296 941.571 136.392C941.955 136.477 942.302 136.6 942.611 136.76C942.931 136.92 943.187 137.144 943.379 137.432C943.582 137.72 943.683 138.104 943.683 138.584C943.683 139.096 943.534 139.539 943.235 139.912C942.936 140.285 942.515 140.579 941.971 140.792C941.427 140.995 940.776 141.096 940.019 141.096ZM948.035 141.096C947.331 141.096 946.659 141 946.019 140.808C945.389 140.616 944.893 140.381 944.531 140.104L945.171 138.888C945.533 139.133 945.981 139.341 946.515 139.512C947.048 139.683 947.592 139.768 948.147 139.768C948.861 139.768 949.373 139.667 949.683 139.464C950.003 139.261 950.163 138.979 950.163 138.616C950.163 138.349 950.067 138.141 949.875 137.992C949.683 137.843 949.427 137.731 949.107 137.656C948.797 137.581 948.451 137.517 948.067 137.464C947.683 137.4 947.299 137.325 946.915 137.24C946.531 137.144 946.179 137.016 945.859 136.856C945.539 136.685 945.283 136.456 945.091 136.168C944.899 135.869 944.803 135.475 944.803 134.984C944.803 134.472 944.947 134.024 945.235 133.64C945.523 133.256 945.928 132.963 946.451 132.76C946.984 132.547 947.613 132.44 948.339 132.44C948.893 132.44 949.453 132.509 950.019 132.648C950.595 132.776 951.064 132.963 951.427 133.208L950.771 134.424C950.387 134.168 949.987 133.992 949.571 133.896C949.155 133.8 948.739 133.752 948.323 133.752C947.651 133.752 947.149 133.864 946.819 134.088C946.488 134.301 946.323 134.579 946.323 134.92C946.323 135.208 946.419 135.432 946.611 135.592C946.813 135.741 947.069 135.859 947.379 135.944C947.699 136.029 948.051 136.104 948.435 136.168C948.819 136.221 949.203 136.296 949.587 136.392C949.971 136.477 950.317 136.6 950.627 136.76C950.947 136.92 951.203 137.144 951.395 137.432C951.597 137.72 951.699 138.104 951.699 138.584C951.699 139.096 951.549 139.539 951.251 139.912C950.952 140.285 950.531 140.579 949.987 140.792C949.443 140.995 948.792 141.096 948.035 141.096ZM953.618 141V132.52H955.154V141H953.618ZM954.386 130.888C954.088 130.888 953.837 130.792 953.634 130.6C953.442 130.408 953.346 130.173 953.346 129.896C953.346 129.608 953.442 129.368 953.634 129.176C953.837 128.984 954.088 128.888 954.386 128.888C954.685 128.888 954.93 128.984 955.122 129.176C955.325 129.357 955.426 129.587 955.426 129.864C955.426 130.152 955.33 130.397 955.138 130.6C954.946 130.792 954.696 130.888 954.386 130.888ZM961.719 141.096C960.866 141.096 960.108 140.909 959.447 140.536C958.786 140.163 958.263 139.651 957.879 139C957.495 138.339 957.303 137.592 957.303 136.76C957.303 135.917 957.495 135.171 957.879 134.52C958.263 133.869 958.786 133.363 959.447 133C960.108 132.627 960.866 132.44 961.719 132.44C962.562 132.44 963.314 132.627 963.975 133C964.647 133.363 965.17 133.869 965.543 134.52C965.927 135.16 966.119 135.907 966.119 136.76C966.119 137.603 965.927 138.349 965.543 139C965.17 139.651 964.647 140.163 963.975 140.536C963.314 140.909 962.562 141.096 961.719 141.096ZM961.719 139.752C962.263 139.752 962.748 139.629 963.175 139.384C963.612 139.139 963.954 138.792 964.199 138.344C964.444 137.885 964.567 137.357 964.567 136.76C964.567 136.152 964.444 135.629 964.199 135.192C963.954 134.744 963.612 134.397 963.175 134.152C962.748 133.907 962.263 133.784 961.719 133.784C961.175 133.784 960.69 133.907 960.263 134.152C959.836 134.397 959.495 134.744 959.239 135.192C958.983 135.629 958.855 136.152 958.855 136.76C958.855 137.357 958.983 137.885 959.239 138.344C959.495 138.792 959.836 139.139 960.263 139.384C960.69 139.629 961.175 139.752 961.719 139.752ZM972.771 132.44C973.465 132.44 974.073 132.573 974.595 132.84C975.129 133.107 975.545 133.512 975.843 134.056C976.142 134.6 976.291 135.288 976.291 136.12V141H974.755V136.296C974.755 135.475 974.553 134.856 974.147 134.44C973.753 134.024 973.193 133.816 972.467 133.816C971.923 133.816 971.449 133.923 971.043 134.136C970.638 134.349 970.323 134.664 970.099 135.08C969.886 135.496 969.779 136.013 969.779 136.632V141H968.243V132.52H969.715V134.808L969.475 134.2C969.753 133.645 970.179 133.213 970.755 132.904C971.331 132.595 972.003 132.44 972.771 132.44ZM981.566 141.096C980.862 141.096 980.19 141 979.55 140.808C978.921 140.616 978.425 140.381 978.062 140.104L978.702 138.888C979.065 139.133 979.513 139.341 980.046 139.512C980.579 139.683 981.123 139.768 981.678 139.768C982.393 139.768 982.905 139.667 983.214 139.464C983.534 139.261 983.694 138.979 983.694 138.616C983.694 138.349 983.598 138.141 983.406 137.992C983.214 137.843 982.958 137.731 982.638 137.656C982.329 137.581 981.982 137.517 981.598 137.464C981.214 137.4 980.83 137.325 980.446 137.24C980.062 137.144 979.71 137.016 979.39 136.856C979.07 136.685 978.814 136.456 978.622 136.168C978.43 135.869 978.334 135.475 978.334 134.984C978.334 134.472 978.478 134.024 978.766 133.64C979.054 133.256 979.459 132.963 979.982 132.76C980.515 132.547 981.145 132.44 981.87 132.44C982.425 132.44 982.985 132.509 983.55 132.648C984.126 132.776 984.595 132.963 984.958 133.208L984.302 134.424C983.918 134.168 983.518 133.992 983.102 133.896C982.686 133.8 982.27 133.752 981.854 133.752C981.182 133.752 980.681 133.864 980.35 134.088C980.019 134.301 979.854 134.579 979.854 134.92C979.854 135.208 979.95 135.432 980.142 135.592C980.345 135.741 980.601 135.859 980.91 135.944C981.23 136.029 981.582 136.104 981.966 136.168C982.35 136.221 982.734 136.296 983.118 136.392C983.502 136.477 983.849 136.6 984.158 136.76C984.478 136.92 984.734 137.144 984.926 137.432C985.129 137.72 985.23 138.104 985.23 138.584C985.23 139.096 985.081 139.539 984.782 139.912C984.483 140.285 984.062 140.579 983.518 140.792C982.974 140.995 982.323 141.096 981.566 141.096Z" fill="#FAF9F6"/>
<defs>
<clipPath id="clip0_74_1364">
<rect width="200" height="100" fill="white" transform="translate(71.66 10)"/>
</clipPath>
<clipPath id="clip1_74_1364">
<rect width="200" height="200" fill="white" transform="translate(71.66 10)"/>
</clipPath>
<clipPath id="clip2_74_1364">
<rect width="200" height="200" fill="white" transform="translate(297.67 174.2) rotate(162)"/>
</clipPath>
<clipPath id="clip3_74_1364">
<rect width="200" height="100" fill="white" transform="translate(414.99 10)"/>
</clipPath>
<clipPath id="clip4_74_1364">
<rect width="200" height="200" fill="white" transform="translate(414.99 10)"/>
</clipPath>
<clipPath id="clip5_74_1364">
<rect width="200" height="200" fill="white" transform="translate(450.79 -16.01) rotate(18)"/>
</clipPath>
<clipPath id="clip6_74_1364">
<rect width="200" height="100" fill="white" transform="translate(758.32 10)"/>
</clipPath>
<clipPath id="clip7_74_1364">
<rect width="200" height="200" fill="white" transform="translate(758.32 10)"/>
</clipPath>
<clipPath id="clip8_74_1364">
<rect width="199.999" height="199.999" fill="white" transform="translate(998 87.88) rotate(126)"/>
</clipPath>
</defs>
</svg>
