<svg width="50" height="50" viewBox="0 0 50 50" fill="none" xmlns="http://www.w3.org/2000/svg">
<path d="M41.8672 7.61572H7.56638C7.37255 7.61572 7.2168 7.77321 7.2168 7.96531V42.2661C7.2168 42.46 7.37428 42.6157 7.56638 42.6157H41.8672C42.061 42.6157 42.2168 42.4582 42.2168 42.2661V7.96531C42.2168 7.77148 42.0593 7.61572 41.8672 7.61572ZM41.5176 41.9166H7.91591V8.31484H41.5159V41.9148L41.5176 41.9166ZM30.3952 32.343V26.3203C30.3952 26.1646 30.5215 26.0365 30.679 26.0365H33.2403C33.396 26.0365 33.5241 26.1628 33.5241 26.3203V33.8121C33.5241 33.9678 33.3978 34.0959 33.2403 34.0959C33.1849 34.0959 33.133 34.0803 33.088 34.0509L30.5371 32.5868C30.4454 32.5349 30.3952 32.4397 30.3952 32.341L30.3952 32.343ZM34.2389 24.7006V17.0201C34.2389 16.911 34.2995 16.8176 34.3894 16.7691L37.726 14.5747C37.8558 14.4899 38.0306 14.5245 38.1172 14.6561C38.1483 14.7045 38.1639 14.7582 38.1639 14.8118V24.7022C38.1639 24.8579 38.0376 24.986 37.8801 24.986H34.521C34.3652 24.986 34.2371 24.8597 34.2371 24.7022L34.2389 24.7006ZM34.2389 34.283V26.3203C34.2389 26.1646 34.3652 26.0365 34.5227 26.0365H37.8818C38.0376 26.0365 38.1656 26.1628 38.1656 26.3203V36.2107C38.1656 36.3664 38.0393 36.4945 37.8818 36.4945C37.8264 36.4945 37.7728 36.4789 37.7295 36.4495L34.3825 34.5285C34.2908 34.4766 34.2406 34.3814 34.2406 34.2828L34.2389 34.283ZM30.3952 24.7006V19.1763C30.3952 19.0673 30.4558 18.9739 30.5457 18.9254L33.0846 17.2554C33.2144 17.1706 33.3892 17.2052 33.4757 17.3367C33.5068 17.3852 33.5224 17.4388 33.5224 17.4925V24.702C33.5224 24.8578 33.3961 24.9858 33.2386 24.9858H30.6773C30.5216 24.9858 30.3935 24.8595 30.3935 24.702L30.3952 24.7006ZM15.9101 33.8121V26.3203C15.9101 26.1646 16.0364 26.0365 16.1939 26.0365H18.7552C18.9109 26.0365 19.039 26.1628 19.039 26.3203V32.343C19.039 32.4416 18.9871 32.5368 18.8971 32.5887L16.3462 34.0528C16.3029 34.0805 16.2493 34.0978 16.1939 34.0978C16.0381 34.0978 15.9101 33.9715 15.9101 33.814L15.9101 33.8121ZM15.9101 24.7006V17.491C15.9101 17.4374 15.9257 17.3837 15.9568 17.3353C16.0416 17.2055 16.2181 17.1691 16.3479 17.2539L18.8867 18.924C18.9767 18.9724 19.0373 19.0659 19.0373 19.1749V24.6991C19.0373 24.8549 18.911 24.983 18.7535 24.983H16.1922C16.0364 24.983 15.9084 24.8566 15.9084 24.6991L15.9101 24.7006ZM11.2701 36.2107V26.3203C11.2701 26.1646 11.3965 26.0365 11.554 26.0365H14.9131C15.0688 26.0365 15.1969 26.1628 15.1969 26.3203V34.283C15.1969 34.3817 15.145 34.4769 15.055 34.5288L11.708 36.4497C11.6647 36.4774 11.6111 36.4947 11.5557 36.4947C11.3999 36.4947 11.2719 36.3684 11.2719 36.2109L11.2701 36.2107ZM9.87356 40.5649H39.5588C39.6765 40.5649 39.7717 40.4697 39.7717 40.352V10.6668C39.7717 10.62 39.7527 10.5785 39.7267 10.5422V10.4539C39.7267 10.2601 39.5692 10.1043 39.3771 10.1043H10.0569C9.86308 10.1043 9.70733 10.2618 9.70733 10.4539V10.5422C9.68137 10.5768 9.66233 10.6183 9.66233 10.6668V40.352C9.66233 40.4697 9.75751 40.5649 9.8752 40.5649H9.87356ZM39.0276 39.4262H38.434L29.1249 33.8155V17.5011L39.0277 11.2534L39.0276 39.4262ZM20.3093 17.5011V33.8155L11.0002 39.4262H10.4066V11.2534L20.3093 17.5011ZM11.2705 24.7005V14.8101C11.2705 14.7565 11.286 14.7028 11.3172 14.6544C11.402 14.5246 11.5785 14.4882 11.7083 14.573L15.0449 16.7674C15.1349 16.8159 15.1955 16.9093 15.1955 17.0184V24.6989C15.1955 24.8546 15.0691 24.9827 14.9116 24.9827H11.5525C11.3968 24.9827 11.2687 24.8563 11.2687 24.6989L11.2705 24.7005Z" fill="#0F8DFF" fill-opacity="0.8"/>
</svg>
